FW_Gmkhi_033_transform.ufo
<glyph name="exclam" format="1">
  <advance width="527"/>
  <unicode hex="0021"/>
  <outline>
    <contour>
      <point x="233" y="508" type="line"/>
      <point x="233" y="427" type="line"/>
      <point x="240" y="179" type="line"/>
      <point x="260" y="179" type="line"/>
      <point x="266" y="427" type="line"/>
      <point x="266" y="508" type="line"/>
    </contour>
    <contour>
      <point x="231" y="0" type="line"/>
      <point x="269" y="0" type="line"/>
      <point x="269" y="71" type="line"/>
      <point x="231" y="71" type="line"/>
    </contour>
  </outline>
</glyph>
<glyph name="numbersign" format="1">
  <advance width="1217"/>
  <unicode hex="0023"/>
  <outline>
    <contour>
      <point x="1050" y="231" type="line"/>
      <point x="823" y="231" type="line"/>
      <point x="906" y="511" type="line"/>
      <point x="1124" y="511" type="line"/>
      <point x="1124" y="531" type="line"/>
      <point x="913" y="531" type="line"/>
      <point x="975" y="739" type="line"/>
      <point x="938" y="739" type="line"/>
      <point x="877" y="531" type="line"/>
      <point x="436" y="531" type="line"/>
      <point x="498" y="739" type="line"/>
      <point x="461" y="739" type="line"/>
      <point x="399" y="531" type="line"/>
      <point x="164" y="531" type="line"/>
      <point x="164" y="511" type="line"/>
      <point x="392" y="511" type="line"/>
      <point x="309" y="231" type="line"/>
      <point x="90" y="231" type="line"/>
      <point x="90" y="211" type="line"/>
      <point x="302" y="211" type="line"/>
      <point x="239" y="0" type="line"/>
      <point x="276" y="0" type="line"/>
      <point x="339" y="211" type="line"/>
      <point x="779" y="211" type="line"/>
      <point x="717" y="0" type="line"/>
      <point x="754" y="0" type="line"/>
      <point x="817" y="211" type="line"/>
      <point x="1050" y="211" type="line"/>
    </contour>
    <contour>
      <point x="429" y="511" type="line"/>
      <point x="870" y="511" type="line"/>
      <point x="786" y="231" type="line"/>
      <point x="346" y="231" type="line"/>
    </contour>
  </outline>
</glyph>
<glyph name="dollar" format="1">
  <advance width="1147"/>
  <unicode hex="0024"/>
  <outline>
    <contour>
      <point x="968" y="553" type="line"/>
      <point x="864" y="605"/>
      <point x="745" y="635"/>
      <point x="591" y="639" type="curve"/>
      <point x="591" y="702" type="line"/>
      <point x="556" y="702" type="line"/>
      <point x="556" y="640" type="line"/>
      <point x="322" y="640"/>
      <point x="169" y="558"/>
      <point x="169" y="456" type="curve" smooth="yes"/>
      <point x="169" y="351"/>
      <point x="302" y="303"/>
      <point x="556" y="271" type="curve"/>
      <point x="556" y="-77" type="line"/>
      <point x="403" y="-70"/>
      <point x="261" y="-30"/>
      <point x="151" y="32" type="curve"/>
      <point x="123" y="16" type="line"/>
      <point x="236" y="-47"/>
      <point x="392" y="-89"/>
      <point x="556" y="-96" type="curve"/>
      <point x="556" y="-201" type="line"/>
      <point x="591" y="-201" type="line"/>
      <point x="591" y="-97" type="line"/>
      <point x="608" y="-97" type="line" smooth="yes"/>
      <point x="853" y="-97"/>
      <point x="1008" y="-15"/>
      <point x="1008" y="95" type="curve" smooth="yes"/>
      <point x="1008" y="203"/>
      <point x="865" y="251"/>
      <point x="591" y="287" type="curve"/>
      <point x="591" y="620" type="line"/>
      <point x="740" y="616"/>
      <point x="842" y="586"/>
      <point x="942" y="536" type="curve"/>
    </contour>
    <contour>
      <point x="968" y="94" type="curve" smooth="yes"/>
      <point x="968" y="-4"/>
      <point x="828" y="-78"/>
      <point x="610" y="-78" type="curve" smooth="yes"/>
      <point x="591" y="-78" type="line"/>
      <point x="591" y="265" type="line"/>
      <point x="842" y="231"/>
      <point x="968" y="193"/>
    </contour>
    <contour>
      <point x="210" y="457" type="curve" smooth="yes"/>
      <point x="210" y="547"/>
      <point x="345" y="621"/>
      <point x="556" y="621" type="curve"/>
      <point x="556" y="293" type="line"/>
      <point x="318" y="325"/>
      <point x="210" y="364"/>
    </contour>
  </outline>
</glyph>
<glyph name="percent" format="1">
  <advance width="1463"/>
  <unicode hex="0025"/>
  <outline>
    <contour>
      <point x="385" y="359" type="curve" smooth="yes"/>
      <point x="559" y="359"/>
      <point x="671" y="448"/>
      <point x="671" y="548" type="curve" smooth="yes"/>
      <point x="671" y="550" type="line" smooth="yes"/>
      <point x="671" y="649"/>
      <point x="559" y="739"/>
      <point x="385" y="739" type="curve" smooth="yes"/>
      <point x="214" y="739"/>
      <point x="100" y="649"/>
      <point x="100" y="550" type="curve" smooth="yes"/>
      <point x="100" y="548" type="line" smooth="yes"/>
      <point x="100" y="448"/>
      <point x="214" y="359"/>
    </contour>
    <contour>
      <point x="383" y="719" type="curve" smooth="yes"/>
      <point x="535" y="719"/>
      <point x="630" y="637"/>
      <point x="630" y="549" type="curve" smooth="yes"/>
      <point x="630" y="547" type="line" smooth="yes"/>
      <point x="630" y="458"/>
      <point x="538" y="380"/>
      <point x="387" y="380" type="curve" smooth="yes"/>
      <point x="238" y="380"/>
      <point x="140" y="460"/>
      <point x="140" y="549" type="curve" smooth="yes"/>
      <point x="140" y="551" type="line" smooth="yes"/>
      <point x="140" y="639"/>
      <point x="234" y="719"/>
    </contour>
    <contour>
      <point x="717" y="366" type="line"/>
      <point x="238" y="-8" type="line"/>
      <point x="278" y="-8" type="line"/>
      <point x="741" y="353" type="line"/>
      <point x="1226" y="731" type="line"/>
      <point x="1185" y="731" type="line"/>
    </contour>
    <contour>
      <point x="1078" y="-16" type="curve" smooth="yes"/>
      <point x="1252" y="-16"/>
      <point x="1364" y="73"/>
      <point x="1364" y="172" type="curve" smooth="yes"/>
      <point x="1364" y="175" type="line" smooth="yes"/>
      <point x="1364" y="274"/>
      <point x="1252" y="364"/>
      <point x="1078" y="364" type="curve" smooth="yes"/>
      <point x="907" y="364"/>
      <point x="793" y="274"/>
      <point x="793" y="175" type="curve" smooth="yes"/>
      <point x="793" y="172" type="line" smooth="yes"/>
      <point x="793" y="73"/>
      <point x="907" y="-16"/>
    </contour>
    <contour>
      <point x="1080" y="4" type="curve" smooth="yes"/>
      <point x="931" y="4"/>
      <point x="833" y="85"/>
      <point x="833" y="174" type="curve" smooth="yes"/>
      <point x="833" y="176" type="line" smooth="yes"/>
      <point x="833" y="263"/>
      <point x="927" y="343"/>
      <point x="1076" y="343" type="curve" smooth="yes"/>
      <point x="1228" y="343"/>
      <point x="1323" y="261"/>
      <point x="1323" y="174" type="curve" smooth="yes"/>
      <point x="1323" y="171" type="line" smooth="yes"/>
      <point x="1323" y="83"/>
      <point x="1231" y="4"/>
    </contour>
  </outline>
</glyph>
<glyph name="ampersand" format="1">
  <advance width="1248"/>
  <unicode hex="0026"/>
  <outline>
    <contour>
      <point x="956" y="44" type="curve" smooth="yes"/>
      <point x="956" y="60" type="line"/>
      <point x="956" y="260" type="line"/>
      <point x="1095" y="260" type="line"/>
      <point x="1095" y="278" type="line"/>
      <point x="566" y="278" type="line"/>
      <point x="425" y="283"/>
      <point x="337" y="354"/>
      <point x="337" y="393" type="curve" smooth="yes"/>
      <point x="337" y="454"/>
      <point x="416" y="503"/>
      <point x="593" y="503" type="curve" smooth="yes"/>
      <point x="672" y="503"/>
      <point x="805" y="490"/>
      <point x="908" y="465" type="curve"/>
      <point x="924" y="482" type="line"/>
      <point x="825" y="506"/>
      <point x="679" y="521"/>
      <point x="590" y="521" type="curve" smooth="yes"/>
      <point x="400" y="521"/>
      <point x="303" y="467"/>
      <point x="303" y="397" type="curve" smooth="yes"/>
      <point x="303" y="353"/>
      <point x="378" y="284"/>
      <point x="505" y="268" type="curve"/>
      <point x="354" y="247"/>
      <point x="286" y="189"/>
      <point x="286" y="138" type="curve" smooth="yes"/>
      <point x="286" y="76"/>
      <point x="390" y="-1"/>
      <point x="600" y="-2" type="curve" smooth="yes"/>
      <point x="714" y="-3"/>
      <point x="885" y="15"/>
      <point x="955" y="39" type="curve"/>
      <point x="955" y="37"/>
      <point x="956" y="40"/>
    </contour>
    <contour>
      <point x="592" y="16" type="curve" smooth="yes"/>
      <point x="409" y="20"/>
      <point x="319" y="86"/>
      <point x="319" y="140" type="curve" smooth="yes"/>
      <point x="319" y="189"/>
      <point x="401" y="248"/>
      <point x="572" y="260" type="curve"/>
      <point x="924" y="260" type="line"/>
      <point x="924" y="50" type="line"/>
      <point x="833" y="25"/>
      <point x="682" y="14"/>
    </contour>
    <contour>
      <point x="957" y="61" type="curve"/>
      <point x="956" y="60" type="line"/>
      <point x="956" y="61"/>
      <point x="957" y="62"/>
    </contour>
  </outline>
</glyph>
<glyph name="parenleft" format="1">
  <advance width="607"/>
  <unicode hex="0028"/>
  <outline>
    <contour>
      <point x="503" y="-306" type="line"/>
      <point x="284" y="-203"/>
      <point x="165" y="-95"/>
      <point x="165" y="109" type="curve" smooth="yes"/>
      <point x="165" y="298"/>
      <point x="284" y="425"/>
      <point x="503" y="524" type="curve"/>
      <point x="486" y="536" type="line"/>
      <point x="239" y="423"/>
      <point x="132" y="284"/>
      <point x="132" y="110" type="curve" smooth="yes"/>
      <point x="132" y="109" type="line" smooth="yes"/>
      <point x="132" y="-67"/>
      <point x="219" y="-194"/>
      <point x="486" y="-319" type="curve"/>
    </contour>
  </outline>
</glyph>
<glyph name="asterisk" format="1">
  <advance width="856"/>
  <unicode hex="002A"/>
  <outline>
    <contour>
      <point x="413" y="743" type="line"/>
      <point x="443" y="743" type="line"/>
      <point x="437" y="833" type="line"/>
      <point x="570" y="785" type="line"/>
      <point x="585" y="799" type="line"/>
      <point x="539" y="812"/>
      <point x="493" y="828"/>
      <point x="446" y="841" type="curve"/>
      <point x="586" y="884" type="line"/>
      <point x="571" y="898" type="line"/>
      <point x="528" y="882"/>
      <point x="482" y="867"/>
      <point x="437" y="851" type="curve"/>
      <point x="443" y="940" type="line"/>
      <point x="413" y="940" type="line"/>
      <point x="418" y="851" type="line"/>
      <point x="285" y="898" type="line"/>
      <point x="270" y="884" type="line"/>
      <point x="410" y="841" type="line"/>
      <point x="271" y="799" type="line"/>
      <point x="286" y="785" type="line"/>
      <point x="329" y="801"/>
      <point x="419" y="833"/>
      <point x="419" y="833" type="curve"/>
    </contour>
  </outline>
</glyph>
<glyph name="one" format="1">
  <advance width="421"/>
  <unicode hex="0031"/>
  <outline>
    <contour>
      <point x="255" y="0" type="line"/>
      <point x="286" y="0" type="line"/>
      <point x="286" y="473" type="line"/>
      <point x="256" y="473" type="line"/>
      <point x="55" y="444" type="line"/>
      <point x="68" y="428" type="line"/>
      <point x="255" y="454" type="line"/>
    </contour>
  </outline>
</glyph>
<glyph name="seven" format="1">
  <advance width="725"/>
  <unicode hex="0037"/>
  <outline>
    <contour>
      <point x="650" y="473" type="line"/>
      <point x="91" y="473" type="line"/>
      <point x="91" y="454" type="line"/>
      <point x="609" y="454" type="line"/>
      <point x="239" y="0" type="line"/>
      <point x="280" y="0" type="line"/>
      <point x="650" y="458" type="line"/>
    </contour>
  </outline>
</glyph>
<glyph name="eight" format="1">
  <advance width="777"/>
  <unicode hex="0038"/>
  <outline>
    <contour>
      <point x="388" y="-3" type="curve" smooth="yes"/>
      <point x="595" y="-3"/>
      <point x="692" y="58"/>
      <point x="692" y="122" type="curve" smooth="yes"/>
      <point x="692" y="124" type="line" smooth="yes"/>
      <point x="692" y="175"/>
      <point x="603" y="228"/>
      <point x="473" y="246" type="curve"/>
      <point x="602" y="268"/>
      <point x="653" y="316"/>
      <point x="653" y="356" type="curve" smooth="yes"/>
      <point x="653" y="358" type="line" smooth="yes"/>
      <point x="653" y="415"/>
      <point x="557" y="472"/>
      <point x="388" y="472" type="curve" smooth="yes"/>
      <point x="218" y="472"/>
      <point x="122" y="415"/>
      <point x="122" y="358" type="curve" smooth="yes"/>
      <point x="122" y="356" type="line" smooth="yes"/>
      <point x="122" y="311"/>
      <point x="179" y="267"/>
      <point x="301" y="244" type="curve"/>
      <point x="157" y="222"/>
      <point x="84" y="171"/>
      <point x="84" y="124" type="curve" smooth="yes"/>
      <point x="84" y="122" type="line" smooth="yes"/>
      <point x="84" y="61"/>
      <point x="178" y="-3"/>
    </contour>
    <contour>
      <point x="388" y="16" type="curve" smooth="yes"/>
      <point x="195" y="16"/>
      <point x="116" y="73"/>
      <point x="116" y="121" type="curve" smooth="yes"/>
      <point x="116" y="122" type="line" smooth="yes"/>
      <point x="116" y="176"/>
      <point x="227" y="234"/>
      <point x="388" y="234" type="curve" smooth="yes"/>
      <point x="549" y="234"/>
      <point x="660" y="176"/>
      <point x="660" y="122" type="curve" smooth="yes"/>
      <point x="660" y="121" type="line" smooth="yes"/>
      <point x="660" y="70"/>
      <point x="579" y="16"/>
    </contour>
    <contour>
      <point x="388" y="252" type="curve" smooth="yes"/>
      <point x="275" y="252"/>
      <point x="155" y="300"/>
      <point x="155" y="356" type="curve" smooth="yes"/>
      <point x="155" y="358" type="line" smooth="yes"/>
      <point x="155" y="394"/>
      <point x="217" y="453"/>
      <point x="388" y="453" type="curve" smooth="yes"/>
      <point x="559" y="453"/>
      <point x="621" y="394"/>
      <point x="621" y="358" type="curve" smooth="yes"/>
      <point x="621" y="356" type="line" smooth="yes"/>
      <point x="621" y="311"/>
      <point x="531" y="252"/>
    </contour>
  </outline>
</glyph>
<glyph name="nine" format="1">
  <advance width="791"/>
  <unicode hex="0039"/>
  <outline>
    <contour>
      <point x="221" y="11" type="curve"/>
      <point x="241" y="-4" type="line"/>
      <point x="563" y="44"/>
      <point x="705" y="177"/>
      <point x="705" y="318" type="curve" smooth="yes"/>
      <point x="705" y="325" type="line" smooth="yes"/>
      <point x="701" y="403"/>
      <point x="582" y="472"/>
      <point x="425" y="472" type="curve" smooth="yes"/>
      <point x="240" y="472"/>
      <point x="124" y="409"/>
      <point x="124" y="327" type="curve" smooth="yes"/>
      <point x="124" y="248"/>
      <point x="223" y="182"/>
      <point x="392" y="182" type="curve" smooth="yes"/>
      <point x="493" y="182"/>
      <point x="585" y="205"/>
      <point x="659" y="244" type="curve"/>
      <point x="618" y="144"/>
      <point x="478" y="48"/>
    </contour>
    <contour>
      <point x="672" y="308" type="line" smooth="yes"/>
      <point x="672" y="294"/>
      <point x="671" y="280"/>
      <point x="667" y="267" type="curve"/>
      <point x="583" y="219"/>
      <point x="488" y="201"/>
      <point x="395" y="201" type="curve" smooth="yes"/>
      <point x="257" y="201"/>
      <point x="157" y="257"/>
      <point x="157" y="327" type="curve" smooth="yes"/>
      <point x="157" y="397"/>
      <point x="267" y="454"/>
      <point x="425" y="454" type="curve" smooth="yes"/>
      <point x="572" y="454"/>
      <point x="672" y="389"/>
      <point x="672" y="316" type="curve" smooth="yes"/>
    </contour>
  </outline>
</glyph>
<glyph name="equal" format="1">
  <advance width="1106"/>
  <unicode hex="003D"/>
  <outline>
    <contour>
      <point x="171" y="709" type="line"/>
      <point x="934" y="709" type="line"/>
      <point x="934" y="730" type="line"/>
      <point x="171" y="730" type="line"/>
    </contour>
    <contour>
      <point x="171" y="461" type="line"/>
      <point x="934" y="461" type="line"/>
      <point x="934" y="482" type="line"/>
      <point x="171" y="482" type="line"/>
    </contour>
  </outline>
</glyph>
<glyph name="question" format="1">
  <advance width="981.0"/>
  <unicode hex="003F"/>
  <outline>
    <contour>
      <point x="431" y="143" type="line"/>
      <point x="455" y="143" type="line"/>
      <point x="460" y="241" type="line"/>
      <point x="669" y="260"/>
      <point x="755" y="319"/>
      <point x="755" y="385" type="curve" smooth="yes"/>
      <point x="755" y="451"/>
      <point x="674" y="511"/>
      <point x="482" y="511" type="curve" smooth="yes"/>
      <point x="373" y="511"/>
      <point x="278" y="487"/>
      <point x="203" y="454" type="curve"/>
      <point x="222" y="441" type="line"/>
      <point x="295" y="472"/>
      <point x="389" y="493"/>
      <point x="480" y="493" type="curve" smooth="yes"/>
      <point x="663" y="493"/>
      <point x="723" y="438"/>
      <point x="723" y="384" type="curve" smooth="yes"/>
      <point x="723" y="329"/>
      <point x="644" y="270"/>
      <point x="429" y="255" type="curve"/>
      <point x="426" y="253" type="line"/>
    </contour>
    <contour>
      <point x="425" y="0" type="line"/>
      <point x="463" y="0" type="line"/>
      <point x="463" y="71" type="line"/>
      <point x="425" y="71" type="line"/>
    </contour>
  </outline>
</glyph>
<glyph name="bracketleft" format="1">
  <advance width="607"/>
  <unicode hex="005B"/>
  <outline>
    <contour>
      <point x="499" y="-308" type="line"/>
      <point x="499" y="-289" type="line"/>
      <point x="311" y="-289" type="line"/>
      <point x="311" y="518" type="line"/>
      <point x="499" y="518" type="line"/>
      <point x="499" y="536" type="line"/>
      <point x="280" y="536" type="line"/>
      <point x="280" y="-308" type="line"/>
    </contour>
  </outline>
</glyph>
<glyph name="bracketright" format="1">
  <advance width="607"/>
  <unicode hex="005D"/>
  <outline>
    <contour>
      <point x="399" y="-308" type="line"/>
      <point x="399" y="536" type="line"/>
      <point x="179" y="536" type="line"/>
      <point x="179" y="518" type="line"/>
      <point x="368" y="518" type="line"/>
      <point x="368" y="-289" type="line"/>
      <point x="179" y="-289" type="line"/>
      <point x="179" y="-308" type="line"/>
    </contour>
  </outline>
</glyph>
<glyph name="bar" format="1">
  <advance width="451"/>
  <unicode hex="007C"/>
  <outline>
    <contour>
      <point x="240" y="-473" type="line"/>
      <point x="240" y="502" type="line"/>
      <point x="207" y="502" type="line"/>
      <point x="207" y="-473" type="line"/>
    </contour>
  </outline>
</glyph>
<glyph name="braceright" format="1">
  <advance width="608"/>
  <unicode hex="007D"/>
  <outline>
    <contour>
      <point x="104" y="-319" type="line"/>
      <point x="201" y="-319"/>
      <point x="347" y="-309"/>
      <point x="347" y="-197" type="curve" smooth="yes"/>
      <point x="347" y="-123"/>
      <point x="334" y="-52"/>
      <point x="334" y="8" type="curve" smooth="yes"/>
      <point x="334" y="52"/>
      <point x="378" y="90"/>
      <point x="497" y="98" type="curve"/>
      <point x="497" y="118" type="line"/>
      <point x="373" y="130"/>
      <point x="334" y="167"/>
      <point x="334" y="211" type="curve" smooth="yes"/>
      <point x="334" y="272"/>
      <point x="347" y="346"/>
      <point x="347" y="411" type="curve" smooth="yes"/>
      <point x="347" y="525"/>
      <point x="201" y="536"/>
      <point x="104" y="536" type="curve"/>
      <point x="104" y="518" type="line"/>
      <point x="257" y="518"/>
      <point x="315" y="484"/>
      <point x="315" y="419" type="curve" smooth="yes"/>
      <point x="315" y="357"/>
      <point x="302" y="292"/>
      <point x="302" y="225" type="curve" smooth="yes"/>
      <point x="302" y="167"/>
      <point x="334" y="125"/>
      <point x="460" y="111" type="curve"/>
      <point x="460" y="108" type="line"/>
      <point x="333" y="94"/>
      <point x="302" y="55"/>
      <point x="302" y="-7" type="curve" smooth="yes"/>
      <point x="302" y="-77"/>
      <point x="315" y="-137"/>
      <point x="315" y="-198" type="curve" smooth="yes"/>
      <point x="315" y="-265"/>
      <point x="257" y="-300"/>
      <point x="104" y="-300" type="curve"/>
    </contour>
  </outline>
</glyph>
<glyph name="copyright" format="1">
  <advance width="1193"/>
  <unicode hex="00A9"/>
  <outline>
    <contour>
      <point x="599" y="-98" type="curve" smooth="yes"/>
      <point x="879" y="-98"/>
      <point x="1105" y="32"/>
      <point x="1105" y="191" type="curve" smooth="yes"/>
      <point x="1105" y="192" type="line" smooth="yes"/>
      <point x="1105" y="352"/>
      <point x="879" y="481"/>
      <point x="599" y="481" type="curve" smooth="yes"/>
      <point x="320" y="481"/>
      <point x="94" y="352"/>
      <point x="94" y="192" type="curve" smooth="yes"/>
      <point x="94" y="191" type="line" smooth="yes"/>
      <point x="94" y="32"/>
      <point x="320" y="-98"/>
    </contour>
    <contour>
      <point x="599" y="-79" type="curve" smooth="yes"/>
      <point x="335" y="-79"/>
      <point x="126" y="40"/>
      <point x="126" y="191" type="curve" smooth="yes"/>
      <point x="126" y="192" type="line" smooth="yes"/>
      <point x="126" y="343"/>
      <point x="335" y="462"/>
      <point x="599" y="462" type="curve" smooth="yes"/>
      <point x="864" y="462"/>
      <point x="1073" y="343"/>
      <point x="1073" y="192" type="curve" smooth="yes"/>
      <point x="1073" y="191" type="line" smooth="yes"/>
      <point x="1073" y="40"/>
      <point x="864" y="-79"/>
    </contour>
    <contour>
      <point x="608" y="45" type="curve" smooth="yes"/>
      <point x="708" y="45"/>
      <point x="762" y="67"/>
      <point x="818" y="87" type="curve"/>
      <point x="801" y="103" type="line"/>
      <point x="750" y="84"/>
      <point x="698" y="63"/>
      <point x="611" y="63" type="curve" smooth="yes"/>
      <point x="482" y="63"/>
      <point x="390" y="121"/>
      <point x="390" y="194" type="curve"/>
      <point x="388" y="195"/>
      <point x="388" y="195"/>
      <point x="390" y="196" type="curve"/>
      <point x="390" y="266"/>
      <point x="465" y="325"/>
      <point x="600" y="325" type="curve" smooth="yes"/>
      <point x="680" y="325"/>
      <point x="730" y="313"/>
      <point x="779" y="297" type="curve"/>
      <point x="791" y="315" type="line"/>
      <point x="736" y="330"/>
      <point x="691" y="343"/>
      <point x="601" y="343" type="curve" smooth="yes"/>
      <point x="451" y="343"/>
      <point x="357" y="276"/>
      <point x="357" y="195" type="curve" smooth="yes"/>
      <point x="357" y="193" type="line" smooth="yes"/>
      <point x="357" y="113"/>
      <point x="464" y="45"/>
    </contour>
  </outline>
</glyph>
<glyph name="registered" format="1">
  <advance width="973"/>
  <unicode hex="00AE"/>
  <outline>
    <contour>
      <point x="496" y="651" type="curve" smooth="yes"/>
      <point x="620" y="651"/>
      <point x="724" y="709"/>
      <point x="724" y="775" type="curve" smooth="yes"/>
      <point x="724" y="776" type="line" smooth="yes"/>
      <point x="724" y="842"/>
      <point x="621" y="899"/>
      <point x="496" y="899" type="curve" smooth="yes"/>
      <point x="374" y="899"/>
      <point x="270" y="841"/>
      <point x="270" y="775" type="curve" smooth="yes"/>
      <point x="270" y="774" type="line" smooth="yes"/>
      <point x="270" y="709"/>
      <point x="372" y="651"/>
    </contour>
    <contour>
      <point x="496" y="664" type="curve" smooth="yes"/>
      <point x="382" y="664"/>
      <point x="295" y="714"/>
      <point x="295" y="775" type="curve" smooth="yes"/>
      <point x="295" y="835"/>
      <point x="384" y="886"/>
      <point x="496" y="886" type="curve" smooth="yes"/>
      <point x="610" y="886"/>
      <point x="698" y="836"/>
      <point x="698" y="775" type="curve" smooth="yes"/>
      <point x="698" y="715"/>
      <point x="609" y="664"/>
    </contour>
    <contour>
      <point x="419" y="716" type="line"/>
      <point x="443" y="716" type="line"/>
      <point x="443" y="753" type="line"/>
      <point x="498" y="753" type="line"/>
      <point x="564" y="716" type="line"/>
      <point x="597" y="716" type="line"/>
      <point x="526" y="756" type="line"/>
      <point x="564" y="760"/>
      <point x="593" y="776"/>
      <point x="593" y="798" type="curve" smooth="yes"/>
      <point x="593" y="821"/>
      <point x="564" y="838"/>
      <point x="509" y="838" type="curve" smooth="yes"/>
      <point x="419" y="838" type="line"/>
    </contour>
    <contour>
      <point x="443" y="766" type="line"/>
      <point x="443" y="826" type="line"/>
      <point x="506" y="826" type="line" smooth="yes"/>
      <point x="549" y="826"/>
      <point x="569" y="812"/>
      <point x="569" y="797" type="curve" smooth="yes"/>
      <point x="569" y="778"/>
      <point x="539" y="766"/>
      <point x="504" y="766" type="curve" smooth="yes"/>
    </contour>
  </outline>
</glyph>
<glyph name="paragraph" format="1">
  <advance width="844"/>
  <unicode hex="00B6"/>
  <outline>
    <contour>
      <point x="612" y="0" type="line"/>
      <point x="653" y="0" type="line"/>
      <point x="653" y="739" type="line"/>
      <point x="564" y="739" type="line" smooth="yes"/>
      <point x="293" y="739"/>
      <point x="95" y="655"/>
      <point x="95" y="517" type="curve" smooth="yes"/>
      <point x="95" y="514" type="line" smooth="yes"/>
      <point x="95" y="372"/>
      <point x="317" y="292"/>
      <point x="591" y="292" type="curve" smooth="yes"/>
      <point x="612" y="292" type="line"/>
    </contour>
  </outline>
</glyph>
<glyph name="uni0A01" format="1">
  <advance width="6"/>
  <unicode hex="0A01"/>
  <outline>
    <contour>
      <point x="-341" y="1140" type="curve" smooth="yes"/>
      <point x="-196" y="1140"/>
      <point x="-104" y="1210"/>
      <point x="-88" y="1296" type="curve"/>
      <point x="-120" y="1304" type="line"/>
      <point x="-123" y="1227"/>
      <point x="-211" y="1159"/>
      <point x="-344" y="1159" type="curve" smooth="yes"/>
      <point x="-476" y="1159"/>
      <point x="-555" y="1216"/>
      <point x="-568" y="1304" type="curve"/>
      <point x="-599" y="1296" type="line"/>
      <point x="-582" y="1198"/>
      <point x="-476" y="1140"/>
    </contour>
    <contour>
      <point x="-363" y="1246" type="line"/>
      <point x="-325" y="1246" type="line"/>
      <point x="-325" y="1301" type="line"/>
      <point x="-363" y="1301" type="line"/>
    </contour>
  </outline>
</glyph>
<glyph name="uni0A02" format="1">
  <advance width="4"/>
  <unicode hex="0A02"/>
  <outline>
    <contour>
      <point x="-59" y="1145" type="line"/>
      <point x="-19" y="1145" type="line"/>
      <point x="-19" y="1201" type="line"/>
      <point x="-59" y="1201" type="line"/>
    </contour>
  </outline>
</glyph>
<glyph name="uni0A05" format="1">
  <advance width="1209"/>
  <unicode hex="0A05"/>
  <outline>
    <contour>
      <point x="1210" y="474" type="line"/>
      <point x="1210" y="492" type="line"/>
      <point x="968" y="492" type="line"/>
      <point x="968" y="222" type="line"/>
      <point x="854" y="221"/>
      <point x="740" y="208"/>
      <point x="641" y="164" type="curve"/>
      <point x="688" y="220"/>
      <point x="700" y="327"/>
      <point x="670" y="402" type="curve"/>
      <point x="572" y="407"/>
      <point x="395" y="364"/>
      <point x="291" y="297" type="curve"/>
      <point x="292" y="363"/>
      <point x="266" y="426"/>
      <point x="214" y="455" type="curve" smooth="yes"/>
      <point x="166" y="483"/>
      <point x="96" y="492"/>
      <point x="31" y="492" type="curve" smooth="yes"/>
      <point x="3" y="492" type="line"/>
      <point x="-4" y="474" type="line"/>
      <point x="21" y="474" type="line" smooth="yes"/>
      <point x="111" y="474"/>
      <point x="158" y="461"/>
      <point x="186" y="445" type="curve" smooth="yes"/>
      <point x="242" y="413"/>
      <point x="264" y="343"/>
      <point x="260" y="277" type="curve"/>
      <point x="130" y="189" type="line"/>
      <point x="169" y="178" type="line"/>
      <point x="303" y="278" type="line" smooth="yes"/>
      <point x="378" y="336"/>
      <point x="544" y="384"/>
      <point x="649" y="382" type="curve"/>
      <point x="662" y="303"/>
      <point x="653" y="203"/>
      <point x="587" y="141" type="curve"/>
      <point x="478" y="64" type="line"/>
      <point x="518" y="53" type="line"/>
      <point x="601" y="118" type="line" smooth="yes"/>
      <point x="683" y="177"/>
      <point x="813" y="201"/>
      <point x="968" y="202" type="curve"/>
      <point x="968" y="0" type="line"/>
      <point x="999" y="0" type="line"/>
      <point x="999" y="474" type="line"/>
    </contour>
  </outline>
</glyph>
<glyph name="uni0A06" format="1">
  <advance width="1628"/>
  <unicode hex="0A06"/>
  <outline>
    <contour>
      <point x="1628" y="474" type="line"/>
      <point x="1628" y="492" type="line"/>
      <point x="961" y="492" type="line"/>
      <point x="961" y="222" type="line"/>
      <point x="848" y="221"/>
      <point x="734" y="208"/>
      <point x="635" y="164" type="curve"/>
      <point x="681" y="220"/>
      <point x="694" y="327"/>
      <point x="663" y="402" type="curve"/>
      <point x="566" y="407"/>
      <point x="389" y="364"/>
      <point x="284" y="297" type="curve"/>
      <point x="285" y="363"/>
      <point x="259" y="426"/>
      <point x="208" y="455" type="curve" smooth="yes"/>
      <point x="159" y="483"/>
      <point x="90" y="492"/>
      <point x="24" y="492" type="curve" smooth="yes"/>
      <point x="-4" y="492" type="line"/>
      <point x="-10" y="474" type="line"/>
      <point x="14" y="474" type="line" smooth="yes"/>
      <point x="104" y="474"/>
      <point x="152" y="461"/>
      <point x="180" y="445" type="curve" smooth="yes"/>
      <point x="236" y="413"/>
      <point x="257" y="343"/>
      <point x="254" y="277" type="curve"/>
      <point x="123" y="189" type="line"/>
      <point x="163" y="178" type="line"/>
      <point x="297" y="278" type="line" smooth="yes"/>
      <point x="372" y="336"/>
      <point x="537" y="384"/>
      <point x="643" y="382" type="curve"/>
      <point x="656" y="303"/>
      <point x="646" y="203"/>
      <point x="581" y="141" type="curve"/>
      <point x="472" y="64" type="line"/>
      <point x="511" y="53" type="line"/>
      <point x="595" y="118" type="line" smooth="yes"/>
      <point x="677" y="177"/>
      <point x="806" y="201"/>
      <point x="961" y="202" type="curve"/>
      <point x="961" y="0" type="line"/>
      <point x="993" y="0" type="line"/>
      <point x="993" y="474" type="line"/>
      <point x="1412" y="474" type="line"/>
      <point x="1412" y="160" type="line"/>
      <point x="1443" y="160" type="line"/>
      <point x="1443" y="474" type="line"/>
    </contour>
  </outline>
</glyph>
<glyph name="uni0A08" format="1">
  <advance width="1403"/>
  <unicode hex="0A08"/>
  <outline>
    <contour>
      <point x="979" y="474" type="line"/>
      <point x="979" y="492" type="line"/>
      <point x="0" y="492" type="line"/>
      <point x="0" y="474" type="line"/>
      <point x="176" y="474" type="line"/>
      <point x="203" y="404"/>
      <point x="295" y="306"/>
      <point x="377" y="249" type="curve"/>
      <point x="300" y="224"/>
      <point x="226" y="188"/>
      <point x="167" y="140" type="curve"/>
      <point x="262" y="65"/>
      <point x="464" y="8"/>
      <point x="627" y="8" type="curve" smooth="yes"/>
      <point x="698" y="8"/>
      <point x="786" y="25"/>
      <point x="861" y="54" type="curve"/>
      <point x="851" y="71" type="line"/>
      <point x="765" y="41"/>
      <point x="689" y="27"/>
      <point x="630" y="27" type="curve" smooth="yes"/>
      <point x="493" y="27"/>
      <point x="302" y="74"/>
      <point x="209" y="140" type="curve"/>
      <point x="353" y="250"/>
      <point x="589" y="288"/>
      <point x="728" y="288" type="curve" smooth="yes"/>
      <point x="767" y="288" type="line"/>
      <point x="767" y="474" type="line"/>
    </contour>
    <contour>
      <point x="212" y="474" type="curve"/>
      <point x="735" y="474" type="line"/>
      <point x="735" y="306" type="line"/>
      <point x="728" y="306" type="line" smooth="yes"/>
      <point x="646" y="306"/>
      <point x="525" y="294"/>
      <point x="407" y="259" type="curve"/>
      <point x="334" y="304"/>
      <point x="239" y="402"/>
    </contour>
    <contour>
      <point x="1404" y="474" type="line"/>
      <point x="1404" y="492" type="line"/>
      <point x="1208" y="492" type="line"/>
      <point x="1208" y="573" type="line" smooth="yes"/>
      <point x="1208" y="701"/>
      <point x="1108" y="772"/>
      <point x="931" y="772" type="curve" smooth="yes"/>
      <point x="802" y="772"/>
      <point x="701" y="722"/>
      <point x="665" y="648" type="curve" smooth="yes"/>
      <point x="659" y="636" type="line"/>
      <point x="690" y="635" type="line"/>
      <point x="697" y="647" type="line" smooth="yes"/>
      <point x="729" y="707"/>
      <point x="810" y="753"/>
      <point x="929" y="753" type="curve" smooth="yes"/>
      <point x="1093" y="753"/>
      <point x="1176" y="689"/>
      <point x="1176" y="565" type="curve" smooth="yes"/>
      <point x="1176" y="492" type="line"/>
      <point x="980" y="492" type="line"/>
      <point x="980" y="474" type="line"/>
      <point x="1176" y="474" type="line"/>
      <point x="1176" y="0" type="line"/>
      <point x="1208" y="0" type="line"/>
      <point x="1208" y="474" type="line"/>
    </contour>
  </outline>
</glyph>
<glyph name="uni0A0A" format="1">
  <advance width="1175"/>
  <unicode hex="0A0A"/>
  <outline>
    <contour>
      <point x="0" y="235" type="line"/>
      <point x="0" y="217" type="line"/>
      <point x="196" y="217" type="line"/>
      <point x="134" y="-40"/>
      <point x="373" y="-249"/>
      <point x="647" y="-249" type="curve" smooth="yes"/>
      <point x="779" y="-249"/>
      <point x="870" y="-202"/>
      <point x="870" y="-134" type="curve" smooth="yes"/>
      <point x="870" y="-94"/>
      <point x="826" y="-41"/>
      <point x="708" y="-16" type="curve"/>
      <point x="853" y="4"/>
      <point x="980" y="95"/>
      <point x="984" y="217" type="curve"/>
      <point x="1175" y="217" type="line"/>
      <point x="1175" y="235" type="line"/>
      <point x="985" y="235" type="line"/>
      <point x="985" y="359"/>
      <point x="852" y="453"/>
      <point x="638" y="453" type="curve" smooth="yes"/>
      <point x="462" y="453"/>
      <point x="278" y="385"/>
      <point x="215" y="262" type="curve" smooth="yes"/>
      <point x="202" y="235" type="line"/>
    </contour>
    <contour>
      <point x="662" y="-3" type="curve" smooth="yes"/>
      <point x="250" y="-4" type="line"/>
      <point x="216" y="64"/>
      <point x="205" y="140"/>
      <point x="228" y="217" type="curve"/>
      <point x="952" y="217" type="line"/>
      <point x="949" y="109"/>
      <point x="818" y="-3"/>
    </contour>
    <contour>
      <point x="243" y="250" type="line" smooth="yes"/>
      <point x="308" y="374"/>
      <point x="476" y="435"/>
      <point x="645" y="435" type="curve" smooth="yes"/>
      <point x="808" y="435"/>
      <point x="952" y="360"/>
      <point x="953" y="235" type="curve"/>
      <point x="235" y="235" type="line"/>
    </contour>
    <contour>
      <point x="618" y="-23" type="line" smooth="yes"/>
      <point x="715" y="-23"/>
      <point x="838" y="-65"/>
      <point x="838" y="-137" type="curve" smooth="yes"/>
      <point x="838" y="-191"/>
      <point x="760" y="-231"/>
      <point x="644" y="-231" type="curve" smooth="yes"/>
      <point x="482" y="-231"/>
      <point x="333" y="-143"/>
      <point x="261" y="-23" type="curve"/>
    </contour>
    <contour>
      <point x="276" y="-375" type="line"/>
      <point x="349" y="-390"/>
      <point x="463" y="-406"/>
      <point x="586" y="-406" type="curve" smooth="yes"/>
      <point x="712" y="-406"/>
      <point x="835" y="-391"/>
      <point x="914" y="-375" type="curve"/>
      <point x="914" y="-357" type="line"/>
      <point x="832" y="-372"/>
      <point x="728" y="-387"/>
      <point x="586" y="-387" type="curve" smooth="yes"/>
      <point x="443" y="-387"/>
      <point x="360" y="-372"/>
      <point x="276" y="-357" type="curve"/>
    </contour>
    <contour>
      <point x="294" y="-501" type="line"/>
      <point x="367" y="-516"/>
      <point x="473" y="-530"/>
      <point x="586" y="-530" type="curve" smooth="yes"/>
      <point x="701" y="-530"/>
      <point x="817" y="-517"/>
      <point x="896" y="-501" type="curve"/>
      <point x="896" y="-483" type="line"/>
      <point x="814" y="-499"/>
      <point x="717" y="-511"/>
      <point x="586" y="-511" type="curve" smooth="yes"/>
      <point x="454" y="-511"/>
      <point x="378" y="-499"/>
      <point x="294" y="-483" type="curve"/>
    </contour>
  </outline>
</glyph>
<glyph name="uni0A14" format="1">
  <advance width="1213"/>
  <unicode hex="0A14"/>
  <outline>
    <contour>
      <point x="1213" y="474" type="line"/>
      <point x="1213" y="492" type="line"/>
      <point x="971" y="492" type="line"/>
      <point x="971" y="222" type="line"/>
      <point x="858" y="221"/>
      <point x="743" y="208"/>
      <point x="644" y="164" type="curve"/>
      <point x="691" y="220"/>
      <point x="704" y="327"/>
      <point x="673" y="402" type="curve"/>
      <point x="576" y="407"/>
      <point x="399" y="364"/>
      <point x="294" y="297" type="curve"/>
      <point x="295" y="363"/>
      <point x="269" y="426"/>
      <point x="218" y="455" type="curve" smooth="yes"/>
      <point x="169" y="483"/>
      <point x="100" y="492"/>
      <point x="34" y="492" type="curve" smooth="yes"/>
      <point x="6" y="492" type="line"/>
      <point x="0" y="474" type="line"/>
      <point x="24" y="474" type="line" smooth="yes"/>
      <point x="114" y="474"/>
      <point x="162" y="461"/>
      <point x="190" y="445" type="curve" smooth="yes"/>
      <point x="246" y="413"/>
      <point x="267" y="343"/>
      <point x="264" y="277" type="curve"/>
      <point x="133" y="189" type="line"/>
      <point x="173" y="178" type="line"/>
      <point x="307" y="278" type="line" smooth="yes"/>
      <point x="382" y="336"/>
      <point x="547" y="384"/>
      <point x="653" y="382" type="curve"/>
      <point x="666" y="303"/>
      <point x="656" y="203"/>
      <point x="590" y="141" type="curve"/>
      <point x="482" y="64" type="line"/>
      <point x="521" y="53" type="line"/>
      <point x="605" y="118" type="line" smooth="yes"/>
      <point x="687" y="177"/>
      <point x="816" y="201"/>
      <point x="971" y="202" type="curve"/>
      <point x="971" y="0" type="line"/>
      <point x="1003" y="0" type="line"/>
      <point x="1003" y="474" type="line"/>
    </contour>
    <contour>
      <point x="943" y="589" type="line"/>
      <point x="914" y="615"/>
      <point x="888" y="638"/>
      <point x="888" y="663" type="curve" smooth="yes"/>
      <point x="888" y="711"/>
      <point x="941" y="743"/>
      <point x="1033" y="743" type="curve" smooth="yes"/>
      <point x="1124" y="743"/>
      <point x="1174" y="711"/>
      <point x="1174" y="663" type="curve" smooth="yes"/>
      <point x="1174" y="640"/>
      <point x="1154" y="615"/>
      <point x="1127" y="589" type="curve"/>
      <point x="1164" y="589" type="line"/>
      <point x="1186" y="614"/>
      <point x="1206" y="636"/>
      <point x="1206" y="661" type="curve" smooth="yes"/>
      <point x="1206" y="724"/>
      <point x="1139" y="762"/>
      <point x="1035" y="762" type="curve" smooth="yes"/>
      <point x="972" y="762"/>
      <point x="922" y="749"/>
      <point x="890" y="727" type="curve"/>
      <point x="864" y="717"/>
      <point x="834" y="713"/>
      <point x="788" y="713" type="curve" smooth="yes"/>
      <point x="739" y="713"/>
      <point x="690" y="736"/>
      <point x="686" y="800" type="curve"/>
      <point x="660" y="782" type="line"/>
      <point x="673" y="724"/>
      <point x="722" y="695"/>
      <point x="798" y="694" type="curve" smooth="yes"/>
      <point x="820" y="694"/>
      <point x="842" y="696"/>
      <point x="868" y="703" type="curve"/>
      <point x="860" y="691"/>
      <point x="856" y="677"/>
      <point x="856" y="661" type="curve" smooth="yes"/>
      <point x="856" y="637"/>
      <point x="886" y="606"/>
      <point x="905" y="589" type="curve"/>
    </contour>
  </outline>
</glyph>
<glyph name="uni0A15" format="1">
  <advance width="1036"/>
  <unicode hex="0A15"/>
  <outline>
    <contour>
      <point x="1036" y="474" type="line"/>
      <point x="1036" y="492" type="line"/>
      <point x="0" y="492" type="line"/>
      <point x="0" y="474" type="line"/>
      <point x="795" y="474" type="line"/>
      <point x="795" y="441" type="line" smooth="yes"/>
      <point x="795" y="359"/>
      <point x="770" y="290"/>
      <point x="727" y="236" type="curve"/>
      <point x="723" y="241" type="line"/>
      <point x="648" y="307"/>
      <point x="526" y="355"/>
      <point x="398" y="355" type="curve" smooth="yes"/>
      <point x="222" y="355"/>
      <point x="137" y="290"/>
      <point x="137" y="223" type="curve" smooth="yes"/>
      <point x="137" y="152"/>
      <point x="236" y="76"/>
      <point x="406" y="76" type="curve" smooth="yes"/>
      <point x="537" y="76"/>
      <point x="654" y="119"/>
      <point x="731" y="199" type="curve"/>
      <point x="783" y="140"/>
      <point x="817" y="89"/>
      <point x="839" y="10" type="curve" smooth="yes"/>
      <point x="842" y="0" type="line"/>
      <point x="875" y="2" type="line"/>
      <point x="870" y="16" type="line" smooth="yes"/>
      <point x="845" y="95"/>
      <point x="805" y="161"/>
      <point x="748" y="218" type="curve"/>
      <point x="797" y="278"/>
      <point x="826" y="354"/>
      <point x="826" y="446" type="curve" smooth="yes"/>
      <point x="826" y="474" type="line"/>
    </contour>
    <contour>
      <point x="404" y="94" type="curve" smooth="yes"/>
      <point x="261" y="94"/>
      <point x="169" y="158"/>
      <point x="169" y="221" type="curve" smooth="yes"/>
      <point x="169" y="282"/>
      <point x="246" y="337"/>
      <point x="400" y="337" type="curve" smooth="yes"/>
      <point x="507" y="337"/>
      <point x="629" y="295"/>
      <point x="707" y="222" type="curve" smooth="yes"/>
      <point x="712" y="217" type="line"/>
      <point x="640" y="138"/>
      <point x="527" y="94"/>
    </contour>
  </outline>
</glyph>
<glyph name="uni0A16" format="1">
  <advance width="1030"/>
  <unicode hex="0A16"/>
  <outline>
    <contour>
      <point x="1030" y="474" type="line"/>
      <point x="1030" y="492" type="line"/>
      <point x="788" y="492" type="line"/>
      <point x="788" y="312" type="line"/>
      <point x="265" y="312" type="line"/>
      <point x="265" y="492" type="line"/>
      <point x="0" y="492" type="line"/>
      <point x="0" y="474" type="line"/>
      <point x="232" y="474" type="line"/>
      <point x="232" y="312" type="line" smooth="yes"/>
      <point x="232" y="287"/>
      <point x="196" y="201"/>
      <point x="176" y="153" type="curve"/>
      <point x="250" y="107"/>
      <point x="392" y="74"/>
      <point x="513" y="74" type="curve" smooth="yes"/>
      <point x="514" y="74" type="line" smooth="yes"/>
      <point x="622" y="74"/>
      <point x="719" y="85"/>
      <point x="788" y="98" type="curve"/>
      <point x="788" y="0" type="line"/>
      <point x="819" y="0" type="line"/>
      <point x="819" y="474" type="line"/>
    </contour>
    <contour>
      <point x="514" y="93" type="curve" smooth="yes"/>
      <point x="513" y="93" type="line" smooth="yes"/>
      <point x="415" y="93"/>
      <point x="284" y="119"/>
      <point x="213" y="159" type="curve"/>
      <point x="228" y="198"/>
      <point x="254" y="262"/>
      <point x="262" y="294" type="curve"/>
      <point x="788" y="294" type="line"/>
      <point x="788" y="117" type="line"/>
      <point x="708" y="102"/>
      <point x="619" y="93"/>
    </contour>
  </outline>
</glyph>
<glyph name="uni0A17" format="1">
  <advance width="1199"/>
  <unicode hex="0A17"/>
  <outline>
    <contour>
      <point x="1199" y="492" type="line"/>
      <point x="0" y="492" type="line"/>
      <point x="0" y="474" type="line"/>
      <point x="588" y="474" type="line"/>
      <point x="588" y="314" type="line"/>
      <point x="302" y="314" type="line" smooth="yes"/>
      <point x="151" y="314"/>
      <point x="86" y="276"/>
      <point x="86" y="225" type="curve" smooth="yes"/>
      <point x="86" y="224" type="line" smooth="yes"/>
      <point x="86" y="124"/>
      <point x="298" y="8"/>
      <point x="455" y="8" type="curve" smooth="yes"/>
      <point x="456" y="8" type="line" smooth="yes"/>
      <point x="553" y="8"/>
      <point x="619" y="42"/>
      <point x="619" y="122" type="curve" smooth="yes"/>
      <point x="619" y="474" type="line"/>
      <point x="957" y="474" type="line"/>
      <point x="957" y="0" type="line"/>
      <point x="988" y="0" type="line"/>
      <point x="988" y="474" type="line"/>
      <point x="1199" y="474" type="line"/>
    </contour>
    <contour>
      <point x="459" y="26" type="curve" smooth="yes"/>
      <point x="458" y="26" type="line" smooth="yes"/>
      <point x="318" y="26"/>
      <point x="120" y="134"/>
      <point x="120" y="224" type="curve" smooth="yes"/>
      <point x="120" y="224" type="line" smooth="yes"/>
      <point x="120" y="267"/>
      <point x="174" y="295"/>
      <point x="306" y="295" type="curve" smooth="yes"/>
      <point x="588" y="295" type="line"/>
      <point x="588" y="124" type="line" smooth="yes"/>
      <point x="588" y="56"/>
      <point x="536" y="26"/>
    </contour>
  </outline>
</glyph>
<glyph name="uni0A18" format="1">
  <advance width="1307"/>
  <unicode hex="0A18"/>
  <outline>
    <contour>
      <point x="1307" y="474" type="line"/>
      <point x="1307" y="492" type="line"/>
      <point x="1065" y="492" type="line"/>
      <point x="1065" y="121" type="line"/>
      <point x="1031" y="115"/>
      <point x="974" y="111"/>
      <point x="945" y="111" type="curve" smooth="yes"/>
      <point x="944" y="111" type="line" smooth="yes"/>
      <point x="819" y="111"/>
      <point x="724" y="150"/>
      <point x="676" y="244" type="curve"/>
      <point x="676" y="470" type="line"/>
      <point x="642" y="470" type="line"/>
      <point x="643" y="247" type="line"/>
      <point x="599" y="152"/>
      <point x="498" y="108"/>
      <point x="384" y="108" type="curve" smooth="yes"/>
      <point x="383" y="108" type="line" smooth="yes"/>
      <point x="325" y="108"/>
      <point x="256" y="125"/>
      <point x="213" y="148" type="curve"/>
      <point x="230" y="195"/>
      <point x="264" y="281"/>
      <point x="265" y="302" type="curve" smooth="yes"/>
      <point x="265" y="492" type="line"/>
      <point x="0" y="492" type="line"/>
      <point x="0" y="474" type="line"/>
      <point x="232" y="474" type="line"/>
      <point x="232" y="306" type="line" smooth="yes"/>
      <point x="232" y="282"/>
      <point x="196" y="191"/>
      <point x="176" y="143" type="curve"/>
      <point x="220" y="115"/>
      <point x="307" y="89"/>
      <point x="383" y="89" type="curve" smooth="yes"/>
      <point x="384" y="89" type="line" smooth="yes"/>
      <point x="510" y="89"/>
      <point x="608" y="135"/>
      <point x="659" y="216" type="curve"/>
      <point x="713" y="133"/>
      <point x="810" y="92"/>
      <point x="944" y="92" type="curve" smooth="yes"/>
      <point x="945" y="92" type="line" smooth="yes"/>
      <point x="973" y="92"/>
      <point x="1039" y="97"/>
      <point x="1065" y="102" type="curve"/>
      <point x="1065" y="0" type="line"/>
      <point x="1096" y="0" type="line"/>
      <point x="1096" y="474" type="line"/>
    </contour>
  </outline>
</glyph>
<glyph name="uni0A19" format="1">
  <advance width="950"/>
  <unicode hex="0A19"/>
  <outline>
    <contour>
      <point x="856" y="5" type="line"/>
      <point x="878" y="19" type="line"/>
      <point x="701" y="112" type="line"/>
      <point x="758" y="151"/>
      <point x="794" y="197"/>
      <point x="794" y="241" type="curve" smooth="yes"/>
      <point x="794" y="242" type="line" smooth="yes"/>
      <point x="794" y="294"/>
      <point x="712" y="351"/>
      <point x="577" y="351" type="curve" smooth="yes"/>
      <point x="242" y="351" type="line"/>
      <point x="242" y="476" type="line"/>
      <point x="950" y="476" type="line"/>
      <point x="950" y="495" type="line"/>
      <point x="0" y="495" type="line"/>
      <point x="0" y="476" type="line"/>
      <point x="211" y="476" type="line"/>
      <point x="211" y="332" type="line"/>
      <point x="567" y="332" type="line" smooth="yes"/>
      <point x="691" y="332"/>
      <point x="761" y="286"/>
      <point x="761" y="238" type="curve" smooth="yes"/>
      <point x="761" y="238" type="line" smooth="yes"/>
      <point x="761" y="202"/>
      <point x="729" y="160"/>
      <point x="678" y="123" type="curve"/>
      <point x="572" y="179"/>
      <point x="484" y="208"/>
      <point x="371" y="208" type="curve" smooth="yes"/>
      <point x="370" y="208" type="line" smooth="yes"/>
      <point x="243" y="208"/>
      <point x="167" y="158"/>
      <point x="167" y="109" type="curve" smooth="yes"/>
      <point x="167" y="109" type="line" smooth="yes"/>
      <point x="167" y="52"/>
      <point x="243" y="10"/>
      <point x="363" y="10" type="curve" smooth="yes"/>
      <point x="364" y="10" type="line" smooth="yes"/>
      <point x="483" y="10"/>
      <point x="605" y="49"/>
      <point x="688" y="102" type="curve"/>
      <point x="680" y="97" type="line"/>
    </contour>
    <contour>
      <point x="363" y="29" type="curve" smooth="yes"/>
      <point x="362" y="29" type="line" smooth="yes"/>
      <point x="265" y="29"/>
      <point x="200" y="61"/>
      <point x="200" y="108" type="curve" smooth="yes"/>
      <point x="200" y="109" type="line" smooth="yes"/>
      <point x="200" y="149"/>
      <point x="266" y="190"/>
      <point x="371" y="190" type="curve" smooth="yes"/>
      <point x="372" y="190" type="line" smooth="yes"/>
      <point x="464" y="190"/>
      <point x="551" y="167"/>
      <point x="656" y="109" type="curve"/>
      <point x="582" y="63"/>
      <point x="476" y="29"/>
    </contour>
  </outline>
</glyph>
<glyph name="uni0A1A" format="1">
  <advance width="985"/>
  <unicode hex="0A1A"/>
  <outline>
    <contour>
      <point x="612" y="15" type="line" smooth="yes"/>
      <point x="711" y="15"/>
      <point x="774" y="49"/>
      <point x="774" y="129" type="curve" smooth="yes"/>
      <point x="774" y="481" type="line"/>
      <point x="985" y="481" type="line"/>
      <point x="985" y="500" type="line"/>
      <point x="0" y="500" type="line"/>
      <point x="0" y="481" type="line"/>
      <point x="743" y="481" type="line"/>
      <point x="743" y="273" type="line"/>
      <point x="211" y="273" type="line"/>
      <point x="205" y="288" type="line"/>
      <point x="176" y="373" type="line"/>
      <point x="142" y="368" type="line"/>
      <point x="166" y="300" type="line" smooth="yes"/>
      <point x="221" y="140"/>
      <point x="421" y="15"/>
      <point x="611" y="15" type="curve" smooth="yes"/>
    </contour>
    <contour>
      <point x="615" y="34" type="curve" smooth="yes"/>
      <point x="614" y="34" type="line" smooth="yes"/>
      <point x="462" y="34"/>
      <point x="284" y="127"/>
      <point x="220" y="254" type="curve"/>
      <point x="743" y="254" type="line"/>
      <point x="743" y="131" type="line" smooth="yes"/>
      <point x="743" y="63"/>
      <point x="691" y="34"/>
    </contour>
  </outline>
</glyph>
<glyph name="uni0A1E" format="1">
  <advance width="1111"/>
  <unicode hex="0A1E"/>
  <outline>
    <contour>
      <point x="925" y="173" type="line"/>
      <point x="925" y="191" type="line"/>
      <point x="393" y="191" type="line" smooth="yes"/>
      <point x="238" y="191"/>
      <point x="177" y="225"/>
      <point x="177" y="271" type="curve" smooth="yes"/>
      <point x="177" y="271" type="line" smooth="yes"/>
      <point x="177" y="306"/>
      <point x="216" y="330"/>
      <point x="323" y="330" type="curve" smooth="yes"/>
      <point x="898" y="330" type="line"/>
      <point x="898" y="485" type="line"/>
      <point x="1111" y="485" type="line"/>
      <point x="1111" y="504" type="line"/>
      <point x="0" y="504" type="line"/>
      <point x="0" y="485" type="line"/>
      <point x="231" y="485" type="line"/>
      <point x="251" y="446"/>
      <point x="287" y="395"/>
      <point x="337" y="348" type="curve"/>
      <point x="320" y="348" type="line" smooth="yes"/>
      <point x="194" y="348"/>
      <point x="143" y="318"/>
      <point x="143" y="274" type="curve" smooth="yes"/>
      <point x="143" y="273" type="line" smooth="yes"/>
      <point x="143" y="216"/>
      <point x="221" y="173"/>
      <point x="391" y="173" type="curve"/>
      <point x="412" y="72"/>
      <point x="524" y="24"/>
      <point x="725" y="24" type="curve" smooth="yes"/>
      <point x="924" y="24" type="line"/>
      <point x="924" y="43" type="line"/>
      <point x="726" y="43" type="line" smooth="yes"/>
      <point x="541" y="43"/>
      <point x="443" y="81"/>
      <point x="423" y="173" type="curve"/>
    </contour>
    <contour>
      <point x="265" y="485" type="curve"/>
      <point x="867" y="485" type="line"/>
      <point x="867" y="348" type="line"/>
      <point x="370" y="348" type="line"/>
      <point x="325" y="390"/>
      <point x="286" y="439"/>
    </contour>
  </outline>
</glyph>
<glyph name="uni0A1F" format="1">
  <advance width="1001"/>
  <unicode hex="0A1F"/>
  <outline>
    <contour>
      <point x="1001" y="481" type="line"/>
      <point x="1001" y="500" type="line"/>
      <point x="0" y="500" type="line"/>
      <point x="0" y="481" type="line"/>
      <point x="674" y="481" type="line"/>
      <point x="674" y="329" type="line"/>
      <point x="667" y="329" type="line" smooth="yes"/>
      <point x="446" y="329"/>
      <point x="254" y="270"/>
      <point x="124" y="156" type="curve"/>
      <point x="215" y="84"/>
      <point x="424" y="15"/>
      <point x="566" y="15" type="curve" smooth="yes"/>
      <point x="636" y="15"/>
      <point x="757" y="38"/>
      <point x="833" y="67" type="curve"/>
      <point x="822" y="83" type="line"/>
      <point x="736" y="54"/>
      <point x="629" y="34"/>
      <point x="570" y="34" type="curve" smooth="yes"/>
      <point x="454" y="34"/>
      <point x="264" y="89"/>
      <point x="167" y="156" type="curve"/>
      <point x="296" y="260"/>
      <point x="472" y="311"/>
      <point x="667" y="311" type="curve" smooth="yes"/>
      <point x="706" y="311" type="line"/>
      <point x="706" y="481" type="line"/>
    </contour>
  </outline>
</glyph>
<glyph name="uni0A22" format="1">
  <advance width="1022"/>
  <unicode hex="0A22"/>
  <outline>
    <contour>
      <point x="812" y="295" type="line"/>
      <point x="812" y="481" type="line"/>
      <point x="1022" y="481" type="line"/>
      <point x="1022" y="500" type="line"/>
      <point x="0" y="500" type="line"/>
      <point x="0" y="481" type="line"/>
      <point x="780" y="481" type="line"/>
      <point x="780" y="314" type="line"/>
      <point x="213" y="314" type="line"/>
      <point x="184" y="396" type="line"/>
      <point x="149" y="390" type="line"/>
      <point x="193" y="279" type="line" smooth="yes"/>
      <point x="266" y="89"/>
      <point x="472" y="15"/>
      <point x="692" y="15" type="curve" smooth="yes"/>
      <point x="831" y="15"/>
      <point x="901" y="56"/>
      <point x="901" y="111" type="curve" smooth="yes"/>
      <point x="901" y="147"/>
      <point x="843" y="190"/>
      <point x="734" y="190" type="curve" smooth="yes"/>
      <point x="619" y="190"/>
      <point x="515" y="148"/>
      <point x="430" y="80" type="curve"/>
      <point x="333" y="120"/>
      <point x="259" y="188"/>
      <point x="223" y="287" type="curve" smooth="yes"/>
      <point x="221" y="295" type="line"/>
    </contour>
    <contour>
      <point x="459" y="70" type="line"/>
      <point x="534" y="134"/>
      <point x="629" y="171"/>
      <point x="730" y="171" type="curve" smooth="yes"/>
      <point x="829" y="171"/>
      <point x="869" y="138"/>
      <point x="869" y="109" type="curve" smooth="yes"/>
      <point x="869" y="67"/>
      <point x="812" y="34"/>
      <point x="691" y="34" type="curve" smooth="yes"/>
      <point x="607" y="34"/>
      <point x="527" y="45"/>
      <point x="457" y="69" type="curve"/>
    </contour>
  </outline>
</glyph>
<glyph name="uni0A23" format="1">
  <advance width="966"/>
  <unicode hex="0A23"/>
  <outline>
    <contour>
      <point x="532" y="207" type="curve" smooth="yes"/>
      <point x="588" y="207" type="line"/>
      <point x="588" y="322" type="line"/>
      <point x="639" y="309"/>
      <point x="695" y="296"/>
      <point x="757" y="285" type="curve" smooth="yes"/>
      <point x="845" y="271" type="line"/>
      <point x="852" y="289" type="line"/>
      <point x="764" y="303" type="line" smooth="yes"/>
      <point x="522" y="347"/>
      <point x="347" y="416"/>
      <point x="295" y="481" type="curve"/>
      <point x="966" y="481" type="line"/>
      <point x="966" y="500" type="line"/>
      <point x="-25" y="500" type="line"/>
      <point x="-25" y="481" type="line"/>
      <point x="257" y="481" type="line"/>
      <point x="302" y="425"/>
      <point x="403" y="373"/>
      <point x="554" y="331" type="curve"/>
      <point x="554" y="226" type="line"/>
      <point x="528" y="226" type="line" smooth="yes"/>
      <point x="360" y="226"/>
      <point x="244" y="175"/>
      <point x="176" y="132" type="curve"/>
      <point x="236" y="65"/>
      <point x="430" y="15"/>
      <point x="543" y="15" type="curve" smooth="yes"/>
      <point x="639" y="15"/>
      <point x="740" y="45"/>
      <point x="805" y="68" type="curve"/>
      <point x="796" y="85" type="line"/>
      <point x="738" y="60"/>
      <point x="615" y="34"/>
      <point x="546" y="34" type="curve" smooth="yes"/>
      <point x="439" y="34"/>
      <point x="283" y="75"/>
      <point x="218" y="128" type="curve"/>
      <point x="263" y="159"/>
      <point x="376" y="207"/>
    </contour>
  </outline>
</glyph>
<glyph name="uni0A24" format="1">
  <advance width="1022"/>
  <unicode hex="0A24"/>
  <outline>
    <contour>
      <point x="1022" y="481" type="line"/>
      <point x="1022" y="500" type="line"/>
      <point x="0" y="500" type="line"/>
      <point x="0" y="481" type="line"/>
      <point x="790" y="481" type="line"/>
      <point x="790" y="446" type="line" smooth="yes"/>
      <point x="790" y="335"/>
      <point x="679" y="283"/>
      <point x="450" y="283" type="curve" smooth="yes"/>
      <point x="290" y="283" type="line"/>
      <point x="297" y="264" type="line"/>
      <point x="513" y="264" type="line" smooth="yes"/>
      <point x="706" y="264"/>
      <point x="816" y="204"/>
      <point x="816" y="147" type="curve" smooth="yes"/>
      <point x="816" y="85"/>
      <point x="727" y="34"/>
      <point x="562" y="34" type="curve" smooth="yes"/>
      <point x="456" y="34"/>
      <point x="311" y="51"/>
      <point x="169" y="106" type="curve"/>
      <point x="159" y="87" type="line"/>
      <point x="282" y="41"/>
      <point x="427" y="15"/>
      <point x="559" y="15" type="curve" smooth="yes"/>
      <point x="746" y="15"/>
      <point x="849" y="79"/>
      <point x="849" y="146" type="curve" smooth="yes"/>
      <point x="849" y="205"/>
      <point x="765" y="257"/>
      <point x="610" y="277" type="curve"/>
      <point x="746" y="301"/>
      <point x="822" y="348"/>
      <point x="822" y="462" type="curve" smooth="yes"/>
      <point x="822" y="481" type="line"/>
    </contour>
  </outline>
</glyph>
<glyph name="uni0A25" format="1">
  <advance width="991"/>
  <unicode hex="0A25"/>
  <outline>
    <contour>
      <point x="991" y="474" type="line"/>
      <point x="991" y="492" type="line"/>
      <point x="0" y="492" type="line"/>
      <point x="0" y="474" type="line"/>
      <point x="215" y="474" type="line"/>
      <point x="215" y="312" type="line" smooth="yes"/>
      <point x="215" y="287"/>
      <point x="179" y="201"/>
      <point x="159" y="153" type="curve"/>
      <point x="233" y="107"/>
      <point x="365" y="74"/>
      <point x="485" y="74" type="curve" smooth="yes"/>
      <point x="486" y="74" type="line" smooth="yes"/>
      <point x="578" y="74"/>
      <point x="679" y="84"/>
      <point x="748" y="96" type="curve"/>
      <point x="748" y="0" type="line"/>
      <point x="779" y="0" type="line"/>
      <point x="779" y="474" type="line"/>
    </contour>
    <contour>
      <point x="486" y="93" type="curve" smooth="yes"/>
      <point x="485" y="93" type="line" smooth="yes"/>
      <point x="387" y="93"/>
      <point x="266" y="119"/>
      <point x="196" y="159" type="curve"/>
      <point x="211" y="198"/>
      <point x="237" y="262"/>
      <point x="245" y="294" type="curve"/>
      <point x="748" y="294" type="line"/>
      <point x="748" y="115" type="line"/>
      <point x="669" y="100"/>
      <point x="575" y="93"/>
    </contour>
    <contour>
      <point x="247" y="474" type="line"/>
      <point x="748" y="474" type="line"/>
      <point x="748" y="312" type="line"/>
      <point x="248" y="312" type="line"/>
    </contour>
  </outline>
</glyph>
<glyph name="uni0A2C" format="1">
  <advance width="1114"/>
  <unicode hex="0A2C"/>
  <outline>
    <contour>
      <point x="1114" y="474" type="line"/>
      <point x="1114" y="492" type="line"/>
      <point x="0" y="492" type="line"/>
      <point x="0" y="474" type="line"/>
      <point x="171" y="474" type="line"/>
      <point x="202" y="385"/>
      <point x="322" y="303"/>
      <point x="509" y="279" type="curve"/>
      <point x="376" y="262"/>
      <point x="267" y="215"/>
      <point x="199" y="161" type="curve"/>
      <point x="300" y="94"/>
      <point x="486" y="48"/>
      <point x="648" y="48" type="curve" smooth="yes"/>
      <point x="649" y="48" type="line" smooth="yes"/>
      <point x="748" y="48"/>
      <point x="816" y="54"/>
      <point x="870" y="62" type="curve"/>
      <point x="870" y="0" type="line"/>
      <point x="902" y="0" type="line"/>
      <point x="902" y="474" type="line"/>
    </contour>
    <contour>
      <point x="203" y="474" type="curve"/>
      <point x="870" y="474" type="line"/>
      <point x="870" y="287" type="line"/>
      <point x="624" y="287" type="line" smooth="yes"/>
      <point x="427" y="287"/>
      <point x="242" y="365"/>
    </contour>
    <contour>
      <point x="653" y="66" type="curve" smooth="yes"/>
      <point x="653" y="66" type="line" smooth="yes"/>
      <point x="509" y="66"/>
      <point x="349" y="102"/>
      <point x="240" y="161" type="curve"/>
      <point x="322" y="220"/>
      <point x="463" y="268"/>
      <point x="618" y="268" type="curve" smooth="yes"/>
      <point x="870" y="268" type="line"/>
      <point x="870" y="80" type="line"/>
      <point x="806" y="71"/>
      <point x="739" y="66"/>
    </contour>
  </outline>
</glyph>
<glyph name="uni0A2D" format="1">
  <advance width="1050"/>
  <unicode hex="0A2D"/>
  <outline>
    <contour>
      <point x="1050" y="481" type="line"/>
      <point x="1050" y="500" type="line"/>
      <point x="-9" y="500" type="line"/>
      <point x="-9" y="481" type="line"/>
      <point x="819" y="481" type="line"/>
      <point x="819" y="440" type="line" smooth="yes"/>
      <point x="819" y="389"/>
      <point x="797" y="339"/>
      <point x="759" y="300" type="curve"/>
      <point x="696" y="335"/>
      <point x="606" y="360"/>
      <point x="490" y="360" type="curve" smooth="yes"/>
      <point x="341" y="360"/>
      <point x="244" y="322"/>
      <point x="244" y="274" type="curve" smooth="yes"/>
      <point x="244" y="232"/>
      <point x="316" y="189"/>
      <point x="502" y="189" type="curve" smooth="yes"/>
      <point x="619" y="189"/>
      <point x="703" y="224"/>
      <point x="760" y="271" type="curve"/>
      <point x="810" y="238"/>
      <point x="836" y="196"/>
      <point x="836" y="160" type="curve" smooth="yes"/>
      <point x="836" y="77"/>
      <point x="703" y="34"/>
      <point x="519" y="34" type="curve" smooth="yes"/>
      <point x="446" y="34"/>
      <point x="320" y="49"/>
      <point x="214" y="82" type="curve"/>
      <point x="207" y="64" type="line"/>
      <point x="303" y="35"/>
      <point x="429" y="15"/>
      <point x="523" y="15" type="curve" smooth="yes"/>
      <point x="734" y="15"/>
      <point x="869" y="77"/>
      <point x="869" y="160" type="curve" smooth="yes"/>
      <point x="869" y="201"/>
      <point x="838" y="250"/>
      <point x="778" y="288" type="curve"/>
      <point x="828" y="339"/>
      <point x="851" y="400"/>
      <point x="851" y="452" type="curve" smooth="yes"/>
      <point x="851" y="481" type="line"/>
    </contour>
    <contour>
      <point x="504" y="208" type="curve" smooth="yes"/>
      <point x="348" y="208"/>
      <point x="277" y="239"/>
      <point x="277" y="274" type="curve" smooth="yes"/>
      <point x="277" y="314"/>
      <point x="367" y="341"/>
      <point x="487" y="341" type="curve" smooth="yes"/>
      <point x="596" y="341"/>
      <point x="681" y="317"/>
      <point x="741" y="283" type="curve"/>
      <point x="686" y="237"/>
      <point x="605" y="208"/>
    </contour>
  </outline>
</glyph>
<glyph name="uni0A32" format="1">
  <advance width="1152.0"/>
  <unicode hex="0A32"/>
  <outline>
    <contour>
      <point x="1152" y="481" type="line"/>
      <point x="1152" y="500" type="line"/>
      <point x="0" y="500" type="line"/>
      <point x="0" y="481" type="line"/>
      <point x="281" y="481" type="line"/>
      <point x="297" y="422"/>
      <point x="330" y="368"/>
      <point x="377" y="321" type="curve"/>
      <point x="375" y="321" type="line" smooth="yes"/>
      <point x="248" y="286"/>
      <point x="149" y="214"/>
      <point x="149" y="158" type="curve" smooth="yes"/>
      <point x="149" y="98"/>
      <point x="203" y="48"/>
      <point x="364" y="17" type="curve" smooth="yes"/>
      <point x="374" y="15" type="line"/>
      <point x="386" y="33" type="line"/>
      <point x="365" y="37" type="line" smooth="yes"/>
      <point x="220" y="64"/>
      <point x="182" y="109"/>
      <point x="182" y="157" type="curve" smooth="yes"/>
      <point x="182" y="213"/>
      <point x="290" y="280"/>
      <point x="392" y="307" type="curve"/>
      <point x="444" y="261"/>
      <point x="509" y="223"/>
      <point x="581" y="197" type="curve"/>
      <point x="653" y="222"/>
      <point x="714" y="261"/>
      <point x="761" y="306" type="curve"/>
      <point x="863" y="279"/>
      <point x="970" y="211"/>
      <point x="970" y="158" type="curve" smooth="yes"/>
      <point x="970" y="106"/>
      <point x="922" y="66"/>
      <point x="788" y="37" type="curve" smooth="yes"/>
      <point x="766" y="33" type="line"/>
      <point x="778" y="15" type="line"/>
      <point x="788" y="17" type="line" smooth="yes"/>
      <point x="947" y="47"/>
      <point x="1004" y="97"/>
      <point x="1004" y="158" type="curve" smooth="yes"/>
      <point x="1004" y="214"/>
      <point x="904" y="286"/>
      <point x="777" y="321" type="curve"/>
      <point x="775" y="321" type="line"/>
      <point x="821" y="371"/>
      <point x="851" y="427"/>
      <point x="861" y="481" type="curve"/>
    </contour>
    <contour>
      <point x="581" y="216" type="curve"/>
      <point x="453" y="262"/>
      <point x="343" y="372"/>
      <point x="312" y="481" type="curve"/>
      <point x="830" y="481" type="line"/>
      <point x="806" y="365"/>
      <point x="707" y="267"/>
    </contour>
  </outline>
</glyph>
<glyph name="uni0A39" format="1">
  <advance width="987"/>
  <unicode hex="0A39"/>
  <outline>
    <contour>
      <point x="389" y="311" type="line"/>
      <point x="345" y="311" type="line" smooth="yes"/>
      <point x="221" y="311"/>
      <point x="173" y="280"/>
      <point x="173" y="232" type="curve" smooth="yes"/>
      <point x="173" y="231" type="line" smooth="yes"/>
      <point x="173" y="134"/>
      <point x="420" y="15"/>
      <point x="613" y="15" type="curve" smooth="yes"/>
      <point x="614" y="15" type="line" smooth="yes"/>
      <point x="713" y="15"/>
      <point x="777" y="49"/>
      <point x="777" y="129" type="curve" smooth="yes"/>
      <point x="777" y="481" type="line"/>
      <point x="987" y="481" type="line"/>
      <point x="987" y="500" type="line"/>
      <point x="0" y="500" type="line"/>
      <point x="0" y="481" type="line"/>
      <point x="745" y="481" type="line"/>
      <point x="745" y="131" type="line" smooth="yes"/>
      <point x="745" y="63"/>
      <point x="693" y="34"/>
      <point x="617" y="34" type="curve" smooth="yes"/>
      <point x="616" y="34" type="line" smooth="yes"/>
      <point x="451" y="34"/>
      <point x="207" y="141"/>
      <point x="207" y="231" type="curve" smooth="yes"/>
      <point x="207" y="231" type="line" smooth="yes"/>
      <point x="207" y="268"/>
      <point x="239" y="292"/>
      <point x="348" y="292" type="curve" smooth="yes"/>
      <point x="389" y="292" type="line"/>
    </contour>
  </outline>
</glyph>
<glyph name="uni0A3F" format="1">
  <advance width="423.0"/>
  <unicode hex="0A3F"/>
  <outline>
    <contour>
      <point x="424" y="474" type="line"/>
      <point x="424" y="492" type="line"/>
      <point x="228" y="492" type="line"/>
      <point x="228" y="565" type="line" smooth="yes"/>
      <point x="228" y="689"/>
      <point x="311" y="753"/>
      <point x="475" y="753" type="curve" smooth="yes"/>
      <point x="594" y="753"/>
      <point x="675" y="707"/>
      <point x="707" y="647" type="curve" smooth="yes"/>
      <point x="714" y="635" type="line"/>
      <point x="745" y="636" type="line"/>
      <point x="739" y="648" type="line" smooth="yes"/>
      <point x="703" y="722"/>
      <point x="602" y="772"/>
      <point x="473" y="772" type="curve" smooth="yes"/>
      <point x="296" y="772"/>
      <point x="196" y="701"/>
      <point x="196" y="573" type="curve" smooth="yes"/>
      <point x="196" y="492" type="line"/>
      <point x="0" y="492" type="line"/>
      <point x="0" y="474" type="line"/>
      <point x="196" y="474" type="line"/>
      <point x="196" y="0" type="line"/>
      <point x="228" y="0" type="line"/>
      <point x="228" y="474" type="line"/>
    </contour>
  </outline>
</glyph>
<glyph name="uni0A41" format="1">
  <advance width="0.0"/>
  <unicode hex="0A41"/>
  <outline>
    <contour>
      <point x="-822" y="-261" type="line"/>
      <point x="-749" y="-275"/>
      <point x="-635" y="-294"/>
      <point x="-512" y="-294" type="curve" smooth="yes"/>
      <point x="-386" y="-294"/>
      <point x="-263" y="-276"/>
      <point x="-184" y="-261" type="curve"/>
      <point x="-184" y="-243" type="line"/>
      <point x="-266" y="-257"/>
      <point x="-370" y="-275"/>
      <point x="-512" y="-275" type="curve" smooth="yes"/>
      <point x="-655" y="-275"/>
      <point x="-738" y="-257"/>
      <point x="-822" y="-243" type="curve"/>
    </contour>
  </outline>
</glyph>
<glyph name="uni0A48" format="1">
  <advance width="7"/>
  <unicode hex="0A48"/>
  <outline>
    <contour>
      <point x="-307" y="1198" type="line"/>
      <point x="-239" y="945" type="line"/>
      <point x="-207" y="945" type="line"/>
      <point x="-275" y="1203" type="line"/>
    </contour>
  </outline>
</glyph>
<glyph name="uni0A4B" format="1">
  <advance width="4"/>
  <unicode hex="0A4B"/>
  <outline>
    <contour>
      <point x="-365" y="1279" type="curve" smooth="yes"/>
      <point x="-474" y="1279"/>
      <point x="-526" y="1238"/>
      <point x="-617" y="1238" type="curve" smooth="yes"/>
      <point x="-659" y="1238"/>
      <point x="-704" y="1253"/>
      <point x="-731" y="1291" type="curve" smooth="yes"/>
      <point x="-752" y="1320" type="line"/>
      <point x="-778" y="1309" type="line"/>
      <point x="-762" y="1287" type="line" smooth="yes"/>
      <point x="-732" y="1243"/>
      <point x="-671" y="1220"/>
      <point x="-612" y="1220" type="curve" smooth="yes"/>
      <point x="-520" y="1220"/>
      <point x="-468" y="1261"/>
      <point x="-368" y="1261" type="curve" smooth="yes"/>
      <point x="-279" y="1261"/>
      <point x="-240" y="1231"/>
      <point x="-240" y="1189" type="curve" smooth="yes"/>
      <point x="-240" y="1146" type="line"/>
      <point x="-211" y="1146" type="line"/>
      <point x="-211" y="1190" type="line" smooth="yes"/>
      <point x="-211" y="1244"/>
      <point x="-267" y="1279"/>
    </contour>
  </outline>
</glyph>
<glyph name="uni0A51" format="1">
  <advance width="2"/>
  <unicode hex="0A51"/>
  <outline>
    <contour>
      <point x="-334" y="-257" type="curve"/>
      <point x="-338" y="-259"/>
      <point x="-349" y="-263"/>
      <point x="-357" y="-269" type="curve"/>
      <point x="-220" y="-396"/>
      <point x="-120" y="-423"/>
      <point x="30" y="-419" type="curve"/>
      <point x="44" y="-396" type="line"/>
      <point x="-120" y="-402"/>
      <point x="-203" y="-372"/>
    </contour>
  </outline>
</glyph>
<glyph name="uni0A5A" format="1">
  <advance width="1198"/>
  <unicode hex="0A5A"/>
  <outline>
    <contour>
      <point x="1198" y="492" type="line"/>
      <point x="-1" y="492" type="line"/>
      <point x="-1" y="474" type="line"/>
      <point x="587" y="474" type="line"/>
      <point x="587" y="314" type="line"/>
      <point x="302" y="314" type="line" smooth="yes"/>
      <point x="150" y="314"/>
      <point x="85" y="276"/>
      <point x="85" y="225" type="curve" smooth="yes"/>
      <point x="85" y="224" type="line" smooth="yes"/>
      <point x="85" y="124"/>
      <point x="297" y="8"/>
      <point x="455" y="8" type="curve" smooth="yes"/>
      <point x="455" y="8" type="line" smooth="yes"/>
      <point x="552" y="8"/>
      <point x="618" y="42"/>
      <point x="618" y="122" type="curve" smooth="yes"/>
      <point x="618" y="474" type="line"/>
      <point x="956" y="474" type="line"/>
      <point x="956" y="0" type="line"/>
      <point x="987" y="0" type="line"/>
      <point x="987" y="474" type="line"/>
      <point x="1198" y="474" type="line"/>
    </contour>
    <contour>
      <point x="458" y="26" type="curve" smooth="yes"/>
      <point x="457" y="26" type="line" smooth="yes"/>
      <point x="317" y="26"/>
      <point x="119" y="134"/>
      <point x="119" y="224" type="curve" smooth="yes"/>
      <point x="119" y="224" type="line" smooth="yes"/>
      <point x="119" y="267"/>
      <point x="173" y="295"/>
      <point x="305" y="295" type="curve" smooth="yes"/>
      <point x="587" y="295" type="line"/>
      <point x="587" y="124" type="line" smooth="yes"/>
      <point x="587" y="56"/>
      <point x="535" y="26"/>
    </contour>
    <contour>
      <point x="-23" y="0" type="line"/>
      <point x="15" y="0" type="line"/>
      <point x="15" y="56" type="line"/>
      <point x="-23" y="56" type="line"/>
    </contour>
  </outline>
</glyph>
<glyph name="uni0A67" format="1">
  <advance width="781"/>
  <unicode hex="0A67"/>
  <outline>
    <contour>
      <point x="564" y="154" type="line" smooth="yes"/>
      <point x="564" y="94"/>
      <point x="587" y="57"/>
      <point x="648" y="24" type="curve" smooth="yes"/>
      <point x="692" y="1" type="line"/>
      <point x="714" y="15" type="line"/>
      <point x="666" y="38" type="line" smooth="yes"/>
      <point x="620" y="62"/>
      <point x="595" y="93"/>
      <point x="596" y="153" type="curve" smooth="yes"/>
      <point x="597" y="333" type="line" smooth="yes"/>
      <point x="598" y="418"/>
      <point x="509" y="474"/>
      <point x="361" y="474" type="curve" smooth="yes"/>
      <point x="239" y="474"/>
      <point x="148" y="422"/>
      <point x="148" y="349" type="curve" smooth="yes"/>
      <point x="148" y="275"/>
      <point x="251" y="224"/>
      <point x="370" y="224" type="curve" smooth="yes"/>
      <point x="446" y="224"/>
      <point x="516" y="239"/>
      <point x="564" y="265" type="curve"/>
    </contour>
    <contour>
      <point x="366" y="243" type="curve" smooth="yes"/>
      <point x="269" y="243"/>
      <point x="180" y="288"/>
      <point x="180" y="348" type="curve" smooth="yes"/>
      <point x="180" y="409"/>
      <point x="258" y="455"/>
      <point x="363" y="455" type="curve" smooth="yes"/>
      <point x="493" y="455"/>
      <point x="564" y="402"/>
      <point x="564" y="329" type="curve" smooth="yes"/>
      <point x="564" y="290" type="line"/>
      <point x="511" y="259"/>
      <point x="446" y="243"/>
    </contour>
  </outline>
</glyph>
<glyph name="uni0A6B" format="1">
  <advance width="858"/>
  <unicode hex="0A6B"/>
  <outline>
    <contour>
      <point x="136" y="473" type="line"/>
      <point x="169" y="373"/>
      <point x="176" y="320"/>
      <point x="176" y="314" type="curve"/>
      <point x="174" y="277"/>
      <point x="156" y="234"/>
      <point x="134" y="182" type="curve"/>
      <point x="200" y="129"/>
      <point x="317" y="100"/>
      <point x="405" y="100" type="curve" smooth="yes"/>
      <point x="483" y="100"/>
      <point x="555" y="113"/>
      <point x="609" y="128" type="curve"/>
      <point x="609" y="0" type="line"/>
      <point x="641" y="0" type="line"/>
      <point x="641" y="473" type="line"/>
      <point x="609" y="473" type="line"/>
      <point x="609" y="148" type="line"/>
      <point x="553" y="130"/>
      <point x="487" y="118"/>
      <point x="406" y="118" type="curve" smooth="yes"/>
      <point x="322" y="118"/>
      <point x="216" y="146"/>
      <point x="170" y="187" type="curve"/>
      <point x="192" y="241"/>
      <point x="206" y="280"/>
      <point x="207" y="321" type="curve" smooth="yes"/>
      <point x="207" y="331"/>
      <point x="202" y="368"/>
      <point x="168" y="473" type="curve"/>
    </contour>
  </outline>
</glyph>
<glyph name="uni0A6C" format="1">
  <advance width="852"/>
  <unicode hex="0A6C"/>
  <outline>
    <contour>
      <point x="151" y="2" type="line"/>
      <point x="186" y="4" type="line" smooth="yes"/>
      <point x="510" y="23"/>
      <point x="716" y="161"/>
      <point x="716" y="302" type="curve" smooth="yes"/>
      <point x="716" y="396"/>
      <point x="620" y="475"/>
      <point x="431" y="475" type="curve" smooth="yes"/>
      <point x="291" y="475"/>
      <point x="190" y="410"/>
      <point x="190" y="346" type="curve" smooth="yes"/>
      <point x="190" y="300"/>
      <point x="231" y="251"/>
      <point x="328" y="217" type="curve"/>
      <point x="347" y="231" type="line"/>
      <point x="264" y="258"/>
      <point x="222" y="305"/>
      <point x="222" y="344" type="curve" smooth="yes"/>
      <point x="222" y="405"/>
      <point x="311" y="456"/>
      <point x="437" y="456" type="curve" smooth="yes"/>
      <point x="592" y="456"/>
      <point x="684" y="392"/>
      <point x="684" y="304" type="curve" smooth="yes"/>
      <point x="684" y="179"/>
      <point x="494" y="33"/>
      <point x="176" y="22" type="curve" smooth="yes"/>
      <point x="147" y="21" type="line"/>
    </contour>
  </outline>
</glyph>
<glyph name="uni0A6D" format="1">
  <advance width="886"/>
  <unicode hex="0A6D"/>
  <outline>
    <contour>
      <point x="696" y="516" type="line"/>
      <point x="639" y="516" type="line" smooth="yes"/>
      <point x="563" y="515"/>
      <point x="527" y="491"/>
      <point x="527" y="453" type="curve" smooth="yes"/>
      <point x="527" y="445"/>
      <point x="532" y="429"/>
      <point x="538" y="417" type="curve"/>
      <point x="499" y="428"/>
      <point x="442" y="435"/>
      <point x="361" y="435" type="curve" smooth="yes"/>
      <point x="218" y="435"/>
      <point x="131" y="391"/>
      <point x="131" y="326" type="curve" smooth="yes"/>
      <point x="131" y="271"/>
      <point x="208" y="218"/>
      <point x="324" y="200" type="curve"/>
      <point x="198" y="177"/>
      <point x="149" y="137"/>
      <point x="149" y="93" type="curve" smooth="yes"/>
      <point x="149" y="47"/>
      <point x="222" y="-3"/>
      <point x="433" y="-3" type="curve" smooth="yes"/>
      <point x="507" y="-3"/>
      <point x="626" y="4"/>
      <point x="713" y="20" type="curve"/>
      <point x="697" y="37" type="line"/>
      <point x="610" y="22"/>
      <point x="506" y="16"/>
      <point x="426" y="16" type="curve" smooth="yes"/>
      <point x="255" y="16"/>
      <point x="182" y="53"/>
      <point x="182" y="94" type="curve" smooth="yes"/>
      <point x="182" y="136"/>
      <point x="244" y="175"/>
      <point x="373" y="192" type="curve"/>
      <point x="460" y="191"/>
      <point x="564" y="191"/>
      <point x="619" y="191" type="curve"/>
      <point x="619" y="210" type="line"/>
      <point x="575" y="211"/>
      <point x="505" y="210"/>
      <point x="371" y="211" type="curve"/>
      <point x="254" y="224"/>
      <point x="164" y="273"/>
      <point x="164" y="326" type="curve" smooth="yes"/>
      <point x="164" y="383"/>
      <point x="237" y="416"/>
      <point x="363" y="417" type="curve" smooth="yes"/>
      <point x="446" y="418"/>
      <point x="512" y="405"/>
      <point x="552" y="393" type="curve" smooth="yes"/>
      <point x="576" y="384"/>
      <point x="592" y="377"/>
      <point x="618" y="362" type="curve"/>
      <point x="638" y="376" type="line"/>
      <point x="615" y="388"/>
      <point x="597" y="396"/>
      <point x="576" y="405" type="curve"/>
      <point x="570" y="413"/>
      <point x="559" y="435"/>
      <point x="557" y="449" type="curve"/>
      <point x="557" y="480"/>
      <point x="585" y="500"/>
      <point x="646" y="500" type="curve" smooth="yes"/>
      <point x="700" y="500" type="line"/>
    </contour>
  </outline>
</glyph>
<glyph name="uni0A70" format="1">
  <advance width="0.0"/>
  <unicode hex="0A70"/>
  <outline>
    <contour>
      <point x="-321" y="1143" type="line"/>
      <point x="-351" y="1170"/>
      <point x="-376" y="1192"/>
      <point x="-376" y="1218" type="curve" smooth="yes"/>
      <point x="-376" y="1266"/>
      <point x="-323" y="1298"/>
      <point x="-236" y="1298" type="curve" smooth="yes"/>
      <point x="-145" y="1298"/>
      <point x="-91" y="1265"/>
      <point x="-91" y="1218" type="curve" smooth="yes"/>
      <point x="-91" y="1195"/>
      <point x="-111" y="1170"/>
      <point x="-138" y="1143" type="curve"/>
      <point x="-101" y="1143" type="line"/>
      <point x="-78" y="1169"/>
      <point x="-59" y="1190"/>
      <point x="-59" y="1215" type="curve" smooth="yes"/>
      <point x="-59" y="1278"/>
      <point x="-131" y="1316"/>
      <point x="-234" y="1316" type="curve" smooth="yes"/>
      <point x="-340" y="1316"/>
      <point x="-409" y="1277"/>
      <point x="-409" y="1215" type="curve" smooth="yes"/>
      <point x="-409" y="1191"/>
      <point x="-379" y="1161"/>
      <point x="-359" y="1143" type="curve"/>
    </contour>
  </outline>
</glyph>
<glyph name="uni0A72" format="1">
  <advance width="979"/>
  <unicode hex="0A72"/>
  <outline>
    <contour>
      <point x="728" y="295" type="curve" smooth="yes"/>
      <point x="767" y="295" type="line"/>
      <point x="767" y="481" type="line"/>
      <point x="979" y="481" type="line"/>
      <point x="979" y="500" type="line"/>
      <point x="0" y="500" type="line"/>
      <point x="0" y="481" type="line"/>
      <point x="176" y="481" type="line"/>
      <point x="203" y="412"/>
      <point x="295" y="313"/>
      <point x="377" y="257" type="curve"/>
      <point x="300" y="231"/>
      <point x="226" y="195"/>
      <point x="167" y="147" type="curve"/>
      <point x="262" y="73"/>
      <point x="464" y="15"/>
      <point x="627" y="15" type="curve" smooth="yes"/>
      <point x="698" y="15"/>
      <point x="786" y="32"/>
      <point x="861" y="61" type="curve"/>
      <point x="851" y="78" type="line"/>
      <point x="765" y="48"/>
      <point x="689" y="34"/>
      <point x="630" y="34" type="curve" smooth="yes"/>
      <point x="493" y="34"/>
      <point x="302" y="81"/>
      <point x="209" y="147" type="curve"/>
      <point x="353" y="257"/>
      <point x="589" y="295"/>
    </contour>
    <contour>
      <point x="212" y="481" type="curve"/>
      <point x="735" y="481" type="line"/>
      <point x="735" y="314" type="line"/>
      <point x="728" y="314" type="line" smooth="yes"/>
      <point x="646" y="314"/>
      <point x="525" y="301"/>
      <point x="407" y="266" type="curve"/>
      <point x="334" y="312"/>
      <point x="239" y="409"/>
    </contour>
  </outline>
</glyph>
<glyph name="uni0A73" format="1">
  <advance width="1080.0"/>
  <unicode hex="0A73"/>
  <outline>
    <contour>
      <point x="-17" y="500" type="line"/>
      <point x="-17" y="481" type="line"/>
      <point x="179" y="481" type="line"/>
      <point x="117" y="224"/>
      <point x="356" y="15"/>
      <point x="630" y="15" type="curve" smooth="yes"/>
      <point x="761" y="15"/>
      <point x="853" y="62"/>
      <point x="853" y="130" type="curve" smooth="yes"/>
      <point x="853" y="171"/>
      <point x="809" y="223"/>
      <point x="691" y="248" type="curve"/>
      <point x="836" y="268"/>
      <point x="963" y="360"/>
      <point x="967" y="481" type="curve"/>
      <point x="1157" y="481" type="line"/>
      <point x="1157" y="500" type="line"/>
      <point x="968" y="500" type="line"/>
      <point x="968" y="623"/>
      <point x="835" y="717"/>
      <point x="621" y="717" type="curve" smooth="yes"/>
      <point x="445" y="717"/>
      <point x="261" y="649"/>
      <point x="198" y="526" type="curve" smooth="yes"/>
      <point x="185" y="500" type="line"/>
    </contour>
    <contour>
      <point x="645" y="261" type="curve" smooth="yes"/>
      <point x="233" y="261" type="line"/>
      <point x="199" y="328"/>
      <point x="188" y="404"/>
      <point x="211" y="481" type="curve"/>
      <point x="935" y="481" type="line"/>
      <point x="932" y="373"/>
      <point x="801" y="262"/>
    </contour>
    <contour>
      <point x="226" y="515" type="line" smooth="yes"/>
      <point x="291" y="639"/>
      <point x="459" y="699"/>
      <point x="628" y="699" type="curve" smooth="yes"/>
      <point x="791" y="699"/>
      <point x="935" y="624"/>
      <point x="936" y="500" type="curve"/>
      <point x="218" y="500" type="line"/>
    </contour>
    <contour>
      <point x="601" y="242" type="line" smooth="yes"/>
      <point x="698" y="242"/>
      <point x="821" y="199"/>
      <point x="821" y="127" type="curve" smooth="yes"/>
      <point x="821" y="74"/>
      <point x="743" y="34"/>
      <point x="626" y="34" type="curve" smooth="yes"/>
      <point x="464" y="34"/>
      <point x="316" y="121"/>
      <point x="244" y="242" type="curve"/>
    </contour>
  </outline>
</glyph>
<glyph name="uni0A74" format="1">
  <advance width="2459"/>
  <unicode hex="0A74"/>
  <outline>
    <contour>
      <point x="584" y="489" type="line"/>
      <point x="584" y="470" type="line"/>
      <point x="780" y="470" type="line"/>
      <point x="718" y="213"/>
      <point x="957" y="-7"/>
      <point x="1231" y="-7" type="curve" smooth="yes"/>
      <point x="1333" y="-7"/>
      <point x="1463" y="29"/>
      <point x="1463" y="108" type="curve" smooth="yes"/>
      <point x="1463" y="149"/>
      <point x="1411" y="211"/>
      <point x="1292" y="238" type="curve"/>
      <point x="1437" y="258"/>
      <point x="1564" y="349"/>
      <point x="1568" y="470" type="curve"/>
      <point x="1759" y="470" type="line"/>
      <point x="1759" y="489" type="line"/>
      <point x="818" y="489" type="line"/>
      <point x="825" y="504" type="line" smooth="yes"/>
      <point x="881" y="621"/>
      <point x="1051" y="688"/>
      <point x="1205" y="688" type="curve" smooth="yes"/>
      <point x="1332" y="688"/>
      <point x="1430" y="659"/>
      <point x="1485" y="627" type="curve" smooth="yes"/>
      <point x="1508" y="614" type="line"/>
      <point x="1510" y="615" type="line"/>
      <point x="1528" y="604" type="line"/>
      <point x="1553" y="619" type="line" smooth="yes"/>
      <point x="1729" y="724"/>
      <point x="1878" y="797"/>
      <point x="2081" y="797" type="curve" smooth="yes"/>
      <point x="2282" y="797"/>
      <point x="2397" y="708"/>
      <point x="2397" y="597" type="curve" smooth="yes"/>
      <point x="2397" y="591" type="line"/>
      <point x="2428" y="591" type="line"/>
      <point x="2428" y="598" type="line" smooth="yes"/>
      <point x="2428" y="722"/>
      <point x="2303" y="816"/>
      <point x="2072" y="816" type="curve" smooth="yes"/>
      <point x="1855" y="816"/>
      <point x="1694" y="732"/>
      <point x="1534" y="635" type="curve" smooth="yes"/>
      <point x="1526" y="630" type="line"/>
      <point x="1504" y="642" type="line" smooth="yes"/>
      <point x="1439" y="679"/>
      <point x="1341" y="707"/>
      <point x="1202" y="707" type="curve" smooth="yes"/>
      <point x="1020" y="707"/>
      <point x="845" y="625"/>
      <point x="797" y="515" type="curve" smooth="yes"/>
      <point x="785" y="489" type="line"/>
    </contour>
    <contour>
      <point x="1247" y="251" type="curve" smooth="yes"/>
      <point x="833" y="250" type="line"/>
      <point x="799" y="318"/>
      <point x="789" y="395"/>
      <point x="812" y="470" type="curve"/>
      <point x="1536" y="470" type="line"/>
      <point x="1533" y="363"/>
      <point x="1402" y="251"/>
    </contour>
    <contour>
      <point x="538" y="151" type="line" smooth="yes"/>
      <point x="538" y="90"/>
      <point x="561" y="53"/>
      <point x="622" y="20" type="curve" smooth="yes"/>
      <point x="666" y="-3" type="line"/>
      <point x="688" y="12" type="line"/>
      <point x="640" y="34" type="line" smooth="yes"/>
      <point x="594" y="58"/>
      <point x="569" y="89"/>
      <point x="570" y="150" type="curve" smooth="yes"/>
      <point x="571" y="329" type="line" smooth="yes"/>
      <point x="572" y="414"/>
      <point x="482" y="470"/>
      <point x="335" y="470" type="curve" smooth="yes"/>
      <point x="212" y="470"/>
      <point x="122" y="418"/>
      <point x="122" y="345" type="curve" smooth="yes"/>
      <point x="122" y="271"/>
      <point x="225" y="220"/>
      <point x="344" y="220" type="curve" smooth="yes"/>
      <point x="420" y="220"/>
      <point x="490" y="236"/>
      <point x="538" y="261" type="curve"/>
    </contour>
    <contour>
      <point x="1202" y="231" type="line" smooth="yes"/>
      <point x="1299" y="231"/>
      <point x="1431" y="177"/>
      <point x="1431" y="105" type="curve" smooth="yes"/>
      <point x="1431" y="53"/>
      <point x="1341" y="12"/>
      <point x="1228" y="12" type="curve" smooth="yes"/>
      <point x="1064" y="12"/>
      <point x="914" y="105"/>
      <point x="843" y="231" type="curve"/>
    </contour>
    <contour>
      <point x="340" y="239" type="curve" smooth="yes"/>
      <point x="243" y="239"/>
      <point x="154" y="284"/>
      <point x="154" y="344" type="curve" smooth="yes"/>
      <point x="154" y="405"/>
      <point x="232" y="451"/>
      <point x="337" y="451" type="curve" smooth="yes"/>
      <point x="467" y="451"/>
      <point x="538" y="398"/>
      <point x="538" y="325" type="curve" smooth="yes"/>
      <point x="538" y="286" type="line"/>
      <point x="485" y="255"/>
      <point x="419" y="239"/>
    </contour>
  </outline>
</glyph>
<glyph name="emdash" format="1">
  <advance width="1843"/>
  <unicode hex="2014"/>
  <outline>
    <contour>
      <point x="1756" y="431" type="line"/>
      <point x="86" y="431" type="line"/>
      <point x="88" y="412" type="line"/>
      <point x="1756" y="412" type="line"/>
    </contour>
  </outline>
</glyph>
<glyph name="Euro" format="1">
  <advance width="1328"/>
  <unicode hex="20AC"/>
  <outline>
    <contour>
      <point x="1209" y="589" type="line"/>
      <point x="1115" y="676"/>
      <point x="986" y="739"/>
      <point x="769" y="739" type="curve" smooth="yes"/>
      <point x="518" y="739"/>
      <point x="327" y="623"/>
      <point x="268" y="463" type="curve"/>
      <point x="90" y="463" type="line"/>
      <point x="90" y="442" type="line"/>
      <point x="261" y="442" type="line"/>
      <point x="253" y="414"/>
      <point x="248" y="385"/>
      <point x="248" y="356" type="curve" smooth="yes"/>
      <point x="248" y="331"/>
      <point x="251" y="306"/>
      <point x="257" y="283" type="curve"/>
      <point x="90" y="283" type="line"/>
      <point x="90" y="262" type="line"/>
      <point x="263" y="262" type="line"/>
      <point x="316" y="90"/>
      <point x="514" y="-25"/>
      <point x="781" y="-25" type="curve" smooth="yes"/>
      <point x="988" y="-25"/>
      <point x="1117" y="44"/>
      <point x="1213" y="135" type="curve"/>
      <point x="1180" y="145" type="line"/>
      <point x="1091" y="60"/>
      <point x="973" y="-4"/>
      <point x="781" y="-4" type="curve" smooth="yes"/>
      <point x="537" y="-4"/>
      <point x="352" y="104"/>
      <point x="301" y="262" type="curve"/>
      <point x="881" y="262" type="line"/>
      <point x="881" y="283" type="line"/>
      <point x="294" y="283" type="line"/>
      <point x="288" y="306"/>
      <point x="285" y="330"/>
      <point x="285" y="356" type="curve" smooth="yes"/>
      <point x="285" y="386"/>
      <point x="290" y="414"/>
      <point x="299" y="442" type="curve"/>
      <point x="881" y="442" type="line"/>
      <point x="881" y="463" type="line"/>
      <point x="306" y="463" type="line"/>
      <point x="364" y="609"/>
      <point x="538" y="718"/>
      <point x="769" y="718" type="curve" smooth="yes"/>
      <point x="971" y="718"/>
      <point x="1087" y="659"/>
      <point x="1175" y="578" type="curve"/>
    </contour>
  </outline>
</glyph>
<glyph name="servicemark" format="1">
  <advance width="1351"/>
  <unicode hex="2120"/>
  <outline>
    <contour>
      <point x="713" y="936" type="line"/>
      <point x="713" y="738" type="line"/>
      <point x="738" y="738" type="line"/>
      <point x="738" y="910" type="line"/>
      <point x="885" y="785" type="line"/>
      <point x="891" y="785" type="line"/>
      <point x="1038" y="910" type="line"/>
      <point x="1038" y="738" type="line"/>
      <point x="1063" y="738" type="line"/>
      <point x="1063" y="936" type="line"/>
      <point x="1040" y="936" type="line"/>
      <point x="888" y="807" type="line"/>
      <point x="736" y="936" type="line"/>
    </contour>
    <contour>
      <point x="446" y="733" type="curve" smooth="yes"/>
      <point x="532" y="733"/>
      <point x="572" y="758"/>
      <point x="572" y="787" type="curve" smooth="yes"/>
      <point x="572" y="816"/>
      <point x="545" y="839"/>
      <point x="436" y="848" type="curve" smooth="yes"/>
      <point x="361" y="855"/>
      <point x="339" y="868"/>
      <point x="339" y="890" type="curve" smooth="yes"/>
      <point x="339" y="906"/>
      <point x="367" y="925"/>
      <point x="436" y="925" type="curve" smooth="yes"/>
      <point x="471" y="925"/>
      <point x="527" y="918"/>
      <point x="554" y="910" type="curve"/>
      <point x="564" y="923" type="line"/>
      <point x="528" y="933"/>
      <point x="470" y="939"/>
      <point x="433" y="939" type="curve" smooth="yes"/>
      <point x="355" y="939"/>
      <point x="311" y="916"/>
      <point x="311" y="890" type="curve" smooth="yes"/>
      <point x="311" y="862"/>
      <point x="339" y="843"/>
      <point x="425" y="834" type="curve" smooth="yes"/>
      <point x="521" y="826"/>
      <point x="544" y="808"/>
      <point x="544" y="787" type="curve" smooth="yes"/>
      <point x="544" y="763"/>
      <point x="511" y="747"/>
      <point x="448" y="747" type="curve" smooth="yes"/>
      <point x="405" y="747"/>
      <point x="337" y="759"/>
      <point x="302" y="770" type="curve"/>
      <point x="292" y="755" type="line"/>
      <point x="324" y="745"/>
      <point x="398" y="733"/>
    </contour>
  </outline>
</glyph>
<glyph name="uni25CC" format="1">
  <advance width="1102"/>
  <unicode hex="25CC"/>
  <outline>
    <contour>
      <point x="72" y="254" type="curve" smooth="yes"/>
      <point x="72" y="229"/>
      <point x="91" y="217"/>
      <point x="134" y="217" type="curve" smooth="yes"/>
      <point x="177" y="217"/>
      <point x="203" y="229"/>
      <point x="203" y="254" type="curve" smooth="yes"/>
      <point x="203" y="280"/>
      <point x="177" y="292"/>
      <point x="134" y="292" type="curve" smooth="yes"/>
      <point x="91" y="292"/>
      <point x="72" y="280"/>
    </contour>
    <contour>
      <point x="898" y="254" type="curve" smooth="yes"/>
      <point x="898" y="229"/>
      <point x="920" y="217"/>
      <point x="963" y="217" type="curve" smooth="yes"/>
      <point x="1008" y="217"/>
      <point x="1030" y="229"/>
      <point x="1030" y="254" type="curve" smooth="yes"/>
      <point x="1030" y="280"/>
      <point x="1008" y="292"/>
      <point x="963" y="292" type="curve" smooth="yes"/>
      <point x="920" y="292"/>
      <point x="898" y="280"/>
    </contour>
    <contour>
      <point x="484" y="491" type="curve" smooth="yes"/>
      <point x="484" y="466"/>
      <point x="505" y="453"/>
      <point x="549" y="453" type="curve" smooth="yes"/>
      <point x="593" y="453"/>
      <point x="617" y="466"/>
      <point x="617" y="491" type="curve" smooth="yes"/>
      <point x="617" y="517"/>
      <point x="593" y="530"/>
      <point x="549" y="530" type="curve" smooth="yes"/>
      <point x="505" y="530"/>
      <point x="484" y="517"/>
    </contour>
    <contour>
      <point x="484" y="17" type="curve" smooth="yes"/>
      <point x="484" y="-8"/>
      <point x="505" y="-20"/>
      <point x="549" y="-20" type="curve" smooth="yes"/>
      <point x="593" y="-20"/>
      <point x="617" y="-8"/>
      <point x="617" y="17" type="curve" smooth="yes"/>
      <point x="617" y="42"/>
      <point x="593" y="56"/>
      <point x="549" y="56" type="curve" smooth="yes"/>
      <point x="505" y="56"/>
      <point x="484" y="42"/>
    </contour>
    <contour>
      <point x="846" y="374" type="curve" smooth="yes"/>
      <point x="846" y="348"/>
      <point x="868" y="335"/>
      <point x="912" y="335" type="curve" smooth="yes"/>
      <point x="957" y="335"/>
      <point x="977" y="348"/>
      <point x="977" y="374" type="curve" smooth="yes"/>
      <point x="977" y="400"/>
      <point x="957" y="411"/>
      <point x="912" y="411" type="curve" smooth="yes"/>
      <point x="868" y="411"/>
      <point x="846" y="400"/>
    </contour>
    <contour>
      <point x="846" y="136" type="curve" smooth="yes"/>
      <point x="846" y="110"/>
      <point x="868" y="98"/>
      <point x="912" y="98" type="curve" smooth="yes"/>
      <point x="957" y="98"/>
      <point x="977" y="110"/>
      <point x="977" y="136" type="curve" smooth="yes"/>
      <point x="977" y="160"/>
      <point x="957" y="174"/>
      <point x="912" y="174" type="curve" smooth="yes"/>
      <point x="868" y="174"/>
      <point x="846" y="160"/>
    </contour>
    <contour>
      <point x="123" y="374" type="curve" smooth="yes"/>
      <point x="123" y="348"/>
      <point x="142" y="335"/>
      <point x="187" y="335" type="curve" smooth="yes"/>
      <point x="231" y="335"/>
      <point x="256" y="348"/>
      <point x="256" y="374" type="curve" smooth="yes"/>
      <point x="256" y="400"/>
      <point x="231" y="411"/>
      <point x="187" y="411" type="curve" smooth="yes"/>
      <point x="142" y="411"/>
      <point x="123" y="400"/>
    </contour>
    <contour>
      <point x="123" y="136" type="curve" smooth="yes"/>
      <point x="123" y="110"/>
      <point x="142" y="98"/>
      <point x="187" y="98" type="curve" smooth="yes"/>
      <point x="231" y="98"/>
      <point x="256" y="110"/>
      <point x="256" y="136" type="curve" smooth="yes"/>
      <point x="256" y="160"/>
      <point x="231" y="174"/>
      <point x="187" y="174" type="curve" smooth="yes"/>
      <point x="142" y="174"/>
      <point x="123" y="160"/>
    </contour>
    <contour>
      <point x="277" y="462" type="curve" smooth="yes"/>
      <point x="277" y="437"/>
      <point x="296" y="423"/>
      <point x="341" y="423" type="curve" smooth="yes"/>
      <point x="386" y="423"/>
      <point x="410" y="437"/>
      <point x="410" y="462" type="curve" smooth="yes"/>
      <point x="410" y="487"/>
      <point x="386" y="499"/>
      <point x="341" y="499" type="curve" smooth="yes"/>
      <point x="296" y="499"/>
      <point x="277" y="487"/>
    </contour>
    <contour>
      <point x="690" y="462" type="curve" smooth="yes"/>
      <point x="690" y="437"/>
      <point x="716" y="423"/>
      <point x="758" y="423" type="curve" smooth="yes"/>
      <point x="803" y="423"/>
      <point x="823" y="437"/>
      <point x="823" y="462" type="curve" smooth="yes"/>
      <point x="823" y="487"/>
      <point x="803" y="499"/>
      <point x="758" y="499" type="curve" smooth="yes"/>
      <point x="716" y="499"/>
      <point x="690" y="487"/>
    </contour>
    <contour>
      <point x="277" y="46" type="curve" smooth="yes"/>
      <point x="277" y="21"/>
      <point x="296" y="9"/>
      <point x="341" y="9" type="curve" smooth="yes"/>
      <point x="386" y="9"/>
      <point x="410" y="21"/>
      <point x="410" y="46" type="curve" smooth="yes"/>
      <point x="410" y="71"/>
      <point x="386" y="85"/>
      <point x="341" y="85" type="curve" smooth="yes"/>
      <point x="296" y="85"/>
      <point x="277" y="71"/>
    </contour>
    <contour>
      <point x="690" y="46" type="curve" smooth="yes"/>
      <point x="690" y="21"/>
      <point x="716" y="9"/>
      <point x="758" y="9" type="curve" smooth="yes"/>
      <point x="803" y="9"/>
      <point x="823" y="21"/>
      <point x="823" y="46" type="curve" smooth="yes"/>
      <point x="823" y="71"/>
      <point x="803" y="85"/>
      <point x="758" y="85" type="curve" smooth="yes"/>
      <point x="716" y="85"/>
      <point x="690" y="71"/>
    </contour>
  </outline>
</glyph>
<glyph name="R_p" format="1">
  <advance width="1681"/>
  <outline>
    <contour>
      <point x="945" y="-208" type="line"/>
      <point x="977" y="-208" type="line"/>
      <point x="977" y="-10" type="line"/>
      <point x="1012" y="-71"/>
      <point x="1104" y="-108"/>
      <point x="1206" y="-108" type="curve" smooth="yes"/>
      <point x="1356" y="-108"/>
      <point x="1466" y="-30"/>
      <point x="1466" y="68" type="curve" smooth="yes"/>
      <point x="1466" y="70" type="line" smooth="yes"/>
      <point x="1466" y="167"/>
      <point x="1356" y="246"/>
      <point x="1206" y="246" type="curve" smooth="yes"/>
      <point x="1102" y="246"/>
      <point x="1012" y="209"/>
      <point x="977" y="148" type="curve"/>
      <point x="977" y="237" type="line"/>
      <point x="945" y="237" type="line"/>
    </contour>
    <contour>
      <point x="257" y="-100" type="line"/>
      <point x="288" y="-100" type="line"/>
      <point x="288" y="99" type="line"/>
      <point x="523" y="99" type="line"/>
      <point x="776" y="-100" type="line"/>
      <point x="817" y="-100" type="line"/>
      <point x="561" y="102" type="line"/>
      <point x="715" y="113"/>
      <point x="797" y="164"/>
      <point x="797" y="235" type="curve" smooth="yes"/>
      <point x="797" y="236" type="line" smooth="yes"/>
      <point x="797" y="318"/>
      <point x="690" y="372"/>
      <point x="501" y="372" type="curve" smooth="yes"/>
      <point x="257" y="372" type="line"/>
    </contour>
    <contour>
      <point x="1205" y="-89" type="curve" smooth="yes"/>
      <point x="1069" y="-89"/>
      <point x="975" y="-20"/>
      <point x="975" y="68" type="curve" smooth="yes"/>
      <point x="975" y="70" type="line" smooth="yes"/>
      <point x="975" y="157"/>
      <point x="1067" y="227"/>
      <point x="1205" y="227" type="curve" smooth="yes"/>
      <point x="1345" y="227"/>
      <point x="1434" y="158"/>
      <point x="1434" y="69" type="curve" smooth="yes"/>
      <point x="1434" y="67" type="line" smooth="yes"/>
      <point x="1434" y="-24"/>
      <point x="1345" y="-89"/>
    </contour>
    <contour>
      <point x="288" y="118" type="line"/>
      <point x="288" y="354" type="line"/>
      <point x="500" y="354" type="line" smooth="yes"/>
      <point x="670" y="354"/>
      <point x="765" y="311"/>
      <point x="765" y="236" type="curve" smooth="yes"/>
      <point x="765" y="234" type="line" smooth="yes"/>
      <point x="765" y="167"/>
      <point x="680" y="118"/>
      <point x="490" y="118" type="curve" smooth="yes"/>
    </contour>
  </outline>
</glyph>
<glyph name="_131" format="1">
  <advance width="0.0"/>
  <outline>
    <contour>
      <point x="-365" y="1279" type="curve" smooth="yes"/>
      <point x="-474" y="1279"/>
      <point x="-526" y="1238"/>
      <point x="-617" y="1238" type="curve" smooth="yes"/>
      <point x="-659" y="1238"/>
      <point x="-704" y="1253"/>
      <point x="-731" y="1290" type="curve" smooth="yes"/>
      <point x="-752" y="1319" type="line"/>
      <point x="-778" y="1309" type="line"/>
      <point x="-762" y="1287" type="line" smooth="yes"/>
      <point x="-732" y="1243"/>
      <point x="-671" y="1219"/>
      <point x="-612" y="1219" type="curve" smooth="yes"/>
      <point x="-520" y="1219"/>
      <point x="-468" y="1260"/>
      <point x="-368" y="1260" type="curve" smooth="yes"/>
      <point x="-279" y="1260"/>
      <point x="-240" y="1230"/>
      <point x="-240" y="1188" type="curve" smooth="yes"/>
      <point x="-240" y="1146" type="line"/>
      <point x="-211" y="1146" type="line"/>
      <point x="-211" y="1190" type="line" smooth="yes"/>
      <point x="-211" y="1243"/>
      <point x="-267" y="1279"/>
    </contour>
    <contour>
      <point x="-38" y="1145" type="line"/>
      <point x="0" y="1145" type="line"/>
      <point x="0" y="1201" type="line"/>
      <point x="-38" y="1201" type="line"/>
    </contour>
  </outline>
</glyph>
<glyph name="_133" format="1">
  <advance width="-197"/>
  <outline>
    <contour>
      <point x="-420" y="1035" type="line"/>
      <point x="-450" y="1062"/>
      <point x="-475" y="1084"/>
      <point x="-475" y="1110" type="curve" smooth="yes"/>
      <point x="-475" y="1157"/>
      <point x="-423" y="1189"/>
      <point x="-330" y="1189" type="curve" smooth="yes"/>
      <point x="-239" y="1189"/>
      <point x="-190" y="1157"/>
      <point x="-190" y="1110" type="curve" smooth="yes"/>
      <point x="-190" y="1086"/>
      <point x="-210" y="1062"/>
      <point x="-237" y="1035" type="curve"/>
      <point x="-200" y="1035" type="line"/>
      <point x="-177" y="1061"/>
      <point x="-158" y="1082"/>
      <point x="-158" y="1107" type="curve" smooth="yes"/>
      <point x="-158" y="1170"/>
      <point x="-225" y="1208"/>
      <point x="-329" y="1208" type="curve" smooth="yes"/>
      <point x="-392" y="1208"/>
      <point x="-442" y="1196"/>
      <point x="-473" y="1173" type="curve"/>
      <point x="-500" y="1164"/>
      <point x="-529" y="1159"/>
      <point x="-575" y="1159" type="curve" smooth="yes"/>
      <point x="-625" y="1159"/>
      <point x="-673" y="1183"/>
      <point x="-678" y="1246" type="curve"/>
      <point x="-704" y="1228" type="line"/>
      <point x="-690" y="1170"/>
      <point x="-642" y="1141"/>
      <point x="-565" y="1140" type="curve" smooth="yes"/>
      <point x="-544" y="1140"/>
      <point x="-522" y="1142"/>
      <point x="-495" y="1149" type="curve"/>
      <point x="-503" y="1137"/>
      <point x="-508" y="1123"/>
      <point x="-508" y="1107" type="curve" smooth="yes"/>
      <point x="-508" y="1083"/>
      <point x="-478" y="1052"/>
      <point x="-458" y="1035" type="curve"/>
    </contour>
    <contour>
      <point x="179" y="1033" type="curve" smooth="yes"/>
      <point x="316" y="1033"/>
      <point x="384" y="1093"/>
      <point x="400" y="1179" type="curve"/>
      <point x="368" y="1185" type="line"/>
      <point x="362" y="1104"/>
      <point x="296" y="1052"/>
      <point x="186" y="1052" type="curve" smooth="yes"/>
      <point x="60" y="1052"/>
      <point x="-5" y="1096"/>
      <point x="-17" y="1184" type="curve"/>
      <point x="-49" y="1179" type="line"/>
      <point x="-32" y="1081"/>
      <point x="52" y="1033"/>
    </contour>
    <contour>
      <point x="0" y="920" type="line"/>
      <point x="0" y="939" type="line"/>
      <point x="-197" y="939" type="line"/>
      <point x="-197" y="920" type="line"/>
    </contour>
  </outline>
</glyph>
<glyph name="afii61664" format="1">
  <advance width="0.0"/>
  <outline>
    <contour>
      <point x="32" y="682" type="line"/>
      <point x="-32" y="682" type="line"/>
      <point x="-32" y="-275" type="line"/>
      <point x="32" y="-275" type="line"/>
    </contour>
  </outline>
</glyph>
<glyph name="c996" format="1">
  <advance width="2115.0"/>
  <outline>
    <contour>
      <point x="136" y="0" type="line"/>
      <point x="311" y="174"/>
      <point x="539" y="318"/>
      <point x="720" y="399" type="curve" smooth="yes"/>
      <point x="934" y="495"/>
      <point x="1146" y="540"/>
      <point x="1299" y="540" type="curve" smooth="yes"/>
      <point x="1695" y="540"/>
      <point x="1867" y="308"/>
      <point x="1867" y="54" type="curve" smooth="yes"/>
      <point x="1867" y="0" type="line"/>
      <point x="1960" y="0" type="line"/>
      <point x="1960" y="62" type="line" smooth="yes"/>
      <point x="1960" y="476"/>
      <point x="1566" y="595"/>
      <point x="1306" y="595" type="curve" smooth="yes"/>
      <point x="1114" y="595"/>
      <point x="923" y="555"/>
      <point x="700" y="460" type="curve" smooth="yes"/>
      <point x="477" y="364"/>
      <point x="243" y="216"/>
      <point x="25" y="0" type="curve"/>
    </contour>
  </outline>
</glyph>
<glyph name="colon.001" format="1">
  <advance width="397"/>
  <outline>
    <contour>
      <point x="180" y="0" type="line"/>
      <point x="218" y="0" type="line"/>
      <point x="218" y="71" type="line"/>
      <point x="180" y="71" type="line"/>
    </contour>
    <contour>
      <point x="180" y="298" type="line"/>
      <point x="218" y="298" type="line"/>
      <point x="218" y="369" type="line"/>
      <point x="180" y="369" type="line"/>
    </contour>
  </outline>
</glyph>
<glyph name="colon.alt.001" format="1">
  <advance width="397"/>
  <outline>
    <contour>
      <point x="180" y="172" type="line"/>
      <point x="218" y="172" type="line"/>
      <point x="218" y="243" type="line"/>
      <point x="180" y="243" type="line"/>
    </contour>
    <contour>
      <point x="180" y="382" type="line"/>
      <point x="218" y="382" type="line"/>
      <point x="218" y="453" type="line"/>
      <point x="180" y="453" type="line"/>
    </contour>
  </outline>
</glyph>
<glyph name="exclam.002" format="1">
  <advance width="605"/>
  <outline>
    <contour>
      <point x="297" y="555" type="line"/>
      <point x="297" y="438" type="line"/>
      <point x="302" y="184" type="line"/>
      <point x="327" y="184" type="line"/>
      <point x="329" y="438" type="line"/>
      <point x="329" y="555" type="line"/>
    </contour>
    <contour>
      <point x="294" y="0" type="line"/>
      <point x="332" y="0" type="line"/>
      <point x="332" y="71" type="line"/>
      <point x="294" y="71" type="line"/>
    </contour>
  </outline>
</glyph>
<glyph name="headline1" format="1">
  <advance width="162.0"/>
  <outline>
    <contour>
      <point x="0" y="916" type="line"/>
      <point x="198" y="916" type="line"/>
      <point x="205" y="922" type="line"/>
      <point x="162" y="972" type="line"/>
      <point x="-36" y="972" type="line"/>
      <point x="-43" y="966" type="line"/>
    </contour>
  </outline>
</glyph>
<glyph name="headline2" format="1">
  <advance width="270.0"/>
  <outline>
    <contour>
      <point x="0" y="916" type="line"/>
      <point x="306" y="916" type="line"/>
      <point x="313" y="922" type="line"/>
      <point x="270" y="972" type="line"/>
      <point x="-36" y="972" type="line"/>
      <point x="-43" y="966" type="line"/>
    </contour>
  </outline>
</glyph>
<glyph name="lines" format="1">
  <advance width="962"/>
  <outline>
    <contour>
      <point x="962" y="474" type="line"/>
      <point x="962" y="492" type="line"/>
      <point x="0" y="492" type="line"/>
      <point x="0" y="474" type="line"/>
      <point x="719" y="474" type="line"/>
      <point x="719" y="0" type="line"/>
      <point x="751" y="0" type="line"/>
      <point x="751" y="474" type="line"/>
    </contour>
  </outline>
</glyph>
<glyph name="period.001" format="1">
  <advance width="397"/>
  <outline>
    <contour>
      <point x="180" y="0" type="line"/>
      <point x="218" y="0" type="line"/>
      <point x="218" y="71" type="line"/>
      <point x="180" y="71" type="line"/>
    </contour>
  </outline>
</glyph>
<glyph name="quotedblleft.001" format="1">
  <advance width="842"/>
  <outline>
    <contour>
      <point x="248" y="563" type="line"/>
      <point x="248" y="633" type="line" smooth="yes"/>
      <point x="248" y="717"/>
      <point x="285" y="767"/>
      <point x="347" y="824" type="curve"/>
      <point x="327" y="828" type="line"/>
      <point x="261" y="773"/>
      <point x="216" y="709"/>
      <point x="216" y="633" type="curve" smooth="yes"/>
      <point x="216" y="563" type="line"/>
    </contour>
    <contour>
      <point x="590" y="563" type="line"/>
      <point x="590" y="633" type="line" smooth="yes"/>
      <point x="590" y="717"/>
      <point x="627" y="767"/>
      <point x="689" y="824" type="curve"/>
      <point x="669" y="828" type="line"/>
      <point x="603" y="773"/>
      <point x="558" y="709"/>
      <point x="558" y="633" type="curve" smooth="yes"/>
      <point x="558" y="563" type="line"/>
    </contour>
  </outline>
</glyph>
<glyph name="quotedblright.001" format="1">
  <advance width="842"/>
  <outline>
    <contour>
      <point x="593" y="828" type="line"/>
      <point x="593" y="758" type="line" smooth="yes"/>
      <point x="593" y="674"/>
      <point x="556" y="623"/>
      <point x="495" y="567" type="curve"/>
      <point x="515" y="563" type="line"/>
      <point x="581" y="618"/>
      <point x="626" y="682"/>
      <point x="626" y="758" type="curve" smooth="yes"/>
      <point x="626" y="828" type="line"/>
    </contour>
    <contour>
      <point x="251" y="828" type="line"/>
      <point x="251" y="758" type="line" smooth="yes"/>
      <point x="251" y="674"/>
      <point x="214" y="623"/>
      <point x="153" y="567" type="curve"/>
      <point x="173" y="563" type="line"/>
      <point x="239" y="618"/>
      <point x="284" y="682"/>
      <point x="284" y="758" type="curve" smooth="yes"/>
      <point x="284" y="828" type="line"/>
    </contour>
  </outline>
</glyph>
<glyph name="rupee" format="1">
  <advance width="1954"/>
  <outline>
    <contour>
      <point x="164" y="-10" type="line"/>
      <point x="204" y="-10" type="line"/>
      <point x="204" y="301" type="line"/>
      <point x="527" y="301" type="line" smooth="yes"/>
      <point x="547" y="301"/>
      <point x="570" y="301"/>
      <point x="590" y="302" type="curve"/>
      <point x="986" y="-10" type="line"/>
      <point x="1036" y="-10" type="line"/>
      <point x="635" y="304" type="line"/>
      <point x="870" y="324"/>
      <point x="1010" y="403"/>
      <point x="1010" y="515" type="curve" smooth="yes"/>
      <point x="1010" y="517" type="line" smooth="yes"/>
      <point x="1010" y="644"/>
      <point x="842" y="729"/>
      <point x="547" y="729" type="curve" smooth="yes"/>
      <point x="164" y="729" type="line"/>
    </contour>
    <contour>
      <point x="204" y="322" type="line"/>
      <point x="204" y="708" type="line"/>
      <point x="544" y="708" type="line" smooth="yes"/>
      <point x="811" y="708"/>
      <point x="969" y="633"/>
      <point x="969" y="516" type="curve" smooth="yes"/>
      <point x="969" y="514" type="line" smooth="yes"/>
      <point x="969" y="409"/>
      <point x="826" y="322"/>
      <point x="527" y="322" type="curve" smooth="yes"/>
    </contour>
    <contour>
      <point x="1539" y="-20" type="curve" smooth="yes"/>
      <point x="1703" y="-20"/>
      <point x="1843" y="32"/>
      <point x="1843" y="120" type="curve" smooth="yes"/>
      <point x="1843" y="195"/>
      <point x="1760" y="233"/>
      <point x="1552" y="268" type="curve" smooth="yes"/>
      <point x="1337" y="303"/>
      <point x="1272" y="338"/>
      <point x="1272" y="399" type="curve" smooth="yes"/>
      <point x="1272" y="462"/>
      <point x="1373" y="508"/>
      <point x="1515" y="508" type="curve" smooth="yes"/>
      <point x="1627" y="508"/>
      <point x="1708" y="488"/>
      <point x="1792" y="454" type="curve"/>
      <point x="1814" y="472" type="line"/>
      <point x="1734" y="506"/>
      <point x="1635" y="530"/>
      <point x="1517" y="530" type="curve" smooth="yes"/>
      <point x="1358" y="530"/>
      <point x="1233" y="477"/>
      <point x="1233" y="396" type="curve" smooth="yes"/>
      <point x="1233" y="321"/>
      <point x="1321" y="283"/>
      <point x="1541" y="247" type="curve" smooth="yes"/>
      <point x="1740" y="213"/>
      <point x="1805" y="180"/>
      <point x="1805" y="118" type="curve" smooth="yes"/>
      <point x="1805" y="45"/>
      <point x="1683" y="1"/>
      <point x="1541" y="1" type="curve" smooth="yes"/>
      <point x="1414" y="1"/>
      <point x="1309" y="26"/>
      <point x="1222" y="70" type="curve"/>
      <point x="1196" y="53" type="line"/>
      <point x="1281" y="10"/>
      <point x="1395" y="-20"/>
    </contour>
  </outline>
</glyph>
<glyph name="rupeeIndian" format="1">
  <advance width="997"/>
  <outline>
    <contour>
      <point x="390" y="194" type="line"/>
      <point x="401" y="189" type="line"/>
      <point x="500" y="127"/>
      <point x="681" y="41"/>
      <point x="761" y="-2" type="curve"/>
      <point x="784" y="9" type="line"/>
      <point x="690" y="63"/>
      <point x="548" y="125"/>
      <point x="428" y="194" type="curve"/>
      <point x="452" y="195" type="line" smooth="yes"/>
      <point x="632" y="207"/>
      <point x="728" y="252"/>
      <point x="742" y="321" type="curve"/>
      <point x="925" y="321" type="line"/>
      <point x="925" y="339" type="line"/>
      <point x="743" y="339" type="line"/>
      <point x="743" y="370"/>
      <point x="709" y="417"/>
      <point x="631" y="449" type="curve"/>
      <point x="925" y="449" type="line"/>
      <point x="925" y="467" type="line"/>
      <point x="332" y="467" type="line"/>
      <point x="332" y="449" type="line"/>
      <point x="587" y="449" type="line"/>
      <point x="670" y="422"/>
      <point x="709" y="376"/>
      <point x="713" y="339" type="curve"/>
      <point x="332" y="339" type="line"/>
      <point x="332" y="321" type="line"/>
      <point x="712" y="321" type="line"/>
      <point x="698" y="264"/>
      <point x="595" y="218"/>
      <point x="435" y="212" type="curve" smooth="yes"/>
      <point x="401" y="210" type="line"/>
      <point x="400" y="211" type="line"/>
      <point x="399" y="210" type="line"/>
      <point x="399" y="210" type="line"/>
    </contour>
  </outline>
</glyph>
<glyph name="u0A09_u0A02" format="1">
  <advance width="1274"/>
  <outline>
    <contour>
      <point x="1296" y="485" type="line"/>
      <point x="1182" y="485" type="line"/>
      <point x="1150" y="553"/>
      <point x="1088" y="611"/>
      <point x="994" y="657" type="curve" smooth="yes"/>
      <point x="897" y="704"/>
      <point x="791" y="727"/>
      <point x="675" y="727" type="curve" smooth="yes"/>
      <point x="531" y="727"/>
      <point x="410" y="704"/>
      <point x="311" y="659" type="curve" smooth="yes"/>
      <point x="219" y="617"/>
      <point x="155" y="558"/>
      <point x="120" y="485" type="curve"/>
      <point x="0" y="485" type="line"/>
      <point x="0" y="411" type="line"/>
      <point x="95" y="411" type="line"/>
      <point x="93" y="397"/>
      <point x="92" y="380"/>
      <point x="92" y="361" type="curve" smooth="yes"/>
      <point x="92" y="221"/>
      <point x="125" y="104"/>
      <point x="191" y="10" type="curve" smooth="yes"/>
      <point x="284" y="-123"/>
      <point x="433" y="-189"/>
      <point x="638" y="-189" type="curve" smooth="yes"/>
      <point x="749" y="-189"/>
      <point x="841" y="-177"/>
      <point x="914" y="-153" type="curve" smooth="yes"/>
      <point x="1005" y="-124"/>
      <point x="1051" y="-80"/>
      <point x="1051" y="-21" type="curve" smooth="yes"/>
      <point x="1051" y="9"/>
      <point x="1042" y="35"/>
      <point x="1024" y="57" type="curve" smooth="yes"/>
      <point x="1009" y="76"/>
      <point x="980" y="98"/>
      <point x="940" y="121" type="curve"/>
      <point x="1107" y="177"/>
      <point x="1191" y="257"/>
      <point x="1191" y="362" type="curve" smooth="yes"/>
      <point x="1191" y="411" type="line"/>
      <point x="1296" y="411" type="line"/>
    </contour>
    <contour>
      <point x="265" y="485" type="line"/>
      <point x="298" y="531"/>
      <point x="349" y="568"/>
      <point x="419" y="598" type="curve" smooth="yes"/>
      <point x="491" y="630"/>
      <point x="569" y="646"/>
      <point x="653" y="646" type="curve" smooth="yes"/>
      <point x="731" y="646"/>
      <point x="806" y="631"/>
      <point x="879" y="601" type="curve" smooth="yes"/>
      <point x="956" y="571"/>
      <point x="1008" y="532"/>
      <point x="1036" y="485" type="curve"/>
    </contour>
    <contour>
      <point x="1045" y="362" type="line" smooth="yes"/>
      <point x="1045" y="323"/>
      <point x="1015" y="284"/>
      <point x="955" y="243" type="curve" smooth="yes"/>
      <point x="893" y="202"/>
      <point x="828" y="180"/>
      <point x="762" y="180" type="curve" smooth="yes"/>
      <point x="257" y="180" type="line"/>
      <point x="243" y="222"/>
      <point x="236" y="270"/>
      <point x="236" y="326" type="curve" smooth="yes"/>
      <point x="236" y="358"/>
      <point x="238" y="385"/>
      <point x="240" y="411" type="curve"/>
      <point x="1045" y="411" type="line"/>
    </contour>
    <contour>
      <point x="916" y="-21" type="curve" smooth="yes"/>
      <point x="916" y="-79"/>
      <point x="824" y="-107"/>
      <point x="638" y="-107" type="curve" smooth="yes"/>
      <point x="551" y="-107"/>
      <point x="473" y="-83"/>
      <point x="402" y="-36" type="curve" smooth="yes"/>
      <point x="345" y="3"/>
      <point x="302" y="50"/>
      <point x="275" y="105" type="curve"/>
      <point x="606" y="105" type="line" smooth="yes"/>
      <point x="684" y="105"/>
      <point x="752" y="95"/>
      <point x="811" y="75" type="curve" smooth="yes"/>
      <point x="881" y="52"/>
      <point x="916" y="20"/>
    </contour>
    <contour>
      <point x="1052" y="-326" type="curve"/>
      <point x="1024" y="-304"/>
      <point x="995" y="-282"/>
      <point x="966" y="-260" type="curve"/>
      <point x="937" y="-273"/>
      <point x="892" y="-285"/>
      <point x="830" y="-297" type="curve" smooth="yes"/>
      <point x="757" y="-312"/>
      <point x="694" y="-320"/>
      <point x="639" y="-320" type="curve" smooth="yes"/>
      <point x="584" y="-320"/>
      <point x="523" y="-313"/>
      <point x="455" y="-300" type="curve" smooth="yes"/>
      <point x="396" y="-288"/>
      <point x="348" y="-275"/>
      <point x="312" y="-260" type="curve"/>
      <point x="283" y="-282"/>
      <point x="254" y="-304"/>
      <point x="226" y="-326" type="curve"/>
      <point x="344" y="-377"/>
      <point x="482" y="-402"/>
      <point x="639" y="-402" type="curve" smooth="yes"/>
      <point x="797" y="-402"/>
      <point x="934" y="-377"/>
    </contour>
    <contour>
      <point x="1205" y="747" type="curve" smooth="yes"/>
      <point x="1205" y="776"/>
      <point x="1165" y="799"/>
      <point x="1114" y="799" type="curve" smooth="yes"/>
      <point x="1064" y="799"/>
      <point x="1023" y="776"/>
      <point x="1023" y="747" type="curve" smooth="yes"/>
      <point x="1023" y="718"/>
      <point x="1064" y="695"/>
      <point x="1114" y="695" type="curve" smooth="yes"/>
      <point x="1165" y="695"/>
      <point x="1205" y="718"/>
    </contour>
  </outline>
</glyph>
<glyph name="u0A09_u0A3C" format="1">
  <advance width="1274"/>
  <outline>
    <contour>
      <point x="1296" y="485" type="line"/>
      <point x="1182" y="485" type="line"/>
      <point x="1150" y="553"/>
      <point x="1088" y="611"/>
      <point x="994" y="657" type="curve" smooth="yes"/>
      <point x="897" y="704"/>
      <point x="791" y="727"/>
      <point x="675" y="727" type="curve" smooth="yes"/>
      <point x="531" y="727"/>
      <point x="410" y="704"/>
      <point x="311" y="659" type="curve" smooth="yes"/>
      <point x="219" y="617"/>
      <point x="155" y="558"/>
      <point x="120" y="485" type="curve"/>
      <point x="0" y="485" type="line"/>
      <point x="0" y="411" type="line"/>
      <point x="95" y="411" type="line"/>
      <point x="93" y="397"/>
      <point x="92" y="380"/>
      <point x="92" y="361" type="curve" smooth="yes"/>
      <point x="92" y="221"/>
      <point x="125" y="104"/>
      <point x="191" y="10" type="curve" smooth="yes"/>
      <point x="284" y="-123"/>
      <point x="433" y="-189"/>
      <point x="638" y="-189" type="curve" smooth="yes"/>
      <point x="749" y="-189"/>
      <point x="841" y="-177"/>
      <point x="914" y="-153" type="curve" smooth="yes"/>
      <point x="1005" y="-124"/>
      <point x="1051" y="-80"/>
      <point x="1051" y="-21" type="curve" smooth="yes"/>
      <point x="1051" y="9"/>
      <point x="1042" y="35"/>
      <point x="1024" y="57" type="curve" smooth="yes"/>
      <point x="1009" y="76"/>
      <point x="980" y="98"/>
      <point x="940" y="121" type="curve"/>
      <point x="1107" y="177"/>
      <point x="1191" y="257"/>
      <point x="1191" y="362" type="curve" smooth="yes"/>
      <point x="1191" y="411" type="line"/>
      <point x="1296" y="411" type="line"/>
    </contour>
    <contour>
      <point x="265" y="485" type="line"/>
      <point x="298" y="531"/>
      <point x="349" y="568"/>
      <point x="419" y="598" type="curve" smooth="yes"/>
      <point x="491" y="630"/>
      <point x="569" y="646"/>
      <point x="653" y="646" type="curve" smooth="yes"/>
      <point x="731" y="646"/>
      <point x="806" y="631"/>
      <point x="879" y="601" type="curve" smooth="yes"/>
      <point x="956" y="571"/>
      <point x="1008" y="532"/>
      <point x="1036" y="485" type="curve"/>
    </contour>
    <contour>
      <point x="1045" y="362" type="line" smooth="yes"/>
      <point x="1045" y="323"/>
      <point x="1015" y="284"/>
      <point x="955" y="243" type="curve" smooth="yes"/>
      <point x="893" y="202"/>
      <point x="828" y="180"/>
      <point x="762" y="180" type="curve" smooth="yes"/>
      <point x="257" y="180" type="line"/>
      <point x="243" y="222"/>
      <point x="236" y="270"/>
      <point x="236" y="326" type="curve" smooth="yes"/>
      <point x="236" y="358"/>
      <point x="238" y="385"/>
      <point x="240" y="411" type="curve"/>
      <point x="1045" y="411" type="line"/>
    </contour>
    <contour>
      <point x="916" y="-21" type="curve" smooth="yes"/>
      <point x="916" y="-79"/>
      <point x="824" y="-107"/>
      <point x="638" y="-107" type="curve" smooth="yes"/>
      <point x="551" y="-107"/>
      <point x="473" y="-83"/>
      <point x="402" y="-36" type="curve" smooth="yes"/>
      <point x="345" y="3"/>
      <point x="302" y="50"/>
      <point x="275" y="105" type="curve"/>
      <point x="606" y="105" type="line" smooth="yes"/>
      <point x="684" y="105"/>
      <point x="752" y="95"/>
      <point x="811" y="75" type="curve" smooth="yes"/>
      <point x="881" y="52"/>
      <point x="916" y="20"/>
    </contour>
    <contour>
      <point x="1050" y="-326" type="curve"/>
      <point x="1022" y="-304"/>
      <point x="994" y="-282"/>
      <point x="964" y="-260" type="curve"/>
      <point x="935" y="-273"/>
      <point x="890" y="-285"/>
      <point x="828" y="-297" type="curve" smooth="yes"/>
      <point x="755" y="-312"/>
      <point x="692" y="-320"/>
      <point x="637" y="-320" type="curve" smooth="yes"/>
      <point x="582" y="-320"/>
      <point x="521" y="-313"/>
      <point x="454" y="-300" type="curve" smooth="yes"/>
      <point x="394" y="-288"/>
      <point x="347" y="-275"/>
      <point x="311" y="-260" type="curve"/>
      <point x="281" y="-282"/>
      <point x="252" y="-304"/>
      <point x="224" y="-326" type="curve"/>
      <point x="342" y="-377"/>
      <point x="480" y="-402"/>
      <point x="637" y="-402" type="curve" smooth="yes"/>
      <point x="795" y="-402"/>
      <point x="932" y="-377"/>
    </contour>
    <contour>
      <point x="221" y="-191" type="curve" smooth="yes"/>
      <point x="221" y="-161"/>
      <point x="179" y="-137"/>
      <point x="128" y="-137" type="curve" smooth="yes"/>
      <point x="77" y="-137"/>
      <point x="34" y="-161"/>
      <point x="34" y="-191" type="curve" smooth="yes"/>
      <point x="34" y="-220"/>
      <point x="77" y="-244"/>
      <point x="128" y="-244" type="curve" smooth="yes"/>
      <point x="179" y="-244"/>
      <point x="221" y="-220"/>
    </contour>
  </outline>
</glyph>
<glyph name="u0A0A_u0A3C" format="1">
  <advance width="1274"/>
  <outline>
    <contour>
      <point x="1296" y="334" type="line"/>
      <point x="1182" y="334" type="line"/>
      <point x="1150" y="403"/>
      <point x="1088" y="461"/>
      <point x="994" y="506" type="curve" smooth="yes"/>
      <point x="897" y="553"/>
      <point x="791" y="577"/>
      <point x="675" y="577" type="curve" smooth="yes"/>
      <point x="531" y="577"/>
      <point x="410" y="554"/>
      <point x="311" y="509" type="curve" smooth="yes"/>
      <point x="219" y="466"/>
      <point x="155" y="408"/>
      <point x="120" y="334" type="curve"/>
      <point x="0" y="334" type="line"/>
      <point x="0" y="260" type="line"/>
      <point x="95" y="260" type="line"/>
      <point x="93" y="246"/>
      <point x="92" y="230"/>
      <point x="92" y="210" type="curve" smooth="yes"/>
      <point x="92" y="71"/>
      <point x="125" y="-46"/>
      <point x="191" y="-140" type="curve" smooth="yes"/>
      <point x="284" y="-273"/>
      <point x="433" y="-340"/>
      <point x="638" y="-340" type="curve" smooth="yes"/>
      <point x="749" y="-340"/>
      <point x="841" y="-328"/>
      <point x="914" y="-304" type="curve" smooth="yes"/>
      <point x="1005" y="-274"/>
      <point x="1051" y="-230"/>
      <point x="1051" y="-172" type="curve" smooth="yes"/>
      <point x="1051" y="-141"/>
      <point x="1042" y="-115"/>
      <point x="1024" y="-93" type="curve" smooth="yes"/>
      <point x="1009" y="-74"/>
      <point x="980" y="-53"/>
      <point x="940" y="-30" type="curve"/>
      <point x="1107" y="27"/>
      <point x="1191" y="107"/>
      <point x="1191" y="211" type="curve" smooth="yes"/>
      <point x="1191" y="260" type="line"/>
      <point x="1296" y="260" type="line"/>
    </contour>
    <contour>
      <point x="265" y="334" type="line"/>
      <point x="298" y="380"/>
      <point x="349" y="418"/>
      <point x="419" y="448" type="curve" smooth="yes"/>
      <point x="491" y="479"/>
      <point x="569" y="495"/>
      <point x="653" y="495" type="curve" smooth="yes"/>
      <point x="731" y="495"/>
      <point x="806" y="480"/>
      <point x="879" y="451" type="curve" smooth="yes"/>
      <point x="956" y="420"/>
      <point x="1008" y="381"/>
      <point x="1036" y="334" type="curve"/>
    </contour>
    <contour>
      <point x="1045" y="211" type="line" smooth="yes"/>
      <point x="1045" y="173"/>
      <point x="1015" y="134"/>
      <point x="955" y="93" type="curve" smooth="yes"/>
      <point x="893" y="51"/>
      <point x="828" y="30"/>
      <point x="762" y="30" type="curve" smooth="yes"/>
      <point x="257" y="30" type="line"/>
      <point x="243" y="71"/>
      <point x="236" y="120"/>
      <point x="236" y="176" type="curve" smooth="yes"/>
      <point x="236" y="207"/>
      <point x="238" y="235"/>
      <point x="240" y="260" type="curve"/>
      <point x="1045" y="260" type="line"/>
    </contour>
    <contour>
      <point x="916" y="-172" type="curve" smooth="yes"/>
      <point x="916" y="-229"/>
      <point x="824" y="-257"/>
      <point x="638" y="-257" type="curve" smooth="yes"/>
      <point x="551" y="-257"/>
      <point x="473" y="-234"/>
      <point x="402" y="-186" type="curve" smooth="yes"/>
      <point x="345" y="-148"/>
      <point x="302" y="-101"/>
      <point x="275" y="-46" type="curve"/>
      <point x="606" y="-46" type="line" smooth="yes"/>
      <point x="684" y="-46"/>
      <point x="752" y="-55"/>
      <point x="811" y="-75" type="curve" smooth="yes"/>
      <point x="881" y="-98"/>
      <point x="916" y="-130"/>
    </contour>
    <contour>
      <point x="1044" y="-477" type="curve"/>
      <point x="1016" y="-455"/>
      <point x="987" y="-432"/>
      <point x="958" y="-411" type="curve"/>
      <point x="929" y="-423"/>
      <point x="884" y="-435"/>
      <point x="822" y="-448" type="curve" smooth="yes"/>
      <point x="749" y="-463"/>
      <point x="686" y="-470"/>
      <point x="631" y="-470" type="curve" smooth="yes"/>
      <point x="576" y="-470"/>
      <point x="515" y="-463"/>
      <point x="447" y="-450" type="curve" smooth="yes"/>
      <point x="388" y="-438"/>
      <point x="340" y="-425"/>
      <point x="304" y="-411" type="curve"/>
      <point x="275" y="-432"/>
      <point x="246" y="-455"/>
      <point x="218" y="-477" type="curve"/>
      <point x="336" y="-527"/>
      <point x="473" y="-552"/>
      <point x="631" y="-552" type="curve" smooth="yes"/>
      <point x="788" y="-552"/>
      <point x="926" y="-527"/>
    </contour>
    <contour>
      <point x="1044" y="-636" type="curve"/>
      <point x="1016" y="-614"/>
      <point x="987" y="-592"/>
      <point x="958" y="-570" type="curve"/>
      <point x="929" y="-583"/>
      <point x="884" y="-595"/>
      <point x="822" y="-607" type="curve" smooth="yes"/>
      <point x="749" y="-622"/>
      <point x="686" y="-630"/>
      <point x="631" y="-630" type="curve" smooth="yes"/>
      <point x="576" y="-630"/>
      <point x="515" y="-623"/>
      <point x="447" y="-610" type="curve" smooth="yes"/>
      <point x="388" y="-598"/>
      <point x="340" y="-585"/>
      <point x="304" y="-570" type="curve"/>
      <point x="275" y="-592"/>
      <point x="246" y="-614"/>
      <point x="218" y="-636" type="curve"/>
      <point x="336" y="-687"/>
      <point x="473" y="-712"/>
      <point x="631" y="-712" type="curve" smooth="yes"/>
      <point x="788" y="-712"/>
      <point x="926" y="-687"/>
    </contour>
    <contour>
      <point x="221" y="-341" type="curve" smooth="yes"/>
      <point x="221" y="-312"/>
      <point x="179" y="-288"/>
      <point x="128" y="-288" type="curve" smooth="yes"/>
      <point x="77" y="-288"/>
      <point x="34" y="-312"/>
      <point x="34" y="-341" type="curve" smooth="yes"/>
      <point x="34" y="-371"/>
      <point x="77" y="-395"/>
      <point x="128" y="-395" type="curve" smooth="yes"/>
      <point x="179" y="-395"/>
      <point x="221" y="-371"/>
    </contour>
  </outline>
</glyph>
<glyph name="u0A0F_u0A3C" format="1">
  <advance width="1069"/>
  <outline>
    <contour>
      <point x="1091" y="633" type="line"/>
      <point x="1019" y="633" type="line"/>
      <point x="865" y="794"/>
      <point x="716" y="875"/>
      <point x="573" y="875" type="curve" smooth="yes"/>
      <point x="512" y="875" type="line"/>
      <point x="512" y="793" type="line"/>
      <point x="560" y="793" type="line" smooth="yes"/>
      <point x="619" y="793"/>
      <point x="681" y="772"/>
      <point x="747" y="732" type="curve" smooth="yes"/>
      <point x="779" y="712"/>
      <point x="821" y="679"/>
      <point x="874" y="633" type="curve"/>
      <point x="0" y="633" type="line"/>
      <point x="0" y="559" type="line"/>
      <point x="142" y="559" type="line"/>
      <point x="145" y="443"/>
      <point x="182" y="364"/>
      <point x="251" y="321" type="curve" smooth="yes"/>
      <point x="273" y="308"/>
      <point x="296" y="297"/>
      <point x="320" y="288" type="curve"/>
      <point x="255" y="266"/>
      <point x="205" y="245"/>
      <point x="172" y="224" type="curve" smooth="yes"/>
      <point x="142" y="207"/>
      <point x="111" y="181"/>
      <point x="77" y="146" type="curve"/>
      <point x="267" y="18"/>
      <point x="449" y="-47"/>
      <point x="621" y="-47" type="curve" smooth="yes"/>
      <point x="725" y="-47"/>
      <point x="808" y="-37"/>
      <point x="871" y="-18" type="curve" smooth="yes"/>
      <point x="938" y="3"/>
      <point x="989" y="37"/>
      <point x="1026" y="84" type="curve"/>
      <point x="938" y="63"/>
      <point x="871" y="49"/>
      <point x="827" y="44" type="curve" smooth="yes"/>
      <point x="783" y="38"/>
      <point x="714" y="36"/>
      <point x="621" y="36" type="curve" smooth="yes"/>
      <point x="501" y="36"/>
      <point x="377" y="75"/>
      <point x="250" y="154" type="curve"/>
      <point x="282" y="180"/>
      <point x="326" y="203"/>
      <point x="382" y="223" type="curve" smooth="yes"/>
      <point x="445" y="245"/>
      <point x="506" y="257"/>
      <point x="566" y="257" type="curve" smooth="yes"/>
      <point x="916" y="257" type="line"/>
      <point x="916" y="559" type="line"/>
      <point x="1091" y="559" type="line"/>
    </contour>
    <contour>
      <point x="490" y="341" type="line" smooth="yes"/>
      <point x="406" y="341"/>
      <point x="347" y="365"/>
      <point x="316" y="415" type="curve" smooth="yes"/>
      <point x="295" y="448"/>
      <point x="285" y="496"/>
      <point x="285" y="559" type="curve"/>
      <point x="771" y="559" type="line"/>
      <point x="771" y="341" type="line"/>
    </contour>
    <contour>
      <point x="221" y="-42" type="curve" smooth="yes"/>
      <point x="221" y="-13"/>
      <point x="179" y="11"/>
      <point x="128" y="11" type="curve" smooth="yes"/>
      <point x="77" y="11"/>
      <point x="34" y="-13"/>
      <point x="34" y="-42" type="curve" smooth="yes"/>
      <point x="34" y="-72"/>
      <point x="77" y="-96"/>
      <point x="128" y="-96" type="curve" smooth="yes"/>
      <point x="179" y="-96"/>
      <point x="221" y="-72"/>
    </contour>
  </outline>
</glyph>
<glyph name="u0A13_u0A02" format="1">
  <advance width="1274"/>
  <outline>
    <contour>
      <point x="1296" y="685" type="line"/>
      <point x="265" y="685" type="line"/>
      <point x="298" y="731"/>
      <point x="349" y="769"/>
      <point x="419" y="798" type="curve" smooth="yes"/>
      <point x="491" y="830"/>
      <point x="569" y="846"/>
      <point x="653" y="846" type="curve" smooth="yes"/>
      <point x="801" y="846"/>
      <point x="899" y="826"/>
      <point x="947" y="788" type="curve"/>
      <point x="1132" y="788" type="line"/>
      <point x="1105" y="825"/>
      <point x="1052" y="857"/>
      <point x="973" y="883" type="curve" smooth="yes"/>
      <point x="885" y="913"/>
      <point x="786" y="927"/>
      <point x="675" y="927" type="curve" smooth="yes"/>
      <point x="531" y="927"/>
      <point x="410" y="905"/>
      <point x="311" y="860" type="curve" smooth="yes"/>
      <point x="219" y="817"/>
      <point x="155" y="759"/>
      <point x="120" y="685" type="curve"/>
      <point x="0" y="685" type="line"/>
      <point x="0" y="611" type="line"/>
      <point x="95" y="611" type="line"/>
      <point x="93" y="597"/>
      <point x="92" y="581"/>
      <point x="92" y="561" type="curve" smooth="yes"/>
      <point x="92" y="421"/>
      <point x="125" y="305"/>
      <point x="191" y="210" type="curve" smooth="yes"/>
      <point x="284" y="77"/>
      <point x="433" y="11"/>
      <point x="638" y="11" type="curve" smooth="yes"/>
      <point x="749" y="11"/>
      <point x="841" y="23"/>
      <point x="914" y="47" type="curve" smooth="yes"/>
      <point x="1005" y="76"/>
      <point x="1051" y="121"/>
      <point x="1051" y="179" type="curve" smooth="yes"/>
      <point x="1051" y="209"/>
      <point x="1042" y="236"/>
      <point x="1024" y="257" type="curve" smooth="yes"/>
      <point x="1009" y="276"/>
      <point x="980" y="298"/>
      <point x="940" y="321" type="curve"/>
      <point x="1107" y="377"/>
      <point x="1191" y="458"/>
      <point x="1191" y="562" type="curve" smooth="yes"/>
      <point x="1191" y="611" type="line"/>
      <point x="1296" y="611" type="line"/>
    </contour>
    <contour>
      <point x="1045" y="562" type="line" smooth="yes"/>
      <point x="1045" y="523"/>
      <point x="1015" y="484"/>
      <point x="955" y="444" type="curve" smooth="yes"/>
      <point x="893" y="402"/>
      <point x="828" y="381"/>
      <point x="762" y="381" type="curve" smooth="yes"/>
      <point x="257" y="381" type="line"/>
      <point x="243" y="422"/>
      <point x="236" y="470"/>
      <point x="236" y="527" type="curve" smooth="yes"/>
      <point x="236" y="558"/>
      <point x="238" y="586"/>
      <point x="240" y="611" type="curve"/>
      <point x="1045" y="611" type="line"/>
    </contour>
    <contour>
      <point x="916" y="179" type="curve" smooth="yes"/>
      <point x="916" y="122"/>
      <point x="824" y="93"/>
      <point x="638" y="93" type="curve" smooth="yes"/>
      <point x="551" y="93"/>
      <point x="473" y="117"/>
      <point x="402" y="164" type="curve" smooth="yes"/>
      <point x="345" y="203"/>
      <point x="302" y="250"/>
      <point x="275" y="305" type="curve"/>
      <point x="606" y="305" type="line" smooth="yes"/>
      <point x="684" y="305"/>
      <point x="752" y="295"/>
      <point x="811" y="276" type="curve" smooth="yes"/>
      <point x="881" y="253"/>
      <point x="916" y="221"/>
    </contour>
    <contour>
      <point x="1205" y="947" type="curve" smooth="yes"/>
      <point x="1205" y="976"/>
      <point x="1165" y="999"/>
      <point x="1114" y="999" type="curve" smooth="yes"/>
      <point x="1064" y="999"/>
      <point x="1023" y="976"/>
      <point x="1023" y="947" type="curve" smooth="yes"/>
      <point x="1023" y="918"/>
      <point x="1064" y="895"/>
      <point x="1114" y="895" type="curve" smooth="yes"/>
      <point x="1165" y="895"/>
      <point x="1205" y="918"/>
    </contour>
  </outline>
</glyph>
<glyph name="u0A13_u0A71" format="1">
  <advance width="1328"/>
  <outline>
    <contour>
      <point x="1544" y="913" type="line"/>
      <point x="1544" y="860"/>
      <point x="1502" y="833"/>
      <point x="1420" y="833" type="curve" smooth="yes"/>
      <point x="1338" y="833"/>
      <point x="1297" y="860"/>
      <point x="1297" y="913" type="curve"/>
      <point x="1167" y="913" type="line"/>
      <point x="1167" y="866"/>
      <point x="1188" y="830"/>
      <point x="1230" y="803" type="curve" smooth="yes"/>
      <point x="1274" y="774"/>
      <point x="1338" y="759"/>
      <point x="1420" y="759" type="curve" smooth="yes"/>
      <point x="1503" y="759"/>
      <point x="1567" y="774"/>
      <point x="1611" y="803" type="curve" smooth="yes"/>
      <point x="1652" y="830"/>
      <point x="1673" y="866"/>
      <point x="1673" y="913" type="curve"/>
    </contour>
    <contour>
      <point x="1350" y="685" type="line"/>
      <point x="265" y="685" type="line"/>
      <point x="298" y="731"/>
      <point x="349" y="769"/>
      <point x="419" y="798" type="curve" smooth="yes"/>
      <point x="491" y="830"/>
      <point x="569" y="846"/>
      <point x="653" y="846" type="curve" smooth="yes"/>
      <point x="785" y="846"/>
      <point x="883" y="820"/>
      <point x="947" y="767" type="curve"/>
      <point x="1132" y="767" type="line"/>
      <point x="1103" y="807"/>
      <point x="1050" y="842"/>
      <point x="973" y="873" type="curve" smooth="yes"/>
      <point x="882" y="909"/>
      <point x="783" y="927"/>
      <point x="675" y="927" type="curve" smooth="yes"/>
      <point x="531" y="927"/>
      <point x="410" y="905"/>
      <point x="311" y="860" type="curve" smooth="yes"/>
      <point x="219" y="817"/>
      <point x="155" y="759"/>
      <point x="120" y="685" type="curve"/>
      <point x="0" y="685" type="line"/>
      <point x="0" y="611" type="line"/>
      <point x="95" y="611" type="line"/>
      <point x="93" y="597"/>
      <point x="92" y="581"/>
      <point x="92" y="561" type="curve" smooth="yes"/>
      <point x="92" y="421"/>
      <point x="125" y="305"/>
      <point x="191" y="210" type="curve" smooth="yes"/>
      <point x="284" y="77"/>
      <point x="433" y="11"/>
      <point x="638" y="11" type="curve" smooth="yes"/>
      <point x="749" y="11"/>
      <point x="841" y="23"/>
      <point x="914" y="47" type="curve" smooth="yes"/>
      <point x="1005" y="76"/>
      <point x="1051" y="121"/>
      <point x="1051" y="179" type="curve" smooth="yes"/>
      <point x="1051" y="209"/>
      <point x="1042" y="236"/>
      <point x="1024" y="257" type="curve" smooth="yes"/>
      <point x="1009" y="276"/>
      <point x="980" y="298"/>
      <point x="940" y="321" type="curve"/>
      <point x="1107" y="377"/>
      <point x="1191" y="458"/>
      <point x="1191" y="562" type="curve" smooth="yes"/>
      <point x="1191" y="611" type="line"/>
      <point x="1350" y="611" type="line"/>
    </contour>
    <contour>
      <point x="1045" y="562" type="line" smooth="yes"/>
      <point x="1045" y="523"/>
      <point x="1015" y="484"/>
      <point x="955" y="444" type="curve" smooth="yes"/>
      <point x="893" y="402"/>
      <point x="828" y="381"/>
      <point x="762" y="381" type="curve" smooth="yes"/>
      <point x="257" y="381" type="line"/>
      <point x="243" y="422"/>
      <point x="236" y="470"/>
      <point x="236" y="527" type="curve" smooth="yes"/>
      <point x="236" y="558"/>
      <point x="238" y="586"/>
      <point x="240" y="611" type="curve"/>
      <point x="1045" y="611" type="line"/>
    </contour>
    <contour>
      <point x="916" y="179" type="curve" smooth="yes"/>
      <point x="916" y="122"/>
      <point x="824" y="93"/>
      <point x="638" y="93" type="curve" smooth="yes"/>
      <point x="551" y="93"/>
      <point x="473" y="117"/>
      <point x="402" y="164" type="curve" smooth="yes"/>
      <point x="345" y="203"/>
      <point x="302" y="250"/>
      <point x="275" y="305" type="curve"/>
      <point x="606" y="305" type="line" smooth="yes"/>
      <point x="684" y="305"/>
      <point x="752" y="295"/>
      <point x="811" y="276" type="curve" smooth="yes"/>
      <point x="881" y="253"/>
      <point x="916" y="221"/>
    </contour>
  </outline>
</glyph>
<glyph name="u0A15_u0A3C" format="1">
  <advance width="1224.0"/>
  <outline>
    <contour>
      <point x="1246" y="662" type="line"/>
      <point x="0" y="662" type="line"/>
      <point x="0" y="588" type="line"/>
      <point x="936" y="588" type="line"/>
      <point x="936" y="483"/>
      <point x="917" y="403"/>
      <point x="880" y="348" type="curve"/>
      <point x="770" y="420"/>
      <point x="619" y="455"/>
      <point x="428" y="455" type="curve" smooth="yes"/>
      <point x="333" y="455"/>
      <point x="253" y="440"/>
      <point x="187" y="410" type="curve" smooth="yes"/>
      <point x="116" y="378"/>
      <point x="81" y="335"/>
      <point x="81" y="282" type="curve" smooth="yes"/>
      <point x="81" y="226"/>
      <point x="117" y="181"/>
      <point x="188" y="148" type="curve" smooth="yes"/>
      <point x="256" y="116"/>
      <point x="338" y="101"/>
      <point x="438" y="101" type="curve" smooth="yes"/>
      <point x="625" y="101"/>
      <point x="771" y="132"/>
      <point x="879" y="196" type="curve"/>
      <point x="917" y="154"/>
      <point x="936" y="82"/>
      <point x="936" y="-17" type="curve"/>
      <point x="1080" y="-17" type="line"/>
      <point x="1080" y="104"/>
      <point x="1046" y="200"/>
      <point x="977" y="272" type="curve"/>
      <point x="1046" y="346"/>
      <point x="1080" y="451"/>
      <point x="1080" y="588" type="curve"/>
      <point x="1246" y="588" type="line"/>
    </contour>
    <contour>
      <point x="804" y="271" type="curve"/>
      <point x="706" y="213"/>
      <point x="583" y="183"/>
      <point x="438" y="183" type="curve" smooth="yes"/>
      <point x="379" y="183"/>
      <point x="329" y="191"/>
      <point x="291" y="207" type="curve" smooth="yes"/>
      <point x="247" y="224"/>
      <point x="224" y="249"/>
      <point x="224" y="282" type="curve" smooth="yes"/>
      <point x="224" y="310"/>
      <point x="247" y="333"/>
      <point x="291" y="350" type="curve" smooth="yes"/>
      <point x="329" y="366"/>
      <point x="375" y="373"/>
      <point x="428" y="373" type="curve" smooth="yes"/>
      <point x="585" y="373"/>
      <point x="711" y="339"/>
    </contour>
    <contour>
      <point x="251" y="18" type="curve" smooth="yes"/>
      <point x="251" y="47"/>
      <point x="209" y="71"/>
      <point x="158" y="71" type="curve" smooth="yes"/>
      <point x="106" y="71"/>
      <point x="64" y="47"/>
      <point x="64" y="18" type="curve" smooth="yes"/>
      <point x="64" y="-12"/>
      <point x="106" y="-36"/>
      <point x="158" y="-36" type="curve" smooth="yes"/>
      <point x="209" y="-36"/>
      <point x="251" y="-12"/>
    </contour>
  </outline>
</glyph>
<glyph name="u0A17_u0A4D" format="1">
  <advance width="1328"/>
  <outline>
    <contour>
      <point x="1350" y="364" type="line"/>
      <point x="0" y="364" type="line"/>
      <point x="0" y="290" type="line"/>
      <point x="634" y="290" type="line"/>
      <point x="634" y="90" type="line"/>
      <point x="304" y="90" type="line" smooth="yes"/>
      <point x="231" y="90"/>
      <point x="180" y="85"/>
      <point x="149" y="77" type="curve" smooth="yes"/>
      <point x="90" y="60"/>
      <point x="61" y="27"/>
      <point x="61" y="-24" type="curve" smooth="yes"/>
      <point x="61" y="-78"/>
      <point x="117" y="-140"/>
      <point x="229" y="-209" type="curve" smooth="yes"/>
      <point x="345" y="-280"/>
      <point x="455" y="-316"/>
      <point x="559" y="-316" type="curve" smooth="yes"/>
      <point x="705" y="-316"/>
      <point x="778" y="-260"/>
      <point x="778" y="-147" type="curve" smooth="yes"/>
      <point x="778" y="290" type="line"/>
      <point x="1040" y="290" type="line"/>
      <point x="1040" y="-316" type="line"/>
      <point x="1184" y="-316" type="line"/>
      <point x="1184" y="290" type="line"/>
      <point x="1350" y="290" type="line"/>
    </contour>
    <contour>
      <point x="634" y="-142" type="line" smooth="yes"/>
      <point x="634" y="-203"/>
      <point x="608" y="-234"/>
      <point x="559" y="-234" type="curve" smooth="yes"/>
      <point x="493" y="-234"/>
      <point x="418" y="-209"/>
      <point x="332" y="-158" type="curve" smooth="yes"/>
      <point x="247" y="-108"/>
      <point x="204" y="-63"/>
      <point x="204" y="-24" type="curve" smooth="yes"/>
      <point x="204" y="-9"/>
      <point x="221" y="1"/>
      <point x="254" y="5" type="curve" smooth="yes"/>
      <point x="266" y="6"/>
      <point x="295" y="7"/>
      <point x="340" y="7" type="curve" smooth="yes"/>
      <point x="634" y="7" type="line"/>
    </contour>
    <contour>
      <point x="1153" y="-390" type="line"/>
      <point x="1037" y="-437" type="line"/>
      <point x="1303" y="-651" type="line"/>
      <point x="1417" y="-601" type="line"/>
    </contour>
  </outline>
</glyph>
<glyph name="u0A18_u0A4D" format="1">
  <advance width="1300"/>
  <outline>
    <contour>
      <point x="1321" y="364" type="line"/>
      <point x="1012" y="364" type="line"/>
      <point x="1012" y="-46" type="line"/>
      <point x="980" y="-51"/>
      <point x="940" y="-53"/>
      <point x="890" y="-53" type="curve" smooth="yes"/>
      <point x="786" y="-53"/>
      <point x="724" y="-31"/>
      <point x="703" y="14" type="curve"/>
      <point x="732" y="125"/>
      <point x="746" y="212"/>
      <point x="746" y="275" type="curve" smooth="yes"/>
      <point x="746" y="298"/>
      <point x="739" y="317"/>
      <point x="725" y="334" type="curve" smooth="yes"/>
      <point x="709" y="354"/>
      <point x="687" y="364"/>
      <point x="658" y="364" type="curve" smooth="yes"/>
      <point x="637" y="364"/>
      <point x="617" y="357"/>
      <point x="600" y="344" type="curve" smooth="yes"/>
      <point x="580" y="328"/>
      <point x="569" y="305"/>
      <point x="569" y="278" type="curve" smooth="yes"/>
      <point x="569" y="152"/>
      <point x="572" y="68"/>
      <point x="580" y="27" type="curve"/>
      <point x="547" y="-4"/>
      <point x="495" y="-20"/>
      <point x="422" y="-20" type="curve" smooth="yes"/>
      <point x="361" y="-20"/>
      <point x="309" y="-7"/>
      <point x="266" y="17" type="curve"/>
      <point x="337" y="63"/>
      <point x="372" y="122"/>
      <point x="372" y="191" type="curve" smooth="yes"/>
      <point x="372" y="227"/>
      <point x="359" y="258"/>
      <point x="333" y="286" type="curve" smooth="yes"/>
      <point x="313" y="308"/>
      <point x="278" y="334"/>
      <point x="229" y="364" type="curve"/>
      <point x="0" y="364" type="line"/>
      <point x="0" y="290" type="line"/>
      <point x="176" y="290" type="line"/>
      <point x="211" y="255"/>
      <point x="228" y="222"/>
      <point x="228" y="191" type="curve" smooth="yes"/>
      <point x="228" y="147"/>
      <point x="212" y="109"/>
      <point x="180" y="78" type="curve"/>
      <point x="99" y="15" type="line"/>
      <point x="129" y="-19"/>
      <point x="177" y="-48"/>
      <point x="246" y="-71" type="curve" smooth="yes"/>
      <point x="308" y="-91"/>
      <point x="366" y="-101"/>
      <point x="422" y="-101" type="curve" smooth="yes"/>
      <point x="496" y="-101"/>
      <point x="562" y="-88"/>
      <point x="619" y="-62" type="curve"/>
      <point x="673" y="-111"/>
      <point x="763" y="-135"/>
      <point x="890" y="-135" type="curve" smooth="yes"/>
      <point x="945" y="-135"/>
      <point x="986" y="-134"/>
      <point x="1012" y="-130" type="curve"/>
      <point x="1012" y="-316" type="line"/>
      <point x="1156" y="-316" type="line"/>
      <point x="1156" y="290" type="line"/>
      <point x="1321" y="290" type="line"/>
    </contour>
    <contour>
      <point x="1144" y="-390" type="line"/>
      <point x="1028" y="-437" type="line"/>
      <point x="1294" y="-651" type="line"/>
      <point x="1408" y="-601" type="line"/>
    </contour>
  </outline>
</glyph>
<glyph name="u0A1A_u0A3C_u0A4D" format="1">
  <advance width="1292"/>
  <outline>
    <contour>
      <point x="1314" y="364" type="line"/>
      <point x="0" y="364" type="line"/>
      <point x="0" y="290" type="line"/>
      <point x="1004" y="290" type="line"/>
      <point x="1004" y="104" type="line"/>
      <point x="374" y="104" type="line"/>
      <point x="352" y="153"/>
      <point x="316" y="178"/>
      <point x="266" y="178" type="curve" smooth="yes"/>
      <point x="235" y="178"/>
      <point x="197" y="168"/>
      <point x="153" y="149" type="curve" smooth="yes"/>
      <point x="104" y="127"/>
      <point x="78" y="105"/>
      <point x="78" y="81" type="curve" smooth="yes"/>
      <point x="78" y="45"/>
      <point x="136" y="26"/>
      <point x="251" y="25" type="curve"/>
      <point x="251" y="-86" type="line" smooth="yes"/>
      <point x="251" y="-159"/>
      <point x="294" y="-217"/>
      <point x="382" y="-259" type="curve" smooth="yes"/>
      <point x="459" y="-297"/>
      <point x="554" y="-316"/>
      <point x="669" y="-316" type="curve" smooth="yes"/>
      <point x="988" y="-316"/>
      <point x="1148" y="-236"/>
      <point x="1148" y="-78" type="curve" smooth="yes"/>
      <point x="1148" y="290" type="line"/>
      <point x="1314" y="290" type="line"/>
    </contour>
    <contour>
      <point x="1004" y="-81" type="line" smooth="yes"/>
      <point x="1004" y="-182"/>
      <point x="893" y="-233"/>
      <point x="669" y="-233" type="curve" smooth="yes"/>
      <point x="597" y="-233"/>
      <point x="537" y="-224"/>
      <point x="490" y="-205" type="curve" smooth="yes"/>
      <point x="428" y="-181"/>
      <point x="397" y="-143"/>
      <point x="397" y="-92" type="curve" smooth="yes"/>
      <point x="397" y="22" type="line"/>
      <point x="1004" y="22" type="line"/>
    </contour>
    <contour>
      <point x="275" y="-306" type="curve" smooth="yes"/>
      <point x="275" y="-277"/>
      <point x="232" y="-253"/>
      <point x="181" y="-253" type="curve" smooth="yes"/>
      <point x="130" y="-253"/>
      <point x="87" y="-277"/>
      <point x="87" y="-306" type="curve" smooth="yes"/>
      <point x="87" y="-336"/>
      <point x="130" y="-360"/>
      <point x="181" y="-360" type="curve" smooth="yes"/>
      <point x="232" y="-360"/>
      <point x="275" y="-336"/>
    </contour>
    <contour>
      <point x="721" y="-390" type="line"/>
      <point x="605" y="-437" type="line"/>
      <point x="871" y="-651" type="line"/>
      <point x="985" y="-601" type="line"/>
    </contour>
  </outline>
</glyph>
<glyph name="u0A1B_u0A3C" format="1">
  <advance width="1238"/>
  <outline>
    <contour>
      <point x="1260" y="541" type="line"/>
      <point x="0" y="541" type="line"/>
      <point x="0" y="467" type="line"/>
      <point x="948" y="467" type="line"/>
      <point x="948" y="358" type="line"/>
      <point x="542" y="358" type="line" smooth="yes"/>
      <point x="404" y="358"/>
      <point x="305" y="351"/>
      <point x="245" y="336" type="curve" smooth="yes"/>
      <point x="149" y="312"/>
      <point x="102" y="267"/>
      <point x="102" y="199" type="curve" smooth="yes"/>
      <point x="102" y="152"/>
      <point x="131" y="118"/>
      <point x="187" y="97" type="curve"/>
      <point x="127" y="69"/>
      <point x="97" y="31"/>
      <point x="97" y="-17" type="curve" smooth="yes"/>
      <point x="97" y="-69"/>
      <point x="145" y="-109"/>
      <point x="241" y="-137" type="curve" smooth="yes"/>
      <point x="317" y="-159"/>
      <point x="406" y="-170"/>
      <point x="509" y="-170" type="curve" smooth="yes"/>
      <point x="558" y="-170" type="line" smooth="yes"/>
      <point x="720" y="-170"/>
      <point x="842" y="-162"/>
      <point x="926" y="-148" type="curve" smooth="yes"/>
      <point x="1071" y="-123"/>
      <point x="1144" y="-76"/>
      <point x="1144" y="-5" type="curve" smooth="yes"/>
      <point x="1144" y="40"/>
      <point x="1117" y="77"/>
      <point x="1063" y="105" type="curve" smooth="yes"/>
      <point x="1011" y="132"/>
      <point x="945" y="146"/>
      <point x="865" y="146" type="curve" smooth="yes"/>
      <point x="441" y="146" type="line" smooth="yes"/>
      <point x="311" y="146"/>
      <point x="245" y="165"/>
      <point x="245" y="204" type="curve" smooth="yes"/>
      <point x="245" y="236"/>
      <point x="276" y="258"/>
      <point x="340" y="268" type="curve" smooth="yes"/>
      <point x="373" y="273"/>
      <point x="428" y="276"/>
      <point x="505" y="276" type="curve" smooth="yes"/>
      <point x="1094" y="276" type="line"/>
      <point x="1094" y="467" type="line"/>
      <point x="1260" y="467" type="line"/>
    </contour>
    <contour>
      <point x="1001" y="-5" type="curve" smooth="yes"/>
      <point x="1001" y="-37"/>
      <point x="958" y="-60"/>
      <point x="872" y="-73" type="curve" smooth="yes"/>
      <point x="833" y="-79"/>
      <point x="768" y="-84"/>
      <point x="675" y="-88" type="curve"/>
      <point x="678" y="-74"/>
      <point x="680" y="-61"/>
      <point x="680" y="-49" type="curve" smooth="yes"/>
      <point x="680" y="-4"/>
      <point x="661" y="34"/>
      <point x="624" y="65" type="curve"/>
      <point x="874" y="65" type="line" smooth="yes"/>
      <point x="950" y="65"/>
      <point x="1001" y="38"/>
    </contour>
    <contour>
      <point x="536" y="-48" type="curve" smooth="yes"/>
      <point x="536" y="-61"/>
      <point x="533" y="-75"/>
      <point x="528" y="-87" type="curve"/>
      <point x="464" y="-87"/>
      <point x="405" y="-83"/>
      <point x="354" y="-74" type="curve" smooth="yes"/>
      <point x="279" y="-62"/>
      <point x="241" y="-43"/>
      <point x="241" y="-17" type="curve" smooth="yes"/>
      <point x="241" y="5"/>
      <point x="260" y="24"/>
      <point x="297" y="36" type="curve" smooth="yes"/>
      <point x="329" y="48"/>
      <point x="365" y="54"/>
      <point x="407" y="54" type="curve" smooth="yes"/>
      <point x="451" y="54"/>
      <point x="484" y="43"/>
      <point x="507" y="20" type="curve" smooth="yes"/>
      <point x="526" y="2"/>
      <point x="536" y="-20"/>
    </contour>
    <contour>
      <point x="238" y="-232" type="curve" smooth="yes"/>
      <point x="238" y="-203"/>
      <point x="195" y="-179"/>
      <point x="144" y="-179" type="curve" smooth="yes"/>
      <point x="93" y="-179"/>
      <point x="50" y="-203"/>
      <point x="50" y="-232" type="curve" smooth="yes"/>
      <point x="50" y="-262"/>
      <point x="93" y="-286"/>
      <point x="144" y="-286" type="curve" smooth="yes"/>
      <point x="195" y="-286"/>
      <point x="238" y="-262"/>
    </contour>
  </outline>
</glyph>
<glyph name="u0A1F_u0A3C" format="1">
  <advance width="1238"/>
  <outline>
    <contour>
      <point x="1260" y="614" type="line"/>
      <point x="0" y="614" type="line"/>
      <point x="0" y="540" type="line"/>
      <point x="950" y="540" type="line"/>
      <point x="950" y="416" type="line"/>
      <point x="501" y="416"/>
      <point x="221" y="341"/>
      <point x="109" y="194" type="curve"/>
      <point x="158" y="112"/>
      <point x="236" y="49"/>
      <point x="341" y="3" type="curve" smooth="yes"/>
      <point x="450" y="-44"/>
      <point x="579" y="-67"/>
      <point x="727" y="-67" type="curve" smooth="yes"/>
      <point x="805" y="-67"/>
      <point x="887" y="-59"/>
      <point x="973" y="-42" type="curve" smooth="yes"/>
      <point x="1082" y="-21"/>
      <point x="1137" y="7"/>
      <point x="1137" y="39" type="curve" smooth="yes"/>
      <point x="1137" y="45" type="line"/>
      <point x="995" y="25"/>
      <point x="858" y="15"/>
      <point x="727" y="15" type="curve" smooth="yes"/>
      <point x="627" y="15"/>
      <point x="536" y="32"/>
      <point x="455" y="66" type="curve" smooth="yes"/>
      <point x="379" y="97"/>
      <point x="318" y="140"/>
      <point x="271" y="194" type="curve"/>
      <point x="356" y="254"/>
      <point x="467" y="294"/>
      <point x="603" y="314" type="curve" smooth="yes"/>
      <point x="693" y="327"/>
      <point x="825" y="334"/>
      <point x="1001" y="334" type="curve" smooth="yes"/>
      <point x="1094" y="334" type="line"/>
      <point x="1094" y="540" type="line"/>
      <point x="1260" y="540" type="line"/>
    </contour>
    <contour>
      <point x="257" y="-82" type="curve" smooth="yes"/>
      <point x="257" y="-53"/>
      <point x="215" y="-29"/>
      <point x="164" y="-29" type="curve" smooth="yes"/>
      <point x="113" y="-29"/>
      <point x="70" y="-53"/>
      <point x="70" y="-82" type="curve" smooth="yes"/>
      <point x="70" y="-112"/>
      <point x="113" y="-136"/>
      <point x="164" y="-136" type="curve" smooth="yes"/>
      <point x="215" y="-136"/>
      <point x="257" y="-112"/>
    </contour>
  </outline>
</glyph>
<glyph name="u0A1F_u0A3C_u0A4D" format="1">
  <advance width="1238"/>
  <outline>
    <contour>
      <point x="1260" y="364" type="line"/>
      <point x="0" y="364" type="line"/>
      <point x="0" y="290" type="line"/>
      <point x="950" y="290" type="line"/>
      <point x="950" y="166" type="line"/>
      <point x="501" y="166"/>
      <point x="221" y="92"/>
      <point x="109" y="-56" type="curve"/>
      <point x="158" y="-138"/>
      <point x="236" y="-201"/>
      <point x="341" y="-247" type="curve" smooth="yes"/>
      <point x="450" y="-294"/>
      <point x="579" y="-317"/>
      <point x="727" y="-317" type="curve" smooth="yes"/>
      <point x="805" y="-317"/>
      <point x="887" y="-309"/>
      <point x="973" y="-292" type="curve" smooth="yes"/>
      <point x="1082" y="-270"/>
      <point x="1137" y="-243"/>
      <point x="1137" y="-211" type="curve" smooth="yes"/>
      <point x="1137" y="-204" type="line"/>
      <point x="995" y="-225"/>
      <point x="858" y="-234"/>
      <point x="727" y="-234" type="curve" smooth="yes"/>
      <point x="627" y="-234"/>
      <point x="536" y="-217"/>
      <point x="455" y="-184" type="curve" smooth="yes"/>
      <point x="379" y="-152"/>
      <point x="318" y="-110"/>
      <point x="271" y="-56" type="curve"/>
      <point x="356" y="4"/>
      <point x="467" y="44"/>
      <point x="603" y="64" type="curve" smooth="yes"/>
      <point x="693" y="77"/>
      <point x="825" y="84"/>
      <point x="1001" y="84" type="curve" smooth="yes"/>
      <point x="1094" y="84" type="line"/>
      <point x="1094" y="290" type="line"/>
      <point x="1260" y="290" type="line"/>
    </contour>
    <contour>
      <point x="257" y="-332" type="curve" smooth="yes"/>
      <point x="257" y="-303"/>
      <point x="215" y="-279"/>
      <point x="164" y="-279" type="curve" smooth="yes"/>
      <point x="113" y="-279"/>
      <point x="70" y="-303"/>
      <point x="70" y="-332" type="curve" smooth="yes"/>
      <point x="70" y="-362"/>
      <point x="113" y="-386"/>
      <point x="164" y="-386" type="curve" smooth="yes"/>
      <point x="215" y="-386"/>
      <point x="257" y="-362"/>
    </contour>
    <contour>
      <point x="811" y="-390" type="line"/>
      <point x="695" y="-437" type="line"/>
      <point x="961" y="-651" type="line"/>
      <point x="1075" y="-601" type="line"/>
    </contour>
  </outline>
</glyph>
<glyph name="u0A20_u0A3C" format="1">
  <advance width="1267"/>
  <outline>
    <contour>
      <point x="1289" y="614" type="line"/>
      <point x="0" y="614" type="line"/>
      <point x="0" y="540" type="line"/>
      <point x="557" y="540" type="line"/>
      <point x="557" y="423" type="line"/>
      <point x="274" y="360"/>
      <point x="132" y="278"/>
      <point x="132" y="174" type="curve" smooth="yes"/>
      <point x="132" y="106"/>
      <point x="186" y="48"/>
      <point x="293" y="0" type="curve" smooth="yes"/>
      <point x="393" y="-44"/>
      <point x="505" y="-66"/>
      <point x="630" y="-66" type="curve" smooth="yes"/>
      <point x="755" y="-66"/>
      <point x="867" y="-44"/>
      <point x="967" y="0" type="curve" smooth="yes"/>
      <point x="1074" y="48"/>
      <point x="1128" y="106"/>
      <point x="1128" y="174" type="curve" smooth="yes"/>
      <point x="1128" y="278"/>
      <point x="986" y="360"/>
      <point x="702" y="423" type="curve"/>
      <point x="702" y="540" type="line"/>
      <point x="1289" y="540" type="line"/>
    </contour>
    <contour>
      <point x="984" y="174" type="curve" smooth="yes"/>
      <point x="984" y="129"/>
      <point x="943" y="91"/>
      <point x="863" y="59" type="curve" smooth="yes"/>
      <point x="790" y="29"/>
      <point x="713" y="15"/>
      <point x="629" y="15" type="curve" smooth="yes"/>
      <point x="546" y="15"/>
      <point x="469" y="29"/>
      <point x="396" y="59" type="curve" smooth="yes"/>
      <point x="316" y="91"/>
      <point x="276" y="129"/>
      <point x="276" y="174" type="curve" smooth="yes"/>
      <point x="276" y="214"/>
      <point x="316" y="251"/>
      <point x="395" y="284" type="curve" smooth="yes"/>
      <point x="457" y="310"/>
      <point x="533" y="331"/>
      <point x="623" y="347" type="curve"/>
      <point x="716" y="331"/>
      <point x="794" y="309"/>
      <point x="858" y="284" type="curve" smooth="yes"/>
      <point x="941" y="251"/>
      <point x="984" y="214"/>
    </contour>
    <contour>
      <point x="238" y="-82" type="curve" smooth="yes"/>
      <point x="238" y="-53"/>
      <point x="195" y="-29"/>
      <point x="144" y="-29" type="curve" smooth="yes"/>
      <point x="93" y="-29"/>
      <point x="50" y="-53"/>
      <point x="50" y="-82" type="curve" smooth="yes"/>
      <point x="50" y="-112"/>
      <point x="93" y="-136"/>
      <point x="144" y="-136" type="curve" smooth="yes"/>
      <point x="195" y="-136"/>
      <point x="238" y="-112"/>
    </contour>
  </outline>
</glyph>
<glyph name="u0A21_u0A4D" format="1">
  <advance width="1238"/>
  <outline>
    <contour>
      <point x="1260" y="364" type="line"/>
      <point x="0" y="364" type="line"/>
      <point x="0" y="290" type="line"/>
      <point x="951" y="290" type="line"/>
      <point x="949" y="196"/>
      <point x="884" y="130"/>
      <point x="755" y="92" type="curve"/>
      <point x="681" y="106"/>
      <point x="592" y="112"/>
      <point x="488" y="112" type="curve" smooth="yes"/>
      <point x="341" y="112"/>
      <point x="266" y="91"/>
      <point x="262" y="48" type="curve" smooth="yes"/>
      <point x="258" y="11"/>
      <point x="313" y="-9"/>
      <point x="427" y="-12" type="curve" smooth="yes"/>
      <point x="538" y="-16"/>
      <point x="642" y="-9"/>
      <point x="738" y="7" type="curve"/>
      <point x="854" y="-29"/>
      <point x="912" y="-71"/>
      <point x="912" y="-120" type="curve" smooth="yes"/>
      <point x="912" y="-142"/>
      <point x="892" y="-162"/>
      <point x="852" y="-182" type="curve" smooth="yes"/>
      <point x="820" y="-198"/>
      <point x="783" y="-211"/>
      <point x="742" y="-218" type="curve"/>
      <point x="709" y="-174"/>
      <point x="656" y="-138"/>
      <point x="583" y="-110" type="curve" smooth="yes"/>
      <point x="510" y="-82"/>
      <point x="434" y="-68"/>
      <point x="354" y="-68" type="curve" smooth="yes"/>
      <point x="287" y="-68"/>
      <point x="230" y="-75"/>
      <point x="182" y="-89" type="curve" smooth="yes"/>
      <point x="120" y="-106"/>
      <point x="88" y="-132"/>
      <point x="88" y="-168" type="curve" smooth="yes"/>
      <point x="88" y="-223"/>
      <point x="142" y="-264"/>
      <point x="249" y="-290" type="curve" smooth="yes"/>
      <point x="329" y="-309"/>
      <point x="425" y="-319"/>
      <point x="538" y="-319" type="curve" smooth="yes"/>
      <point x="663" y="-319"/>
      <point x="775" y="-305"/>
      <point x="871" y="-278" type="curve" smooth="yes"/>
      <point x="994" y="-243"/>
      <point x="1055" y="-192"/>
      <point x="1055" y="-126" type="curve" smooth="yes"/>
      <point x="1055" y="-91"/>
      <point x="1045" y="-62"/>
      <point x="1024" y="-39" type="curve" smooth="yes"/>
      <point x="1000" y="-11"/>
      <point x="956" y="15"/>
      <point x="892" y="42" type="curve"/>
      <point x="1022" y="87"/>
      <point x="1090" y="170"/>
      <point x="1094" y="290" type="curve"/>
      <point x="1260" y="290" type="line"/>
    </contour>
    <contour>
      <point x="601" y="-234" type="curve"/>
      <point x="579" y="-235"/>
      <point x="558" y="-236"/>
      <point x="538" y="-236" type="curve" smooth="yes"/>
      <point x="334" y="-236"/>
      <point x="232" y="-214"/>
      <point x="232" y="-168" type="curve" smooth="yes"/>
      <point x="232" y="-151"/>
      <point x="267" y="-143"/>
      <point x="337" y="-143" type="curve" smooth="yes"/>
      <point x="400" y="-143"/>
      <point x="450" y="-149"/>
      <point x="489" y="-161" type="curve" smooth="yes"/>
      <point x="535" y="-175"/>
      <point x="572" y="-199"/>
    </contour>
    <contour>
      <point x="856" y="-390" type="line"/>
      <point x="740" y="-437" type="line"/>
      <point x="1006" y="-651" type="line"/>
      <point x="1120" y="-601" type="line"/>
    </contour>
  </outline>
</glyph>
<glyph name="u0A24_u0A3C_u0A4D" format="1">
  <advance width="1238"/>
  <outline>
    <contour>
      <point x="1260" y="364" type="line"/>
      <point x="0" y="364" type="line"/>
      <point x="0" y="290" type="line"/>
      <point x="951" y="290" type="line"/>
      <point x="950" y="194"/>
      <point x="884" y="128"/>
      <point x="755" y="92" type="curve"/>
      <point x="674" y="106"/>
      <point x="585" y="112"/>
      <point x="488" y="112" type="curve" smooth="yes"/>
      <point x="338" y="112"/>
      <point x="262" y="90"/>
      <point x="262" y="45" type="curve" smooth="yes"/>
      <point x="262" y="7"/>
      <point x="335" y="-13"/>
      <point x="482" y="-13" type="curve" smooth="yes"/>
      <point x="572" y="-13"/>
      <point x="658" y="-6"/>
      <point x="738" y="7" type="curve"/>
      <point x="854" y="-31"/>
      <point x="912" y="-76"/>
      <point x="912" y="-125" type="curve" smooth="yes"/>
      <point x="912" y="-199"/>
      <point x="793" y="-236"/>
      <point x="556" y="-236" type="curve" smooth="yes"/>
      <point x="486" y="-236"/>
      <point x="393" y="-225"/>
      <point x="278" y="-200" type="curve" smooth="yes"/>
      <point x="163" y="-176"/>
      <point x="106" y="-164"/>
      <point x="108" y="-164" type="curve"/>
      <point x="93" y="-164"/>
      <point x="85" y="-168"/>
      <point x="85" y="-178" type="curve" smooth="yes"/>
      <point x="85" y="-222"/>
      <point x="147" y="-258"/>
      <point x="271" y="-286" type="curve" smooth="yes"/>
      <point x="369" y="-308"/>
      <point x="464" y="-319"/>
      <point x="556" y="-319" type="curve" smooth="yes"/>
      <point x="689" y="-319"/>
      <point x="798" y="-306"/>
      <point x="885" y="-282" type="curve" smooth="yes"/>
      <point x="998" y="-250"/>
      <point x="1055" y="-200"/>
      <point x="1055" y="-131" type="curve" smooth="yes"/>
      <point x="1055" y="-57"/>
      <point x="1001" y="2"/>
      <point x="892" y="42" type="curve"/>
      <point x="1022" y="87"/>
      <point x="1090" y="170"/>
      <point x="1094" y="290" type="curve"/>
      <point x="1260" y="290" type="line"/>
    </contour>
    <contour>
      <point x="238" y="-384" type="curve" smooth="yes"/>
      <point x="238" y="-354"/>
      <point x="195" y="-330"/>
      <point x="144" y="-330" type="curve" smooth="yes"/>
      <point x="93" y="-330"/>
      <point x="50" y="-354"/>
      <point x="50" y="-384" type="curve" smooth="yes"/>
      <point x="50" y="-413"/>
      <point x="93" y="-437"/>
      <point x="144" y="-437" type="curve" smooth="yes"/>
      <point x="195" y="-437"/>
      <point x="238" y="-413"/>
    </contour>
    <contour>
      <point x="676" y="-390" type="line"/>
      <point x="560" y="-437" type="line"/>
      <point x="826" y="-651" type="line"/>
      <point x="940" y="-601" type="line"/>
    </contour>
  </outline>
</glyph>
<glyph name="u0A25_u0A4D" format="1">
  <advance width="1238"/>
  <outline>
    <contour>
      <point x="1260" y="364" type="line"/>
      <point x="0" y="364" type="line"/>
      <point x="0" y="290" type="line"/>
      <point x="222" y="290" type="line"/>
      <point x="262" y="263"/>
      <point x="282" y="220"/>
      <point x="282" y="164" type="curve" smooth="yes"/>
      <point x="282" y="112"/>
      <point x="261" y="63"/>
      <point x="219" y="18" type="curve"/>
      <point x="147" y="-45" type="line"/>
      <point x="189" y="-78"/>
      <point x="251" y="-105"/>
      <point x="335" y="-126" type="curve" smooth="yes"/>
      <point x="414" y="-146"/>
      <point x="495" y="-156"/>
      <point x="577" y="-156" type="curve" smooth="yes"/>
      <point x="743" y="-156"/>
      <point x="869" y="-142"/>
      <point x="950" y="-115" type="curve"/>
      <point x="950" y="-316" type="line"/>
      <point x="1094" y="-316" type="line"/>
      <point x="1094" y="290" type="line"/>
      <point x="1260" y="290" type="line"/>
    </contour>
    <contour>
      <point x="426" y="141" type="line"/>
      <point x="427" y="207"/>
      <point x="415" y="256"/>
      <point x="391" y="290" type="curve"/>
      <point x="950" y="290" type="line"/>
      <point x="950" y="141" type="line"/>
    </contour>
    <contour>
      <point x="950" y="-17" type="line"/>
      <point x="917" y="-35"/>
      <point x="860" y="-48"/>
      <point x="781" y="-59" type="curve" smooth="yes"/>
      <point x="712" y="-69"/>
      <point x="644" y="-73"/>
      <point x="577" y="-73" type="curve" smooth="yes"/>
      <point x="466" y="-73"/>
      <point x="382" y="-60"/>
      <point x="325" y="-34" type="curve"/>
      <point x="365" y="-4"/>
      <point x="392" y="30"/>
      <point x="407" y="66" type="curve"/>
      <point x="950" y="66" type="line"/>
    </contour>
    <contour>
      <point x="1081" y="-390" type="line"/>
      <point x="965" y="-437" type="line"/>
      <point x="1231" y="-651" type="line"/>
      <point x="1345" y="-601" type="line"/>
    </contour>
  </outline>
</glyph>
<glyph name="u0A26_u0A4D" format="1">
  <advance width="1238"/>
  <outline>
    <contour>
      <point x="1260" y="364" type="line"/>
      <point x="0" y="364" type="line"/>
      <point x="0" y="290" type="line"/>
      <point x="950" y="290" type="line"/>
      <point x="950" y="120" type="line"/>
      <point x="324" y="120" type="line"/>
      <point x="300" y="162"/>
      <point x="264" y="183"/>
      <point x="216" y="183" type="curve" smooth="yes"/>
      <point x="176" y="183"/>
      <point x="139" y="171"/>
      <point x="104" y="148" type="curve" smooth="yes"/>
      <point x="68" y="125"/>
      <point x="51" y="101"/>
      <point x="51" y="78" type="curve" smooth="yes"/>
      <point x="51" y="59"/>
      <point x="67" y="46"/>
      <point x="96" y="38" type="curve" smooth="yes"/>
      <point x="112" y="34"/>
      <point x="140" y="30"/>
      <point x="184" y="27" type="curve"/>
      <point x="194" y="-71"/>
      <point x="241" y="-150"/>
      <point x="329" y="-213" type="curve" smooth="yes"/>
      <point x="426" y="-281"/>
      <point x="556" y="-316"/>
      <point x="720" y="-316" type="curve" smooth="yes"/>
      <point x="809" y="-316"/>
      <point x="902" y="-303"/>
      <point x="1000" y="-277" type="curve" smooth="yes"/>
      <point x="1114" y="-246"/>
      <point x="1172" y="-210"/>
      <point x="1172" y="-168" type="curve" smooth="yes"/>
      <point x="1172" y="-159"/>
      <point x="1166" y="-155"/>
      <point x="1153" y="-155" type="curve" smooth="yes"/>
      <point x="1143" y="-155"/>
      <point x="1087" y="-166"/>
      <point x="984" y="-188" type="curve" smooth="yes"/>
      <point x="880" y="-210"/>
      <point x="793" y="-221"/>
      <point x="722" y="-221" type="curve" smooth="yes"/>
      <point x="501" y="-221"/>
      <point x="374" y="-136"/>
      <point x="339" y="35" type="curve"/>
      <point x="1094" y="35" type="line"/>
      <point x="1094" y="290" type="line"/>
      <point x="1260" y="290" type="line"/>
    </contour>
    <contour>
      <point x="811" y="-390" type="line"/>
      <point x="695" y="-437" type="line"/>
      <point x="961" y="-651" type="line"/>
      <point x="1075" y="-601" type="line"/>
    </contour>
  </outline>
</glyph>
<glyph name="u0A28_u0A3C" format="1">
  <advance width="1238"/>
  <outline>
    <contour>
      <point x="1260" y="614" type="line"/>
      <point x="0" y="614" type="line"/>
      <point x="0" y="540" type="line"/>
      <point x="555" y="540" type="line"/>
      <point x="555" y="422" type="line"/>
      <point x="432" y="402"/>
      <point x="331" y="374"/>
      <point x="252" y="339" type="curve" smooth="yes"/>
      <point x="150" y="293"/>
      <point x="99" y="239"/>
      <point x="99" y="178" type="curve" smooth="yes"/>
      <point x="99" y="117"/>
      <point x="130" y="66"/>
      <point x="191" y="23" type="curve" smooth="yes"/>
      <point x="249" y="-17"/>
      <point x="330" y="-46"/>
      <point x="434" y="-65" type="curve"/>
      <point x="476" y="13" type="line"/>
      <point x="320" y="41"/>
      <point x="243" y="96"/>
      <point x="243" y="178" type="curve" smooth="yes"/>
      <point x="243" y="210"/>
      <point x="281" y="241"/>
      <point x="356" y="272" type="curve" smooth="yes"/>
      <point x="412" y="296"/>
      <point x="475" y="314"/>
      <point x="545" y="328" type="curve" smooth="yes"/>
      <point x="586" y="335"/>
      <point x="615" y="339"/>
      <point x="631" y="339" type="curve" smooth="yes"/>
      <point x="647" y="339"/>
      <point x="676" y="335"/>
      <point x="717" y="327" type="curve" smooth="yes"/>
      <point x="786" y="314"/>
      <point x="848" y="295"/>
      <point x="903" y="272" type="curve" smooth="yes"/>
      <point x="976" y="241"/>
      <point x="1013" y="210"/>
      <point x="1013" y="178" type="curve" smooth="yes"/>
      <point x="1013" y="96"/>
      <point x="935" y="41"/>
      <point x="779" y="13" type="curve"/>
      <point x="822" y="-65" type="line"/>
      <point x="925" y="-46"/>
      <point x="1006" y="-17"/>
      <point x="1065" y="23" type="curve" smooth="yes"/>
      <point x="1126" y="66"/>
      <point x="1157" y="117"/>
      <point x="1157" y="178" type="curve" smooth="yes"/>
      <point x="1157" y="241"/>
      <point x="1106" y="295"/>
      <point x="1004" y="340" type="curve" smooth="yes"/>
      <point x="926" y="374"/>
      <point x="824" y="402"/>
      <point x="699" y="422" type="curve"/>
      <point x="699" y="540" type="line"/>
      <point x="1260" y="540" type="line"/>
    </contour>
    <contour>
      <point x="242" y="-82" type="curve" smooth="yes"/>
      <point x="242" y="-53"/>
      <point x="200" y="-29"/>
      <point x="149" y="-29" type="curve" smooth="yes"/>
      <point x="97" y="-29"/>
      <point x="55" y="-53"/>
      <point x="55" y="-82" type="curve" smooth="yes"/>
      <point x="55" y="-112"/>
      <point x="97" y="-136"/>
      <point x="149" y="-136" type="curve" smooth="yes"/>
      <point x="200" y="-136"/>
      <point x="242" y="-112"/>
    </contour>
  </outline>
</glyph>
<glyph name="u0A28_u0A3C_u0A4D" format="1">
  <advance width="1238"/>
  <outline>
    <contour>
      <point x="1260" y="364" type="line"/>
      <point x="0" y="364" type="line"/>
      <point x="0" y="290" type="line"/>
      <point x="555" y="290" type="line"/>
      <point x="555" y="172" type="line"/>
      <point x="432" y="152"/>
      <point x="331" y="125"/>
      <point x="252" y="89" type="curve" smooth="yes"/>
      <point x="150" y="43"/>
      <point x="99" y="-10"/>
      <point x="99" y="-72" type="curve" smooth="yes"/>
      <point x="99" y="-132"/>
      <point x="130" y="-184"/>
      <point x="191" y="-227" type="curve" smooth="yes"/>
      <point x="249" y="-267"/>
      <point x="330" y="-296"/>
      <point x="434" y="-315" type="curve"/>
      <point x="476" y="-236" type="line"/>
      <point x="320" y="-209"/>
      <point x="243" y="-154"/>
      <point x="243" y="-72" type="curve" smooth="yes"/>
      <point x="243" y="-40"/>
      <point x="281" y="-9"/>
      <point x="356" y="22" type="curve" smooth="yes"/>
      <point x="412" y="46"/>
      <point x="475" y="64"/>
      <point x="545" y="78" type="curve" smooth="yes"/>
      <point x="586" y="85"/>
      <point x="615" y="90"/>
      <point x="631" y="90" type="curve" smooth="yes"/>
      <point x="647" y="90"/>
      <point x="676" y="85"/>
      <point x="717" y="77" type="curve" smooth="yes"/>
      <point x="786" y="64"/>
      <point x="848" y="45"/>
      <point x="903" y="22" type="curve" smooth="yes"/>
      <point x="976" y="-9"/>
      <point x="1013" y="-40"/>
      <point x="1013" y="-72" type="curve" smooth="yes"/>
      <point x="1013" y="-154"/>
      <point x="935" y="-209"/>
      <point x="779" y="-236" type="curve"/>
      <point x="822" y="-315" type="line"/>
      <point x="925" y="-296"/>
      <point x="1006" y="-267"/>
      <point x="1065" y="-227" type="curve" smooth="yes"/>
      <point x="1126" y="-184"/>
      <point x="1157" y="-132"/>
      <point x="1157" y="-72" type="curve" smooth="yes"/>
      <point x="1157" y="-9"/>
      <point x="1106" y="45"/>
      <point x="1004" y="90" type="curve" smooth="yes"/>
      <point x="926" y="125"/>
      <point x="824" y="152"/>
      <point x="699" y="172" type="curve"/>
      <point x="699" y="290" type="line"/>
      <point x="1260" y="290" type="line"/>
    </contour>
    <contour>
      <point x="242" y="-332" type="curve" smooth="yes"/>
      <point x="242" y="-303"/>
      <point x="200" y="-279"/>
      <point x="149" y="-279" type="curve" smooth="yes"/>
      <point x="97" y="-279"/>
      <point x="55" y="-303"/>
      <point x="55" y="-332" type="curve" smooth="yes"/>
      <point x="55" y="-362"/>
      <point x="97" y="-386"/>
      <point x="149" y="-386" type="curve" smooth="yes"/>
      <point x="200" y="-386"/>
      <point x="242" y="-362"/>
    </contour>
    <contour>
      <point x="901" y="-390" type="line"/>
      <point x="785" y="-437" type="line"/>
      <point x="1051" y="-651" type="line"/>
      <point x="1165" y="-601" type="line"/>
    </contour>
  </outline>
</glyph>
<glyph name="u0A2C_u0A4D" format="1">
  <advance width="1256"/>
  <outline>
    <contour>
      <point x="1278" y="364" type="line"/>
      <point x="0" y="364" type="line"/>
      <point x="0" y="290" type="line"/>
      <point x="78" y="290" type="line"/>
      <point x="128" y="160"/>
      <point x="248" y="75"/>
      <point x="436" y="37" type="curve"/>
      <point x="393" y="17"/>
      <point x="352" y="-7"/>
      <point x="312" y="-37" type="curve" smooth="yes"/>
      <point x="268" y="-71"/>
      <point x="240" y="-101"/>
      <point x="229" y="-128" type="curve"/>
      <point x="257" y="-156"/>
      <point x="314" y="-178"/>
      <point x="401" y="-196" type="curve" smooth="yes"/>
      <point x="477" y="-212"/>
      <point x="545" y="-220"/>
      <point x="608" y="-220" type="curve" smooth="yes"/>
      <point x="761" y="-220"/>
      <point x="881" y="-211"/>
      <point x="968" y="-194" type="curve"/>
      <point x="968" y="-316" type="line"/>
      <point x="1112" y="-316" type="line"/>
      <point x="1112" y="290" type="line"/>
      <point x="1278" y="290" type="line"/>
    </contour>
    <contour>
      <point x="968" y="81" type="line"/>
      <point x="746" y="81"/>
      <point x="591" y="90"/>
      <point x="502" y="108" type="curve" smooth="yes"/>
      <point x="359" y="136"/>
      <point x="266" y="197"/>
      <point x="226" y="290" type="curve"/>
      <point x="968" y="290" type="line"/>
    </contour>
    <contour>
      <point x="968" y="-98" type="line"/>
      <point x="876" y="-122"/>
      <point x="764" y="-135"/>
      <point x="635" y="-138" type="curve" smooth="yes"/>
      <point x="518" y="-140"/>
      <point x="434" y="-130"/>
      <point x="383" y="-108" type="curve"/>
      <point x="423" y="-71"/>
      <point x="492" y="-34"/>
      <point x="591" y="3" type="curve"/>
      <point x="635" y="-2"/>
      <point x="752" y="-5"/>
      <point x="942" y="-5" type="curve"/>
      <point x="958" y="-5"/>
      <point x="967" y="-5"/>
      <point x="968" y="-5" type="curve"/>
    </contour>
    <contour>
      <point x="1108" y="-390" type="line"/>
      <point x="992" y="-437" type="line"/>
      <point x="1258" y="-651" type="line"/>
      <point x="1372" y="-601" type="line"/>
    </contour>
  </outline>
</glyph>
<glyph name="u0A2D_u0A3C" format="1">
  <advance width="1134.0"/>
  <outline>
    <contour>
      <point x="1156" y="565" type="line"/>
      <point x="0" y="565" type="line"/>
      <point x="0" y="491" type="line"/>
      <point x="857" y="491" type="line"/>
      <point x="856" y="466"/>
      <point x="849" y="437"/>
      <point x="835" y="402" type="curve" smooth="yes"/>
      <point x="820" y="363"/>
      <point x="803" y="335"/>
      <point x="784" y="317" type="curve"/>
      <point x="690" y="354"/>
      <point x="590" y="372"/>
      <point x="485" y="372" type="curve" smooth="yes"/>
      <point x="383" y="372"/>
      <point x="306" y="366"/>
      <point x="253" y="353" type="curve" smooth="yes"/>
      <point x="173" y="334"/>
      <point x="132" y="299"/>
      <point x="132" y="249" type="curve" smooth="yes"/>
      <point x="132" y="212"/>
      <point x="166" y="183"/>
      <point x="231" y="161" type="curve" smooth="yes"/>
      <point x="287" y="143"/>
      <point x="350" y="133"/>
      <point x="419" y="133" type="curve" smooth="yes"/>
      <point x="499" y="133"/>
      <point x="564" y="138"/>
      <point x="616" y="148" type="curve" smooth="yes"/>
      <point x="665" y="157"/>
      <point x="723" y="175"/>
      <point x="788" y="203" type="curve"/>
      <point x="823" y="175"/>
      <point x="840" y="145"/>
      <point x="840" y="110" type="curve" smooth="yes"/>
      <point x="840" y="66"/>
      <point x="798" y="32"/>
      <point x="715" y="8" type="curve" smooth="yes"/>
      <point x="649" y="-11"/>
      <point x="572" y="-21"/>
      <point x="487" y="-21" type="curve" smooth="yes"/>
      <point x="371" y="-21"/>
      <point x="262" y="-5"/>
      <point x="162" y="28" type="curve"/>
      <point x="67" y="64" type="line"/>
      <point x="62" y="64"/>
      <point x="60" y="60"/>
      <point x="60" y="52" type="curve" smooth="yes"/>
      <point x="60" y="42"/>
      <point x="62" y="33"/>
      <point x="67" y="27" type="curve" smooth="yes"/>
      <point x="93" y="-13"/>
      <point x="152" y="-45"/>
      <point x="243" y="-70" type="curve" smooth="yes"/>
      <point x="323" y="-92"/>
      <point x="405" y="-103"/>
      <point x="487" y="-103" type="curve" smooth="yes"/>
      <point x="617" y="-103"/>
      <point x="728" y="-86"/>
      <point x="821" y="-53" type="curve" smooth="yes"/>
      <point x="930" y="-15"/>
      <point x="984" y="40"/>
      <point x="984" y="110" type="curve" smooth="yes"/>
      <point x="984" y="166"/>
      <point x="953" y="216"/>
      <point x="893" y="259" type="curve"/>
      <point x="926" y="284"/>
      <point x="953" y="321"/>
      <point x="974" y="370" type="curve" smooth="yes"/>
      <point x="992" y="413"/>
      <point x="1001" y="454"/>
      <point x="1001" y="491" type="curve"/>
      <point x="1156" y="491" type="line"/>
    </contour>
    <contour>
      <point x="687" y="253" type="curve"/>
      <point x="647" y="236"/>
      <point x="605" y="225"/>
      <point x="560" y="220" type="curve" smooth="yes"/>
      <point x="532" y="217"/>
      <point x="485" y="216"/>
      <point x="419" y="216" type="curve" smooth="yes"/>
      <point x="396" y="216"/>
      <point x="368" y="218"/>
      <point x="337" y="224" type="curve" smooth="yes"/>
      <point x="296" y="231"/>
      <point x="276" y="239"/>
      <point x="276" y="249" type="curve" smooth="yes"/>
      <point x="276" y="276"/>
      <point x="343" y="289"/>
      <point x="475" y="289" type="curve" smooth="yes"/>
      <point x="549" y="289"/>
      <point x="619" y="277"/>
    </contour>
    <contour>
      <point x="283" y="-182" type="curve" smooth="yes"/>
      <point x="283" y="-153"/>
      <point x="240" y="-129"/>
      <point x="189" y="-129" type="curve" smooth="yes"/>
      <point x="138" y="-129"/>
      <point x="95" y="-153"/>
      <point x="95" y="-182" type="curve" smooth="yes"/>
      <point x="95" y="-212"/>
      <point x="138" y="-236"/>
      <point x="189" y="-236" type="curve" smooth="yes"/>
      <point x="240" y="-236"/>
      <point x="283" y="-212"/>
    </contour>
  </outline>
</glyph>
<glyph name="u0A2F_u0A3C" format="1">
  <advance width="1300"/>
  <outline>
    <contour>
      <point x="1321" y="638" type="line"/>
      <point x="0" y="638" type="line"/>
      <point x="0" y="564" type="line"/>
      <point x="124" y="564" type="line"/>
      <point x="178" y="517"/>
      <point x="205" y="461"/>
      <point x="205" y="398" type="curve" smooth="yes"/>
      <point x="205" y="340"/>
      <point x="167" y="283"/>
      <point x="88" y="226" type="curve"/>
      <point x="183" y="114"/>
      <point x="323" y="59"/>
      <point x="508" y="59" type="curve" smooth="yes"/>
      <point x="568" y="59"/>
      <point x="652" y="67"/>
      <point x="758" y="85" type="curve"/>
      <point x="758" y="271" type="line"/>
      <point x="1012" y="271" type="line"/>
      <point x="1012" y="-42" type="line"/>
      <point x="1156" y="-42" type="line"/>
      <point x="1156" y="564" type="line"/>
      <point x="1321" y="564" type="line"/>
    </contour>
    <contour>
      <point x="616" y="354" type="line"/>
      <point x="616" y="155" type="line"/>
      <point x="582" y="145"/>
      <point x="546" y="141"/>
      <point x="508" y="141" type="curve" smooth="yes"/>
      <point x="392" y="141"/>
      <point x="311" y="169"/>
      <point x="266" y="227" type="curve"/>
      <point x="326" y="295"/>
      <point x="356" y="352"/>
      <point x="356" y="398" type="curve" smooth="yes"/>
      <point x="356" y="448"/>
      <point x="331" y="503"/>
      <point x="283" y="564" type="curve"/>
      <point x="1012" y="564" type="line"/>
      <point x="1012" y="354" type="line"/>
    </contour>
    <contour>
      <point x="283" y="-32" type="curve" smooth="yes"/>
      <point x="283" y="-3"/>
      <point x="240" y="21"/>
      <point x="189" y="21" type="curve" smooth="yes"/>
      <point x="138" y="21"/>
      <point x="95" y="-3"/>
      <point x="95" y="-32" type="curve" smooth="yes"/>
      <point x="95" y="-62"/>
      <point x="138" y="-86"/>
      <point x="189" y="-86" type="curve" smooth="yes"/>
      <point x="240" y="-86"/>
      <point x="283" y="-62"/>
    </contour>
  </outline>
</glyph>
<glyph name="u0A2F_u0A3C_u0A4D" format="1">
  <advance width="1300"/>
  <outline>
    <contour>
      <point x="1321" y="364" type="line"/>
      <point x="0" y="364" type="line"/>
      <point x="0" y="290" type="line"/>
      <point x="124" y="290" type="line"/>
      <point x="178" y="243"/>
      <point x="205" y="187"/>
      <point x="205" y="124" type="curve" smooth="yes"/>
      <point x="205" y="66"/>
      <point x="167" y="9"/>
      <point x="88" y="-48" type="curve"/>
      <point x="183" y="-160"/>
      <point x="323" y="-215"/>
      <point x="508" y="-215" type="curve" smooth="yes"/>
      <point x="568" y="-215"/>
      <point x="652" y="-207"/>
      <point x="758" y="-189" type="curve"/>
      <point x="758" y="-3" type="line"/>
      <point x="1012" y="-3" type="line"/>
      <point x="1012" y="-316" type="line"/>
      <point x="1156" y="-316" type="line"/>
      <point x="1156" y="290" type="line"/>
      <point x="1321" y="290" type="line"/>
    </contour>
    <contour>
      <point x="616" y="80" type="line"/>
      <point x="616" y="-120" type="line"/>
      <point x="582" y="-129"/>
      <point x="546" y="-133"/>
      <point x="508" y="-133" type="curve" smooth="yes"/>
      <point x="392" y="-133"/>
      <point x="311" y="-105"/>
      <point x="266" y="-47" type="curve"/>
      <point x="326" y="21"/>
      <point x="356" y="78"/>
      <point x="356" y="124" type="curve" smooth="yes"/>
      <point x="356" y="174"/>
      <point x="331" y="229"/>
      <point x="283" y="290" type="curve"/>
      <point x="1012" y="290" type="line"/>
      <point x="1012" y="80" type="line"/>
    </contour>
    <contour>
      <point x="1144" y="-390" type="line"/>
      <point x="1028" y="-437" type="line"/>
      <point x="1294" y="-651" type="line"/>
      <point x="1408" y="-601" type="line"/>
    </contour>
    <contour>
      <point x="283" y="-306" type="curve" smooth="yes"/>
      <point x="283" y="-277"/>
      <point x="240" y="-253"/>
      <point x="189" y="-253" type="curve" smooth="yes"/>
      <point x="138" y="-253"/>
      <point x="95" y="-277"/>
      <point x="95" y="-306" type="curve" smooth="yes"/>
      <point x="95" y="-336"/>
      <point x="138" y="-360"/>
      <point x="189" y="-360" type="curve" smooth="yes"/>
      <point x="240" y="-360"/>
      <point x="283" y="-336"/>
    </contour>
  </outline>
</glyph>
